<svg width="589" height="245" viewBox="0 0 589 245" fill="none" xmlns="http://www.w3.org/2000/svg" class="h-56 w-56 lg:h-auto lg:w-auto"><path d="M396.787 245C396.216 245 395.644 244.909 395.05 244.726C392.469 243.836 390.824 241.897 390.458 239.387C390.367 238.703 390.367 237.996 390.458 237.311C389.658 237.448 388.836 237.402 387.991 237.129C385.592 236.307 384.061 234.505 383.718 232.155C383.49 230.557 383.855 228.938 384.701 227.569C384.472 227.523 384.221 227.477 383.992 227.409C381.799 226.656 380.405 225.013 380.086 222.891C379.743 220.564 380.839 218.123 382.827 216.708C386.277 214.472 390.138 215.681 394.137 217.256C403.641 221.659 409.833 223.781 414.242 224.169C419.154 224.602 422.398 223.074 423.175 219.971C423.564 218.442 423.175 216.982 422.01 215.59C418.423 211.301 409.056 209.202 396.947 210C375.813 212.51 360.094 213.537 351.024 203.748C343.85 196.014 342.913 185.245 348.328 172.604C349.059 170.893 357.581 153.119 360.917 147.94C361.259 147.415 361.968 147.256 362.493 147.598C363.019 147.94 363.179 148.647 362.836 149.172C359.546 154.26 351.138 171.783 350.43 173.494C345.381 185.245 346.18 195.17 352.692 202.197C361.031 211.187 376.202 210.16 396.718 207.718C409.581 206.851 419.703 209.247 423.746 214.107C425.369 216.046 425.94 218.26 425.369 220.496C424.295 224.739 420.045 226.953 414.014 226.405C409.33 225.994 402.91 223.804 393.2 219.309C389.727 217.94 386.597 216.936 384.084 218.556C382.827 219.446 382.096 221.043 382.325 222.526C382.507 223.804 383.33 224.739 384.678 225.196C386.231 225.675 387.077 224.625 387.282 224.306C387.671 223.713 387.831 222.846 387.305 222.252C386.871 221.842 386.323 221.933 386.163 221.979C385.957 222.047 385.729 222.184 385.66 222.389C385.523 223.005 384.906 223.393 384.289 223.233C383.673 223.097 383.307 222.481 383.444 221.865C383.695 220.861 384.472 220.108 385.546 219.788C386.757 219.446 388.059 219.788 388.973 220.678C389.818 221.636 390.115 222.891 389.818 224.1C392.789 223.576 395.987 224.671 399.254 225.949C399.848 226.177 400.122 226.838 399.894 227.432C399.666 228.025 399.003 228.299 398.409 228.071C394.411 226.496 390.869 225.333 388.014 227.204C386.574 228.23 385.729 230.078 385.98 231.767C386.186 233.25 387.145 234.345 388.699 234.87C390.55 235.44 391.532 234.208 391.783 233.797C392.24 233.09 392.423 232.063 391.783 231.333C391.235 230.808 390.572 230.945 390.367 230.991C390.093 231.059 389.796 231.265 389.727 231.561C389.59 232.177 388.973 232.565 388.356 232.406C387.739 232.269 387.374 231.653 387.511 231.037C387.762 229.964 388.608 229.143 389.75 228.823C391.052 228.458 392.469 228.823 393.451 229.782C393.931 230.306 394.228 230.923 394.388 231.561C396.467 230.443 398.866 230.192 401.745 230.831C402.362 230.968 402.75 231.561 402.613 232.177C402.476 232.793 401.882 233.181 401.265 233.044C398.683 232.497 396.695 232.725 395.005 233.82C393.383 234.961 392.446 237.037 392.72 238.931C392.948 240.597 394.045 241.829 395.759 242.422C397.427 242.947 398.66 242.148 399.254 241.213C399.78 240.414 399.985 239.228 399.254 238.406C398.843 237.996 398.203 237.836 397.586 237.996C397.175 238.11 396.878 238.383 396.81 238.68C396.65 239.296 396.056 239.661 395.439 239.524C394.822 239.387 394.456 238.771 394.594 238.155C394.868 237.037 395.759 236.147 396.97 235.805C398.363 235.417 399.871 235.805 400.922 236.832C402.293 238.383 402.384 240.619 401.173 242.468C400.191 244.133 398.569 245 396.787 245ZM51.9088 237.973C48.0247 237.973 43.958 237.448 39.617 236.353C37.2409 235.76 35.2075 235.166 33.3797 234.642C29.9755 233.66 27.4394 232.93 24.812 232.771C24.6978 233.022 24.5835 233.295 24.4236 233.546C23.1213 235.691 20.6767 236.604 18.1863 235.919C15.5132 235.075 13.7311 233.113 13.297 230.557C12.8858 228.185 13.6854 225.698 15.3761 223.895C14.9877 223.758 14.6222 223.553 14.2566 223.325C11.9491 221.728 10.8524 219.332 11.1951 216.754C11.5835 213.902 13.6626 211.392 16.4728 210.411C21.7962 208.745 26.2057 212.099 30.8894 215.636C34.0423 218.031 37.3094 220.518 40.9878 221.522C44.6891 222.617 48.6873 222.868 52.617 222.23C59.7453 221.089 66.1426 217.233 71.6259 210.753C76.1725 204.912 83.0038 196.447 89.4695 190.698C94.93 185.838 100.87 183.305 104.96 184.081C105.577 184.195 105.988 184.788 105.874 185.404C105.76 186.02 105.143 186.431 104.549 186.317C101.807 185.815 96.5521 187.481 91.0003 192.409C84.6716 198.022 77.9317 206.395 73.408 212.19C67.5362 219.127 60.6592 223.233 52.9826 224.488C48.733 225.173 44.3692 224.899 40.3709 223.713C36.2813 222.572 32.8542 219.971 29.5185 217.438C25.1547 214.13 21.3849 211.255 17.2268 212.556C15.2619 213.24 13.754 215.065 13.4798 217.05C13.2514 218.784 13.9825 220.336 15.5589 221.431C17.0897 222.435 18.5747 221.956 19.4429 221.203C20.1969 220.541 20.7452 219.4 20.2426 218.351C19.9227 217.826 19.3287 217.461 18.6661 217.461C18.2092 217.461 17.8208 217.644 17.6609 217.963C17.341 218.511 16.6556 218.716 16.1072 218.396C15.5589 218.1 15.3533 217.393 15.6732 216.845C16.2443 215.818 17.3638 215.202 18.6661 215.179H18.689C20.1512 215.179 21.5449 215.978 22.276 217.301C22.9157 218.602 22.8472 220.039 22.2303 221.317C25.3375 221.363 28.6275 222.572 31.8261 223.758C35.573 225.127 39.4571 226.565 43.1811 226.336C43.798 226.291 44.3464 226.77 44.392 227.409C44.4377 228.048 43.9579 228.572 43.3182 228.618C39.16 228.869 35.0247 227.363 31.0493 225.903C25.863 224.009 21.4078 222.366 17.8436 224.808C16.1758 226.04 15.2619 228.23 15.6046 230.215C15.9016 231.949 17.0668 233.204 18.8946 233.775C20.6538 234.277 21.9333 233.387 22.5273 232.406C23.0528 231.539 23.2356 230.284 22.4359 229.439C21.979 229.006 21.2936 228.846 20.6538 229.052C20.2197 229.189 19.8999 229.485 19.8313 229.827C19.6943 230.443 19.0774 230.831 18.4834 230.717C17.8665 230.58 17.4781 229.987 17.5923 229.371C17.8436 228.207 18.7118 227.295 19.9684 226.907C21.3849 226.451 22.9386 226.816 24.0581 227.865C24.7892 228.641 25.1776 229.599 25.2461 230.603C28.0335 230.808 30.7523 231.584 34.0651 232.542C35.87 233.067 37.8578 233.638 40.211 234.231C46.3112 235.737 51.7945 236.147 57.0037 235.44C59.4026 235.121 61.4589 234.733 63.6294 233.911C65.5714 233.09 66.3482 231.151 66.1197 229.69C65.9141 228.504 64.9088 227.477 63.7664 227.318C63.081 227.272 62.3499 227.614 61.9387 228.23C61.6417 228.664 61.5731 229.143 61.7559 229.508C62.0529 230.078 61.8244 230.763 61.2533 231.037C60.6821 231.333 59.9967 231.105 59.7225 230.535C59.1513 229.439 59.2656 228.093 60.0195 226.953C60.8877 225.652 62.3499 224.922 63.9721 225.036C66.1654 225.333 67.9703 227.135 68.3587 229.303C68.7471 231.653 67.5362 234.733 64.4747 236.011C62.0529 236.923 59.8596 237.334 57.3007 237.676C55.5186 237.859 53.7365 237.973 51.9088 237.973ZM551.211 234.482C550.32 234.482 549.406 234.277 548.538 233.889C545.773 232.52 544.174 230.078 544.151 227.204C544.105 224.009 545.979 220.952 548.926 219.4C553.998 216.959 559.116 219.355 564.348 222.23C564.896 222.526 565.102 223.233 564.805 223.781C564.508 224.329 563.8 224.534 563.251 224.237C558.385 221.545 554.021 219.492 549.954 221.431C547.852 222.549 546.413 224.853 546.436 227.158C546.459 229.188 547.555 230.831 549.543 231.812C551.485 232.702 553.107 231.926 553.998 230.9C554.775 229.987 555.209 228.572 554.432 227.432C553.953 226.838 553.153 226.519 552.399 226.633C551.828 226.724 551.394 227.021 551.234 227.432C551.005 228.025 550.343 228.321 549.749 228.093C549.155 227.865 548.858 227.203 549.086 226.61C549.543 225.424 550.64 224.58 552.033 224.374C553.633 224.146 555.232 224.785 556.26 226.085C557.562 228.002 557.311 230.512 555.735 232.383C554.524 233.752 552.902 234.482 551.211 234.482ZM156.709 202.608C153.03 202.608 149.329 201.535 145.948 199.391C144.897 198.752 143.869 197.976 142.909 197.132C142.429 196.721 142.406 195.991 142.818 195.512C143.229 195.033 143.96 195.01 144.44 195.421C145.285 196.174 146.199 196.858 147.159 197.451C152.756 201.011 159.382 201.262 164.888 198.159C170.143 195.192 173.296 189.785 173.113 184.081C172.793 178.993 169.686 174.43 165.185 172.49C161.232 170.779 157.074 171.441 153.487 174.407C149.923 177.51 150.037 181.48 151.317 184.172C152.482 186.591 155.064 188.804 158.217 188.256C160.067 187.8 161.552 186.408 162.055 184.56C162.466 183.123 162.169 181.754 161.301 180.864C160.867 180.408 160.867 179.7 161.301 179.244C161.758 178.81 162.466 178.81 162.923 179.244C164.385 180.704 164.888 182.917 164.271 185.153C163.54 187.8 161.438 189.785 158.696 190.469C154.858 191.131 151.111 188.986 149.261 185.153C147.181 180.818 148.278 175.913 152.025 172.65C156.298 169.159 161.415 168.338 166.122 170.391C171.399 172.673 175.032 178.012 175.421 183.967C175.626 190.561 172.016 196.744 166.03 200.121C163.106 201.786 159.93 202.608 156.709 202.608ZM50.6979 198.683C48.1161 198.683 45.0089 197.657 43.1126 195.01C40.3938 198.432 35.276 198.524 32.283 197.611L28.8788 196.561C23.167 194.805 19.2602 193.595 15.3076 193.413C15.1705 193.732 15.0106 194.074 14.8278 194.371C13.3884 196.744 10.6696 197.771 7.90511 196.995C4.93498 196.059 2.94728 193.892 2.46749 191.017C2.01054 188.279 2.97012 185.427 4.93498 183.419C4.43234 183.237 3.92971 183.009 3.47276 182.689C0.913879 180.909 -0.319868 178.263 0.0456869 175.365C0.479783 172.171 2.78735 169.387 5.94026 168.269C11.9034 166.398 16.7013 170.209 21.7962 174.247C25.3375 177.054 28.9931 179.951 33.2426 181.115C37.3094 182.324 39.16 182.575 43.7752 181.822C51.4061 180.59 58.146 172.49 63.5837 165.988C64.2234 165.212 64.8631 164.459 65.48 163.729L65.6856 163.455C70.8034 156.884 75.7155 150.587 80.7647 145.362C70.118 148.693 59.2199 149.058 50.4465 145.932C49.9668 145.75 49.6469 145.293 49.6926 144.791C49.7383 144.29 50.081 143.856 50.5836 143.742C58.0547 142.122 64.8403 135.642 72.0143 128.775C73.9563 126.926 75.9211 125.033 77.9545 123.207C68.016 127.291 57.3464 128.66 48.2075 126.173C47.7277 126.037 47.3622 125.603 47.3622 125.078C47.3622 124.554 47.682 124.12 48.1847 123.96C55.5186 121.77 61.9387 115.039 68.7243 107.943C73.3166 103.129 78.3201 97.9043 84.1461 93.4779C72.357 96.5809 59.951 96.2843 50.4008 91.5385C49.9439 91.3104 49.6926 90.8084 49.784 90.3065C49.8754 89.8045 50.2866 89.4166 50.7893 89.371C56.7752 88.8006 63.0353 85.3325 69.5925 80.9062C63.3552 81.0431 58.6944 79.9251 53.1197 77.1415C52.6627 76.9134 52.4114 76.4114 52.5028 75.9095C52.5942 75.4075 53.0054 75.0196 53.5081 74.974C57.5749 74.5861 60.8192 72.2132 64.5889 69.4753C66.9422 67.7641 69.364 66.0073 72.2199 64.547C72.7911 64.2732 73.4765 64.4786 73.7507 65.049C74.0477 65.6194 73.8192 66.3039 73.248 66.5777C70.5292 67.9694 68.1988 69.6807 65.9141 71.3234C63.0582 73.3997 60.3165 75.3847 57.1865 76.4799C62.1215 78.4421 66.668 78.944 73.1338 78.4192C74.4818 77.461 75.8526 76.4799 77.2234 75.4988C89.1497 66.9199 101.51 58.0444 115.447 58.0444C116.178 58.0216 116.658 58.5464 116.658 59.1852C116.658 59.8241 116.155 60.326 115.515 60.326C115.492 60.326 115.47 60.326 115.47 60.326C102.241 60.326 90.2235 68.9734 78.5714 77.3469C77.1549 78.3736 75.7384 79.3775 74.3447 80.3586C74.2761 80.4271 74.2076 80.4727 74.1162 80.5183C69.7524 83.5985 65.48 86.4277 61.2761 88.4584C62.8983 88.1389 64.5204 87.7282 66.0512 87.1807C71.6716 85.2185 77.8175 81.9101 83.3008 77.8717C83.8034 77.5066 84.5117 77.5979 84.9001 78.1226C85.2656 78.6246 85.1742 79.3547 84.6488 79.7198C78.9827 83.8951 72.6311 87.2947 66.7823 89.3482C66.074 89.5992 65.3429 89.8273 64.6118 90.0327C72.2199 89.2797 80.3307 86.8156 86.5451 83.0737C87.0934 82.7543 87.7788 82.914 88.1215 83.4616C88.4642 84.0092 88.2815 84.6937 87.7331 85.0359C80.1707 89.5992 70.2322 92.3143 61.3446 92.5653C71.5116 94.1852 83.2779 92.2002 93.5592 87.5457C94.0846 87.2947 94.6101 87.021 95.1585 86.7928C102.881 83.0281 109.598 77.7119 113.939 71.2778C114.304 70.753 115.013 70.6161 115.515 70.9812C116.041 71.3234 116.178 72.0535 115.812 72.5555C110.557 80.313 102.241 86.4962 92.8737 90.4662C83.8263 95.3717 76.6979 102.833 70.3236 109.518C66.2339 113.807 62.2814 117.937 58.1232 121.108C59.6996 120.469 61.2533 119.717 62.6926 118.895C67.8332 115.883 73.2023 111.457 77.8175 106.415C78.2516 105.958 78.9598 105.913 79.4396 106.346C79.8966 106.78 79.9422 107.487 79.5081 107.966C74.7559 113.145 69.1812 117.732 63.8578 120.857C63.2181 121.245 62.5555 121.587 61.8701 121.93C69.1812 119.717 76.6523 115.724 82.0213 110.841C82.4783 110.43 83.2094 110.453 83.6435 110.909C84.0776 111.366 84.0319 112.096 83.575 112.529C77.0407 118.462 67.8104 123.048 59.1513 125.033C77.7946 124.348 99.4537 110.978 106.628 93.9342C106.879 93.3638 107.542 93.09 108.136 93.3182C108.707 93.5692 108.981 94.2309 108.753 94.8013C104.754 104.316 96.7121 112.644 87.1391 118.484C82.2498 122.112 77.8632 126.288 73.5907 130.372C69.1127 134.661 64.7717 138.791 60.248 141.803C62.19 141.209 64.1777 140.502 66.0055 139.635C73.6136 136.03 81.3131 130.075 85.9967 125.717C86.4537 125.284 87.1848 125.306 87.6189 125.763C88.053 126.219 88.0301 126.949 87.5732 127.383C82.7753 131.855 74.8473 137.969 67.0107 141.688C65.8227 142.236 64.6118 142.738 63.3552 143.194C72.3798 141.688 82.8667 137.559 91.5715 130.052C92.0512 129.642 92.7595 129.687 93.1936 130.166C93.6049 130.645 93.5592 131.353 93.0794 131.786C83.5293 140.046 71.8315 144.358 62.0529 145.704C69.3412 145.955 77.3148 144.426 84.9229 141.369C85.1057 141.209 85.3342 141.118 85.5627 141.095C91.1145 138.814 96.4607 135.711 101.167 131.9C107.085 127.086 112.659 119.488 116.041 111.571C116.292 111.001 116.955 110.727 117.549 110.978C118.12 111.229 118.394 111.891 118.143 112.484C114.624 120.743 108.798 128.683 102.607 133.703C97.5574 137.787 91.8913 141.095 86.0196 143.491C85.7911 143.696 85.5626 143.902 85.3342 144.107C80.582 149.537 77.7946 155.355 75.3271 160.512C73.3166 164.71 71.4659 168.589 68.8842 171.715C75.4642 167.996 81.1531 162.314 85.5855 154.945C85.9053 154.397 86.6136 154.237 87.1619 154.557C87.7103 154.876 87.8702 155.584 87.5504 156.131C83.2322 163.295 77.7718 168.931 71.4659 172.833C77.7718 170.733 85.06 166.855 91.5486 160.557C92.0055 160.124 92.7367 160.124 93.1708 160.58C93.6049 161.037 93.6049 161.744 93.1479 162.2C86.0196 169.114 77.9317 173.266 71.0775 175.365C78.8227 175 87.7331 172.878 95.821 166.763C96.3237 166.376 97.0319 166.49 97.4203 166.992C97.8087 167.494 97.6945 168.201 97.1919 168.589C84.9229 177.852 70.9405 178.423 61.3675 177.282C60.8649 177.213 60.4536 176.825 60.3851 176.323C60.2937 175.821 60.5678 175.32 61.0248 175.114C67.2164 172.217 70.0494 166.353 73.2937 159.554C74.0705 157.934 74.8702 156.245 75.7612 154.534C73.0424 157.82 70.3236 161.31 67.5362 164.893L67.3078 165.189C66.668 165.942 66.0512 166.695 65.4114 167.471C59.7453 174.27 52.6856 182.735 44.2093 184.081C39.1829 184.88 37.0353 184.606 32.6714 183.305C28.0106 182.005 24.1723 178.97 20.4482 176.027C15.6275 172.217 11.4693 168.931 6.71706 170.414C4.43234 171.213 2.67311 173.335 2.35325 175.639C2.07909 177.67 2.94728 179.495 4.77505 180.75C6.57998 181.913 8.33921 181.389 9.36733 180.476C10.2812 179.677 10.9209 178.308 10.3041 177.054C9.91566 176.392 9.18456 175.958 8.3849 175.958C7.79088 175.958 7.31109 176.209 7.10546 176.597C6.7856 177.145 6.10019 177.35 5.55186 177.031C5.00352 176.734 4.7979 176.027 5.11776 175.479C5.75748 174.361 6.96838 173.677 8.3849 173.677H8.40775C10.0299 173.677 11.5378 174.567 12.3603 176.004C13.0686 177.487 13 179.13 12.2232 180.567C16.3814 180.476 20.8595 182.415 25.2461 184.263L26.9825 184.994C28.559 185.632 30.1354 186.112 31.4149 186.294C32.0317 186.385 32.4658 186.979 32.3744 187.595C32.283 188.211 31.689 188.621 31.0721 188.553C29.6099 188.325 27.8507 187.823 26.1143 187.093L24.3551 186.363C18.0036 183.67 11.9948 181.16 7.37963 184.332C5.43762 185.769 4.38665 188.325 4.77505 190.606C5.11776 192.637 6.48859 194.097 8.61338 194.782C10.6925 195.375 12.2004 194.325 12.9315 193.162C13.5712 192.135 13.7768 190.629 12.8173 189.602C12.2461 189.078 11.4007 188.872 10.6468 189.123C10.0984 189.306 9.71004 189.671 9.61865 190.104C9.48157 190.72 8.88754 191.131 8.27067 190.994C7.65379 190.857 7.26539 190.264 7.37963 189.648C7.65379 188.393 8.61338 187.389 9.96136 186.956C11.4236 186.477 13.16 186.865 14.3709 188.005C15.1934 188.872 15.6275 189.99 15.696 191.131C19.8313 191.382 23.7839 192.591 29.5414 194.371L32.9456 195.421C35.2303 196.105 40.4623 196.242 42.0845 192.249C42.2673 191.816 42.6785 191.565 43.1583 191.542C43.6381 191.542 44.0493 191.838 44.2093 192.272C45.6029 195.9 49.6926 196.79 52.0458 196.242C55.5186 195.443 56.2497 192.569 56.0441 191.382C55.8156 190.036 54.8104 188.644 53.3253 188.576C52.3657 188.507 51.4975 188.918 50.9949 189.671C50.6293 190.218 50.5608 190.812 50.7893 191.291C51.0863 191.861 50.8578 192.546 50.2866 192.82C49.7383 193.116 49.03 192.888 48.7559 192.318C48.139 191.108 48.2532 189.648 49.0757 188.416C50.0124 187.001 51.6803 186.18 53.4395 186.294C56.1126 186.431 57.8947 188.758 58.2831 191.017C58.6715 193.413 57.1408 197.428 52.5485 198.478C52.0002 198.615 51.3604 198.683 50.6979 198.683ZM189.426 161.242C183.691 161.242 178.048 160.078 173.524 157.591C172.976 157.295 172.77 156.587 173.067 156.04C173.364 155.492 174.073 155.287 174.621 155.584C186.41 162.086 206.378 158.983 213.484 149.537C213.667 149.286 213.941 149.127 214.238 149.081C218.922 148.442 223.377 145.773 225.867 142.122C227.055 140.365 228.312 137.627 227.535 134.433C227.466 134.114 227.535 133.771 227.718 133.497C227.901 133.224 228.22 133.064 228.563 133.018C232.79 132.676 236.308 130.463 237.976 127.086C239.118 124.759 239.096 122.272 237.885 120.424C237.702 120.127 237.656 119.785 237.748 119.443C237.862 119.123 238.09 118.85 238.41 118.735C240.992 117.732 243.003 115.496 243.802 112.78C244.396 110.75 244.168 108.742 243.185 107.396C243.003 107.145 242.934 106.825 242.98 106.506C243.048 106.209 243.208 105.936 243.482 105.753C245.858 104.202 247.412 101.76 247.595 99.182C247.732 97.2882 247.092 95.577 245.836 94.4818C245.561 94.2537 245.424 93.8886 245.447 93.5236C245.47 93.1585 245.676 92.8391 245.973 92.6565C247.64 91.607 248.646 89.5307 248.486 87.3632C248.372 85.6976 247.618 84.4199 246.384 83.8951C245.995 83.7126 245.721 83.3247 245.698 82.8912C245.676 82.4577 245.904 82.047 246.293 81.8417C247.8 81.0203 248.714 79.3091 248.646 77.4838C248.554 75.7954 247.663 74.4492 246.178 73.8104C245.767 73.6279 245.516 73.24 245.493 72.8065C245.47 72.373 245.698 71.9623 246.087 71.7569C247.389 71.0496 248.097 69.8176 247.983 68.4942C247.869 67.2621 247.046 66.2582 245.836 65.8704C245.287 65.6878 244.945 65.1174 245.059 64.547C248.212 49.2146 247.321 36.369 246.041 28.2921C243.414 11.7504 237.245 6.27452 236.537 5.70412C233.155 2.94336 228.472 3.44532 226.37 5.63567C224.748 7.27843 224.199 9.37752 224.839 11.4538C225.433 13.3932 226.987 14.8078 228.86 15.1728C230.459 15.4238 232.196 14.7165 233.11 13.4388C233.909 12.3436 233.978 10.9975 233.292 9.67413C232.447 8.14545 231.031 8.35079 230.619 8.44206C229.888 8.62459 229.134 9.17218 229.089 10.0164C229.111 10.678 229.614 10.9975 229.774 11.0887C229.98 11.2028 230.277 11.2713 230.505 11.1344C231.031 10.7921 231.739 10.9518 232.082 11.4766C232.424 12.0014 232.264 12.7087 231.739 13.0509C230.848 13.6213 229.728 13.6441 228.723 13.0966C227.581 12.5033 226.85 11.3169 226.827 9.99356C226.895 8.14545 228.22 6.6624 230.117 6.20607C232.219 5.70412 234.252 6.63958 235.326 8.57896C236.423 10.7009 236.285 12.9368 234.983 14.7393C233.544 16.7243 231.008 17.7511 228.495 17.386C225.73 16.884 223.514 14.8534 222.669 12.1155C221.777 9.26344 222.554 6.22889 224.748 4.01572C227.581 1.04962 233.589 0.296687 237.999 3.90164C239.233 4.92837 245.584 10.8834 248.303 27.8814C249.605 35.9812 250.496 48.781 247.481 64.0451C249.034 64.8893 250.062 66.4179 250.245 68.2204C250.405 69.8632 249.811 71.4375 248.646 72.6011C250.017 73.7191 250.839 75.3847 250.93 77.3013C251.022 79.3775 250.222 81.3625 248.806 82.7087C249.925 83.7582 250.633 85.3097 250.748 87.1122C250.93 89.622 249.971 92.0633 248.257 93.6833C249.423 95.1891 249.994 97.1513 249.857 99.2732C249.651 102.217 248.075 105 245.607 106.939C246.498 108.742 246.635 111.001 245.973 113.305C245.104 116.271 243.071 118.781 240.375 120.196C241.403 122.523 241.266 125.329 239.987 127.953C238.136 131.718 234.435 134.296 229.957 135.003C230.277 137.764 229.5 140.639 227.718 143.263C224.953 147.301 220.11 150.29 214.969 151.134C209.988 157.637 199.57 161.242 189.426 161.242ZM171.057 114.149C170.668 114.149 170.303 113.944 170.097 113.625C168.018 110.316 167.47 105.685 168.635 101.532C169.435 98.7713 170.92 96.5581 172.816 95.326C172.428 91.9721 174.278 89.7361 176.266 88.755C178.711 87.5229 181.544 87.888 183.623 89.5992C185.428 88.0705 188.009 87.4088 190.477 87.888C192.419 88.2758 194.292 89.3938 195.823 90.9681C196.326 87.8195 197.857 85.2869 200.187 83.8495C201.9 82.7543 203.82 82.2524 205.693 82.3664C205.19 82.1611 204.711 81.9329 204.231 81.6591C201.398 79.9936 199.616 77.1187 199.433 73.9929C198.268 74.8827 196.828 75.5444 195.001 75.5444C192.556 75.5216 190.797 74.6774 189.426 73.5366C189.403 76.9362 187.507 80.0848 184.422 81.8417C181.087 83.7354 177.111 83.5757 173.753 81.4538C172.907 80.929 172.131 80.2902 171.445 79.5601C171.742 81.2256 171.742 82.8456 171.445 84.4427C170.646 89.1428 167.561 92.8163 163.174 94.2537C158.993 95.6455 154.493 94.6872 151.431 91.7667C148.712 88.9831 147.753 84.9219 148.941 81.4082C149.055 81.0887 149.169 80.7693 149.329 80.4499C141.104 76.1148 135.095 68.3801 132.788 59.0027C130.732 50.652 131.897 42.1644 136.009 35.1598C118.394 40.476 93.0794 34.4069 82.821 21.8351C82.4783 21.4016 82.4783 20.8084 82.821 20.3977C83.1637 19.987 83.7577 19.873 84.2375 20.1239C93.9476 25.3945 104.594 21.6526 113.985 18.3443C118.485 16.7471 122.735 15.2641 126.482 14.9219C132.399 14.3971 137.403 15.766 140.556 18.8234C142.384 20.5803 143.457 22.7706 143.732 25.2576C145.856 24.3449 148.255 24.1396 150.631 24.6872C153.921 25.4401 156.732 27.5164 158.514 30.5053C160.433 33.8593 163.129 36.2778 166.807 37.9434C171.011 39.8371 176.06 40.5444 181.384 40.0196C182.046 39.9512 182.709 39.8599 183.394 39.7458C183.486 39.723 183.554 39.7002 183.646 39.7002C191.231 38.3084 198.725 33.6767 198.999 25.9421C199.136 21.2876 195.8 18.3443 192.944 16.7243C184.377 11.7732 170.349 12.0926 161.667 17.4316C161.141 17.7511 160.433 17.5913 160.09 17.0666C159.77 16.519 159.93 15.8345 160.456 15.4923C169.777 9.7654 184.856 9.42315 194.064 14.7621C195.458 15.5835 196.668 16.4962 197.697 17.5001C205.784 14.3286 216.34 15.2869 223.034 19.873C226.85 22.4968 228.906 26.0561 228.769 29.8893C228.632 33.8593 226.895 37.1676 223.857 39.5633C226.598 42.9857 227.855 47.6402 227.329 52.4773C226.758 57.6337 224.314 62.2426 220.567 65.2315C221.892 68.4714 221.823 72.3502 220.384 75.5444C219.196 78.1455 217.254 80.4043 215.175 81.5451C213.096 82.7771 210.788 83.3019 208.572 83.1194C208.892 83.2563 209.189 83.416 209.509 83.5757C212.296 85.15 213.987 88.0477 213.895 91.1279C213.712 94.0027 211.953 96.5353 209.417 97.6533C207.132 98.6572 204.665 98.2693 202.654 96.6037C200.781 94.9838 200.278 92.5425 201.306 90.3977C202.243 88.4355 204.185 87.3404 206.081 87.6598C207.567 88.0248 208.663 89.0744 209.029 90.4206C209.371 91.607 209.074 92.7934 208.275 93.6148C207.818 94.0711 207.11 94.0711 206.653 93.6148C206.196 93.1813 206.196 92.4512 206.653 91.9949C206.904 91.7439 206.904 91.3332 206.813 91.0366C206.653 90.4662 206.196 90.0327 205.579 89.8958C204.596 89.7361 203.728 90.5118 203.317 91.3788C203.089 91.8352 202.494 93.4779 204.094 94.8697C205.419 95.9421 206.973 96.2159 208.458 95.5542C210.194 94.8013 211.428 92.976 211.565 91.0138C211.633 88.8234 210.4 86.7243 208.321 85.5379C206.127 84.283 203.568 84.3971 201.329 85.8117C198.953 87.2491 197.651 90.4662 197.879 94.208C197.902 94.7328 197.559 95.2348 197.057 95.3717C196.531 95.5314 195.983 95.2804 195.732 94.8013C194.452 92.4284 192.19 90.5803 189.951 90.1468C187.918 89.7361 185.656 90.489 184.468 91.9492C184.262 92.2002 183.943 92.3599 183.6 92.3599C183.303 92.3599 182.937 92.223 182.732 91.9721C181.087 90.1011 178.779 90.0327 177.226 90.8084C175.443 91.6983 174.667 93.5236 175.124 95.6911C175.238 96.193 174.986 96.7178 174.507 96.946C172.839 97.7674 171.491 99.6611 170.76 102.171C169.96 105 170.074 108.057 171.057 110.613C173.981 106.529 178.939 106.095 182.617 107.145C185.131 107.738 187.484 107.601 189.037 106.757C190.5 105.958 192.03 104.293 191.962 101.988C191.962 101.76 191.916 101.441 191.848 101.213C191.505 99.6839 190.385 98.4062 189.015 97.9499C188.146 97.6533 186.821 97.5392 185.405 98.7256C184.034 99.9121 184.537 101.327 184.742 101.715C185.085 102.422 185.839 103.084 186.707 102.924C187.301 102.81 187.918 103.22 188.032 103.859C188.146 104.475 187.735 105.069 187.095 105.183C185.313 105.502 183.531 104.498 182.686 102.696C181.749 100.711 182.229 98.4747 183.943 96.9688C185.702 95.5314 187.804 95.0979 189.769 95.7824C191.916 96.5125 193.561 98.4062 194.087 100.711C194.178 101.076 194.224 101.532 194.247 101.897C194.338 104.726 192.762 107.35 190.134 108.765C188.032 109.906 185.153 110.134 182.023 109.358C180.287 108.879 174.575 107.761 172.016 113.488C171.834 113.876 171.468 114.127 171.057 114.149C171.102 114.149 171.08 114.149 171.057 114.149ZM151.568 81.0887C151.385 81.4082 151.248 81.7504 151.134 82.1155C150.243 84.785 151.02 88.002 153.076 90.1239C155.475 92.4284 159.085 93.1813 162.489 92.0633C166.053 90.8997 168.566 87.888 169.229 84.0092C170.234 78.6246 166.83 73.5366 163.791 70.2054C162.946 69.27 162.238 68.5398 161.598 67.901C160.136 66.3951 159.062 65.2999 157.691 63.2237C156 60.6683 155.498 57.8619 156.32 55.5118C156.869 53.9603 157.965 52.7967 159.336 52.3632C162.192 51.4505 165.231 53.4127 167.264 57.474C169.001 60.9649 169.457 65.7563 169.754 68.9049C170.097 72.487 171.285 77.2556 175.009 79.5372C177.637 81.2256 180.744 81.3397 183.326 79.8795C185.77 78.4877 187.255 75.9779 187.187 73.3084C187.05 71.0268 185.588 68.8593 183.554 67.9923C181.772 67.2165 179.899 67.5359 178.276 68.8593C176.746 70.2054 176.769 71.9166 177.34 73.0803C177.82 74.107 178.893 75.0425 180.196 74.8143C180.881 74.6318 181.475 74.0842 181.681 73.3541C181.818 72.8293 181.726 72.3502 181.452 72.0535C181.018 71.5972 181.018 70.8899 181.452 70.4336C181.909 70.0001 182.617 70.0001 183.074 70.4336C183.965 71.3234 184.262 72.6468 183.897 73.9473C183.486 75.4531 182.252 76.6168 180.675 77.0046C178.459 77.3925 176.334 76.1833 175.283 74.0157C174.141 71.5972 174.735 68.8821 176.814 67.0568C179.145 65.1631 181.932 64.7067 184.491 65.8247C184.651 65.8932 184.788 65.9616 184.925 66.0301C185.382 64.7067 186.456 63.6344 187.507 62.7445C187.987 62.311 188.284 61.6722 188.329 60.9649C188.375 60.1207 188.009 59.2537 187.347 58.5235C186.204 57.2915 185.839 55.8769 186.296 54.2797C186.342 54.1428 186.41 53.9375 186.501 53.6637C187.004 52.3176 188.169 49.1689 187.849 46.2713C187.621 44.2634 186.936 42.9629 185.656 42.1872C185.839 42.8717 185.953 43.6018 185.953 44.2863C185.953 48.667 182.389 52.2035 178.025 52.2035C173.661 52.2035 170.097 48.6441 170.097 44.2863C170.097 43.3736 170.28 42.3925 170.623 41.5027C169.001 41.1148 167.447 40.59 165.985 39.9284C161.849 38.0574 158.788 35.3423 156.64 31.5548C155.201 29.1135 152.916 27.4251 150.22 26.8091C147.775 26.2615 145.354 26.6722 143.366 27.9955C143 28.2237 142.543 28.2465 142.155 28.0411C141.79 27.8358 141.561 27.4251 141.584 26.9916C141.721 24.3906 140.853 22.1089 139.048 20.3749C136.42 17.8423 131.92 16.6559 126.756 17.1122C123.306 17.4316 119.171 18.869 114.807 20.4205C106.605 23.3182 97.4889 26.5125 88.5556 24.1852C100.642 33.9277 123.809 37.8749 138.477 31.8286C138.956 31.6233 139.505 31.783 139.825 32.1937C140.145 32.6044 140.145 33.1748 139.825 33.5855C134.593 40.476 132.856 49.534 135.072 58.4095C137.266 67.2165 142.909 74.4721 150.654 78.4877C151.934 77.0275 153.693 76.0236 155.818 75.6357C155.726 75.5672 155.658 75.5216 155.566 75.4531C151.682 72.738 147.661 69.9088 144.463 65.4368C141.15 60.828 139.573 54.6448 139.985 51.5646C140.076 50.9486 140.67 50.5151 141.264 50.5835C141.881 50.6748 142.315 51.2452 142.246 51.8612C141.881 54.5079 143.435 60.0751 146.313 64.0907C149.306 68.2432 153.145 70.9584 156.892 73.5594C158.285 74.5405 159.725 75.5444 161.118 76.6168C162.215 77.3469 163.083 78.3964 163.609 79.697C164.682 82.3208 164.066 85.1272 162.055 86.7015C161.552 87.0894 160.844 86.9981 160.456 86.4962C160.067 85.9942 160.159 85.2869 160.661 84.899C162.032 83.8267 162.078 81.9329 161.507 80.564C161.255 79.9479 160.844 79.3319 160.273 78.8299C160.227 78.8071 160.182 78.7615 160.113 78.7159C159.999 78.6246 159.885 78.5333 159.77 78.4421C158.948 77.9173 157.874 77.6207 156.549 77.7804C154.79 78.0542 153.35 78.8071 152.345 79.9936C152.345 80.1533 152.299 80.313 152.231 80.4727C152.025 80.7921 151.819 80.9975 151.568 81.0887ZM202.883 70.0229C202.22 70.9812 201.786 72.122 201.718 73.3312C201.649 75.8867 203.02 78.2823 205.396 79.6741C208.023 81.2256 211.268 81.1572 214.078 79.4916C215.769 78.5561 217.368 76.708 218.35 74.5405C219.63 71.7113 219.584 68.1063 218.19 65.3228C217.939 64.8208 218.099 64.2048 218.556 63.8853C222.212 61.2843 224.611 57.0177 225.136 52.1578C225.616 47.8456 224.473 43.7387 222.029 40.7726C220.498 41.6624 218.716 42.3469 216.728 42.8488C217.048 43.7387 217.231 44.6741 217.231 45.6096C217.231 49.9903 213.667 53.5268 209.303 53.5268C204.939 53.5268 201.375 49.9675 201.375 45.6096C201.375 44.6057 201.603 43.5561 201.992 42.575C198.839 41.6168 196.097 40.0653 194.018 38.0118C192.122 39.2667 189.974 40.2706 187.735 40.9779C189.037 42.1415 189.837 43.8528 190.088 46.0659C190.477 49.5112 189.175 53.0249 188.626 54.5079C188.558 54.7132 188.489 54.873 188.466 54.9642C188.238 55.7628 188.375 56.356 188.992 57.0177C190.088 58.2041 190.66 59.6644 190.591 61.1246C190.523 62.4251 189.951 63.6344 188.992 64.5014C187.598 65.6878 186.981 66.6005 186.958 67.4903C187.69 68.1063 188.306 68.8593 188.923 69.6122C190.5 71.4831 191.985 73.2628 194.932 73.2628C194.955 73.2628 195.001 73.2628 195.023 73.2628C197.811 73.24 199.319 71.1181 200.644 69.27C200.735 69.1331 200.827 69.019 200.918 68.8821C201.146 68.5398 201.398 68.2204 201.649 67.9238C201.763 67.7641 201.9 67.6272 202.038 67.5131C202.015 66.6005 201.398 65.7106 200.027 64.5242C199.022 63.6344 198.473 62.4251 198.405 61.1246C198.336 59.6644 198.907 58.2041 199.981 57.0177C200.598 56.356 200.758 55.7856 200.53 54.9642C200.461 54.7589 200.21 54.4166 199.913 54.0744C199.25 53.253 198.313 52.135 198.108 50.2413C198.039 49.6252 198.496 49.0548 199.113 48.9864C199.707 48.9179 200.301 49.3514 200.37 49.9903C200.507 51.2224 201.101 51.9525 201.672 52.637C202.083 53.1389 202.517 53.6637 202.7 54.3254C203.157 55.8997 202.791 57.3371 201.649 58.5692C200.987 59.2993 200.644 60.1663 200.667 61.0105C200.69 61.7178 201.009 62.3567 201.512 62.813C202.54 63.68 203.591 64.7295 204.048 66.0529C204.185 65.9844 204.322 65.916 204.459 65.8704C207.018 64.7524 209.806 65.1859 212.113 67.0796C214.215 68.9049 214.809 71.6428 213.667 74.0614C212.639 76.2289 210.514 77.4382 208.366 77.0503C206.721 76.6396 205.487 75.476 205.076 73.9701C204.711 72.6468 205.008 71.3234 205.899 70.4564C206.356 70.0001 207.064 70.0001 207.521 70.4564C207.978 70.8899 207.978 71.62 207.521 72.0764C207.224 72.373 207.132 72.8521 207.292 73.3769C207.498 74.107 208.069 74.6546 208.846 74.8371C210.08 75.0425 211.131 74.107 211.611 73.0803C212.159 71.9166 212.205 70.1826 210.651 68.8365C209.052 67.5131 207.178 67.2165 205.396 67.9694C204.551 68.3345 203.797 68.9277 203.203 69.6578C203.066 69.7719 202.974 69.9088 202.883 70.0229ZM160.684 54.4395C160.456 54.4395 160.227 54.4851 159.999 54.5535C159.313 54.7817 158.765 55.3977 158.445 56.2876C157.874 57.9303 158.285 60.0522 159.565 61.9916C160.821 63.9082 161.781 64.8664 163.22 66.3495C163.86 67.0112 164.591 67.7641 165.459 68.6996C166.327 69.635 167.081 70.5705 167.767 71.5288C167.63 70.7758 167.515 69.9773 167.424 69.1331C167.15 66.1441 166.716 61.6265 165.162 58.5007C163.906 55.9225 162.215 54.4395 160.684 54.4395ZM204.208 43.1683C203.842 43.944 203.637 44.811 203.637 45.6324C203.637 48.7354 206.173 51.268 209.28 51.268C212.387 51.268 214.923 48.7354 214.923 45.6324C214.923 44.8795 214.741 44.0809 214.421 43.3508C213.941 43.4192 213.461 43.4877 212.958 43.5561C209.92 43.8756 206.95 43.7387 204.208 43.1683ZM172.793 42.0275C172.45 42.7804 172.268 43.579 172.268 44.3547C172.268 47.4577 174.804 49.9903 177.911 49.9903C181.018 49.9903 183.554 47.4577 183.554 44.3547C183.554 43.6018 183.371 42.8032 183.052 42.0731C182.549 42.1415 182.069 42.21 181.589 42.2556C178.574 42.5522 175.603 42.4838 172.793 42.0275ZM195.846 36.6428C199.616 40.2022 206.104 42.0046 212.73 41.2517C221.138 40.3162 226.301 36.0268 226.53 29.7524C226.644 25.8508 224.017 23.2269 221.777 21.6983C215.974 17.7054 206.538 16.7471 199.296 19.3026C200.69 21.3104 201.375 23.5692 201.306 25.9877C201.124 30.4368 198.999 33.9962 195.846 36.6428Z" fill="black" class="second-tone"></path><path d="M407.731 242.011C405.149 242.011 402.613 241.6 400.397 240.688C399.803 240.437 399.528 239.775 399.78 239.205C400.008 238.612 400.694 238.338 401.265 238.589C409.124 241.829 420.753 237.79 423.678 232.406C423.861 232.063 424.226 231.835 424.615 231.812C429.71 231.493 434.142 226.998 436.472 219.834C439.671 209.977 438.529 195.603 428.681 186.682C425.871 190.333 421.987 192.409 417.578 192.546C413.054 192.705 408.37 190.652 405.88 187.321C401.927 182.073 402.727 172.969 407.616 167.425C412.894 161.424 421.393 157.523 432.862 155.766C432.063 155.401 431.263 155.059 430.463 154.739C416.801 149.56 397.449 147.256 375.996 148.259C342.502 149.834 305.375 165.463 266.055 181.982C252.964 187.48 239.438 193.185 225.684 198.501C193.401 211.962 153.419 217.963 136.283 201.307C128.584 204.638 118.645 207.65 107.861 210.936C93.1936 215.407 76.538 220.473 62.7383 227.295C60.4307 228.436 58.2374 229.143 55.9755 229.439C55.3587 229.508 54.7646 229.097 54.6961 228.458C54.6047 227.842 55.0388 227.249 55.6785 227.181C57.6891 226.907 59.6539 226.268 61.733 225.241C75.7155 218.328 92.4625 213.24 107.222 208.745C124.289 203.543 139.162 199.025 145.971 193.116C144.348 192.021 142.955 190.241 141.972 188.005C140.19 183.921 140.213 179.175 141.972 174.977C142.338 174.042 142.703 173.152 143.069 172.308C144.828 168.064 145.971 165.258 145.536 161.356C145.148 157.934 143.526 154.99 140.967 153.097C138.157 151.02 134.204 149.651 130.137 149.377C120.13 148.693 112.02 155.698 108.73 162.474C104.343 171.532 106.765 182.917 114.099 187.868C114.533 188.165 114.716 188.713 114.533 189.192C114.35 189.671 113.893 189.99 113.345 189.945C108.204 189.443 103.726 186.842 100.459 182.37C97.8544 178.833 96.2094 174.384 95.7068 169.752C80.9932 183.031 68.5186 190.857 57.5748 193.664C56.958 193.823 56.3411 193.458 56.1812 192.842C56.0212 192.226 56.3868 191.61 57.0037 191.451C67.7418 188.713 80.719 180.407 95.524 166.832C95.5011 164.915 95.7068 162.976 96.0952 161.105C98.1743 151.134 105.714 142.601 119.102 135.049C132.445 127.52 149.695 122.181 171.491 116.499C172.039 116.34 172.587 116.18 173.159 116.02C169.617 115.062 166.487 112.826 164.294 109.609C160.73 104.361 160.296 97.4479 163.152 91.9948C163.449 91.4472 164.134 91.2191 164.705 91.5157C165.254 91.8123 165.482 92.4968 165.185 93.0672C162.695 97.7673 163.106 103.768 166.19 108.331C169.069 112.575 173.57 114.72 178.551 114.218C184.696 111.959 190.637 109.061 196.28 105.548C194.909 101.737 192.373 98.9537 189.243 97.927C188.649 97.7217 188.306 97.0828 188.512 96.4896C188.695 95.8964 189.357 95.5541 189.951 95.7595C194.909 97.3794 198.565 102.513 199.479 109.13C200.644 117.572 197.194 125.922 190.66 130.645C191.711 139.498 185.039 150.381 176.7 153.416C176.494 153.986 176.266 154.557 176.015 155.127C180.036 154.351 184.24 151.819 187.598 148.054C191.779 143.354 194.064 137.445 193.653 132.265C193.63 131.832 193.835 131.421 194.201 131.193C203.248 125.854 205.716 112.119 203.5 101.715C203.431 101.555 203.385 101.395 203.385 101.235C202.837 98.8397 201.923 96.5124 201.101 94.5046C200.872 93.9114 201.146 93.2497 201.718 93.0215C202.289 92.7934 202.974 93.0672 203.203 93.6604C203.934 95.4401 204.665 97.3338 205.213 99.2504C215.175 91.4016 223.263 81.8873 228.106 72.2588C234.915 58.6832 237.748 45.1532 237.039 29.661C236.994 28.5202 236.902 26.7406 236.719 24.7328C236.468 25.2119 236.194 25.6682 235.874 26.1245C234.024 28.68 231.145 30.3455 227.741 30.779C227.124 30.8475 226.53 30.414 226.461 29.7979C226.393 29.1819 226.827 28.6115 227.444 28.5202C230.208 28.1552 232.561 26.8318 234.024 24.8012C235.463 22.7934 235.966 20.2836 235.463 17.7282C235.257 16.7243 234.846 15.515 234.321 14.4883C234.183 14.2373 234.046 14.0092 233.909 13.8038C233.841 13.6897 233.795 13.5756 233.749 13.4616C233.475 12.9368 233.658 12.2979 234.161 11.9785C234.686 11.6591 235.394 11.8188 235.737 12.3436C235.943 12.6858 236.148 13.0509 236.331 13.4388C238.502 17.5 239.073 24.1167 239.301 29.5698C240.032 45.4498 237.131 59.3449 230.14 73.2856C225.022 83.4616 216.386 93.5235 205.807 101.692C206.036 102.901 206.219 104.156 206.356 105.434C217.391 98.1096 231.442 83.2106 236.148 70.4564C236.377 69.8631 237.017 69.5665 237.611 69.7719C238.205 70 238.502 70.6389 238.296 71.2321C233.27 84.8305 218.008 100.802 206.516 108.035C206.538 109.244 206.516 110.476 206.447 111.685C217.848 104.658 230.551 91.8123 236.697 80.9746C237.017 80.427 237.702 80.2217 238.25 80.5411C238.799 80.8605 239.004 81.545 238.684 82.0926C232.127 93.706 218.213 107.555 206.15 114.514C205.967 115.792 205.716 117.07 205.396 118.302C216.477 112.005 227.718 102.216 235.212 92.2686C235.6 91.7667 236.308 91.6754 236.811 92.0405C237.314 92.4283 237.405 93.1356 237.039 93.6376C228.906 104.43 216.431 115.062 204.436 121.428C203.934 122.797 203.363 124.097 202.677 125.329C212.204 120.629 224.336 112.598 233.315 102.331C233.727 101.851 234.458 101.806 234.937 102.216C235.417 102.627 235.463 103.357 235.052 103.836C226.255 113.898 213.233 123.299 200.187 129.025C198.976 130.463 197.559 131.741 195.983 132.767C195.983 133.041 196.006 133.315 195.983 133.589C205.876 130.28 215.86 124.508 226.393 115.997C226.895 115.61 227.603 115.678 227.992 116.18C228.38 116.659 228.312 117.389 227.832 117.777C216.751 126.721 206.264 132.699 195.8 136.053C195.663 137.125 195.435 138.175 195.115 139.247C205.122 136.372 213.598 132.174 220.955 126.516C221.458 126.128 222.166 126.219 222.554 126.721C222.943 127.223 222.851 127.93 222.349 128.318C214.398 134.479 205.168 138.905 194.178 141.894C193.698 143.057 193.104 144.198 192.419 145.339C199.753 143.81 206.813 141.255 213.004 137.901C213.552 137.604 214.261 137.81 214.558 138.357C214.855 138.905 214.649 139.612 214.101 139.909C207.064 143.742 198.953 146.548 190.591 148.031C190.18 148.556 189.746 149.081 189.289 149.583C185.062 154.329 179.761 157.226 174.689 157.637C172.816 160.649 170.074 163.341 166.327 165.326C163.152 167.037 160.73 168.383 158.422 169.889C154.013 172.81 151.682 175.365 150.814 178.217C150.631 178.833 150.014 179.175 149.398 178.97C148.804 178.788 148.461 178.149 148.644 177.555C149.672 174.156 152.299 171.213 157.188 167.973C159.565 166.421 162.146 165.007 165.276 163.295C170.143 160.717 173.113 156.793 174.575 152.595C174.575 152.321 174.644 152.07 174.804 151.864C175.855 148.374 175.923 144.723 175.192 141.506C173.661 134.73 168.041 127.337 156.869 126.881C156.229 126.858 155.749 126.333 155.772 125.694C155.795 125.055 156.297 124.531 156.96 124.599C169.412 125.124 175.695 133.406 177.408 141.004C178.094 143.993 178.162 147.324 177.477 150.587C184.262 147.073 189.54 137.604 188.306 130.303C188.238 129.87 188.421 129.413 188.786 129.162C196.303 124.12 198.016 115.381 197.194 109.426C197.125 108.879 197.011 108.331 196.897 107.806C189.083 112.575 180.721 116.248 172.039 118.69C150.38 124.325 133.29 129.619 120.176 137.011C107.382 144.244 100.231 152.252 98.2885 161.561C96.872 168.338 98.3799 175.799 102.241 181.023C104.183 183.647 106.582 185.564 109.301 186.659C103.84 180.293 102.515 169.958 106.605 161.493C110.215 154.032 119.148 146.343 130.229 147.096C134.707 147.392 139.094 148.921 142.269 151.248C145.331 153.507 147.273 156.998 147.753 161.082C148.255 165.577 146.953 168.771 145.125 173.175C144.782 174.019 144.417 174.886 144.029 175.844C142.498 179.495 142.498 183.602 144.006 187.093C145.011 189.42 146.61 191.177 148.255 191.77C148.621 191.907 148.895 192.203 148.964 192.591C149.032 192.979 148.941 193.367 148.667 193.641C146.336 196.059 142.84 198.227 138.5 200.28C155.224 215.316 194.612 208.951 224.793 196.356C238.547 191.04 252.073 185.336 265.141 179.837C304.644 163.227 341.954 147.529 375.859 145.932C397.609 144.906 417.303 147.256 431.263 152.572C436.495 154.671 441.773 157.774 447.348 161.059C455.732 165.988 464.392 171.098 474.079 173.54C486.85 176.78 498.594 175.958 509.949 175.183C513.399 174.954 516.666 174.726 519.887 174.612C537.959 173.471 556.328 180.065 567.844 191.816C575.018 199.14 578.582 207.764 577.896 216.138C577.714 218.807 575.749 221.02 573.144 221.522C570.494 222.024 567.775 220.883 565.696 218.396L564.668 217.278C561.035 213.286 556.009 207.787 550.754 208.152C548.309 208.266 546.184 209.658 545.293 211.757C544.448 213.719 544.836 215.841 546.367 217.598C547.807 219.172 549.611 219.058 550.822 218.465C551.873 217.917 552.833 216.776 552.559 215.43C552.353 214.7 551.759 214.107 550.982 213.902C550.411 213.765 549.908 213.879 549.611 214.198C549.177 214.655 548.446 214.677 547.989 214.244C547.532 213.81 547.51 213.08 547.944 212.624C548.835 211.688 550.16 211.346 551.531 211.688C553.084 212.076 554.341 213.308 554.775 214.883C555.232 217.142 554.067 219.355 551.873 220.495C549.429 221.75 546.596 221.203 544.676 219.127C542.552 216.685 542.026 213.605 543.191 210.867C544.425 207.992 547.35 206.03 550.617 205.893C556.991 205.437 562.406 211.415 566.358 215.75L567.409 216.891C568.986 218.761 570.882 219.606 572.71 219.286C574.309 218.99 575.497 217.643 575.612 215.978C576.251 208.289 572.916 200.28 566.221 193.436C555.163 182.141 537.457 175.821 520.002 176.917C516.757 177.031 513.536 177.259 510.109 177.487C499.119 178.24 486.622 179.107 473.508 175.776C463.523 173.243 454.704 168.064 446.182 163.044C442.869 161.105 439.648 159.211 436.518 157.568C423.861 158.96 414.699 162.771 409.284 168.908C404.692 174.11 404.738 182.05 407.662 185.929C409.695 188.621 413.602 190.355 417.463 190.241C421.507 190.104 425.049 188.005 427.47 184.332C427.653 184.058 427.927 183.876 428.247 183.83C428.567 183.784 428.887 183.876 429.138 184.081C440.653 193.618 442.093 209.635 438.574 220.495C436.038 228.321 431.103 233.318 425.3 234.003C422.33 238.885 414.79 242.011 407.731 242.011ZM566.724 234.413C562.223 234.413 558.019 232.679 555.118 229.599C554.684 229.143 554.706 228.413 555.163 227.979C555.62 227.546 556.351 227.568 556.785 228.025C559.39 230.786 563.251 232.291 567.341 232.109C571.773 231.926 575.863 229.919 578.582 226.565C578.879 226.2 579.358 226.063 579.793 226.177C581.78 226.747 583.608 226.336 584.956 225.013C586.441 223.553 587.081 221.226 586.532 219.218C586.007 217.324 584.499 215.955 582.26 215.385C581.917 215.293 581.643 215.065 581.506 214.769C581.369 214.449 581.369 214.107 581.529 213.788C587.492 201.672 576.206 176.483 559.162 163.866C558.705 163.524 558.568 162.93 558.819 162.428C559.938 160.238 560.167 157.705 559.459 155.652C559.253 155.082 558.979 154.557 558.659 154.123C558.659 156.314 558.065 158.55 556.877 160.512C556.557 161.059 555.849 161.219 555.3 160.9C554.752 160.58 554.592 159.873 554.912 159.325C556.26 157.112 556.694 154.329 556.077 151.979C556.009 151.842 555.963 151.682 555.94 151.545C555.872 151.362 555.803 151.157 555.734 150.975C555.415 150.176 554.958 149.514 554.432 149.012C554.775 151.887 553.907 155.173 551.988 158.048C551.645 158.572 550.937 158.709 550.411 158.367C549.886 158.025 549.749 157.318 550.091 156.793C552.102 153.804 552.764 150.222 551.759 147.666C551.485 146.936 550.982 146.069 550.068 145.453C549.132 154.557 541.912 160.854 531.219 161.721C519.339 162.679 499.371 156.907 483.492 141.962C479.585 138.243 475.655 134.136 471.497 129.801C467.019 125.101 462.381 120.241 457.537 115.678C442.504 101.509 430.007 93.2269 418.24 89.5991C409.147 86.7927 398.386 86.1082 390.869 87.8651C390.275 88.0248 389.681 87.6597 389.521 87.0665C389.361 86.4733 389.681 85.8801 390.252 85.6747C405.194 80.6095 422.376 80.8833 437.432 86.4049C458.748 94.2308 472.319 101.053 484.291 107.076C494.618 112.278 503.552 116.75 515.044 120.652C538.074 129.322 552.833 126.242 561.149 122.112C568.438 118.507 573.555 112.735 575.612 105.844C578.01 97.8129 576.32 88.7321 571.088 81.545C566.29 74.9283 556.397 66.9427 536.52 66.3951C530.328 66.532 523.977 67.1936 517.854 67.8097C505.402 69.0646 493.613 70.2738 486.119 66.6232C480.065 63.68 477.346 57.2914 478.031 47.6402C477.711 36.3006 473.211 27.3566 465.374 22.5652C457.629 17.8423 447.667 17.5457 438.14 21.6069C440.288 22.2914 442.161 23.5691 443.601 25.4172C446.434 29.045 447.302 34.4524 445.885 39.8599C443.761 50.2869 445.634 58.3866 451.643 64.547C456.144 69.1787 462.541 72.6467 470.149 74.5633C478.443 76.6624 487.673 76.6395 501.061 74.4492C501.198 74.4264 501.587 74.3579 502.181 74.2438C516.986 71.4831 527.587 70.0457 533.687 69.9772C546.664 70.1826 557.082 74.6317 563.068 82.4805C567.204 87.9107 568.689 94.459 567.135 100.46C565.719 105.958 561.766 110.613 556.009 113.602C545.956 118.804 531.699 118.393 515.866 112.415C507.87 109.7 498.594 104.932 487.878 99.3873C472.091 91.2419 454.179 81.9785 434.85 76.6395C420.891 72.7836 406.291 70.9811 393.794 71.5515C365.28 72.8749 331.467 80.7693 293.266 95.075C276.017 101.532 259.43 109.084 244.785 115.724C244.213 115.997 243.528 115.724 243.277 115.153C243.025 114.583 243.277 113.898 243.848 113.647C258.516 106.985 275.148 99.4101 292.467 92.9303C330.873 78.5561 364.938 70.5933 393.68 69.2699C406.428 68.6767 421.256 70.5248 435.444 74.4264C455.001 79.8338 473.028 89.12 488.907 97.3338C499.553 102.832 508.761 107.578 516.62 110.248C531.882 115.997 545.476 116.454 554.935 111.548C560.098 108.879 563.64 104.726 564.896 99.8664C566.267 94.5502 564.942 88.7093 561.218 83.8494C555.666 76.5711 545.887 72.4414 533.641 72.2588C527.77 72.2588 517.306 73.6963 502.638 76.4342C502.021 76.5483 501.61 76.6167 501.45 76.6623C487.741 78.8983 478.214 78.9212 469.601 76.7308C461.581 74.7002 454.819 71.0268 450.021 66.0757C443.441 59.3221 441.362 50.5607 443.669 39.2895C444.926 34.4981 444.217 29.8208 441.819 26.7634C440.036 24.4818 437.5 23.2953 434.485 23.2953C434.439 23.2953 434.37 23.2953 434.325 23.2953C433.799 23.2953 433.342 22.9531 433.228 22.4511C433.091 21.9492 433.319 21.4016 433.799 21.1506C445.017 15.0815 457.286 14.8534 466.608 20.5574C475.13 25.7595 479.996 35.3879 480.362 47.6174C479.745 56.47 481.984 61.9687 487.17 64.5013C494.093 67.8781 505.539 66.7145 517.671 65.4824C523.84 64.8664 530.214 64.2047 536.566 64.0678C557.448 64.6382 567.889 73.1258 572.984 80.1532C578.604 87.9107 580.432 97.7445 577.851 106.437C575.612 113.944 570.06 120.218 562.223 124.097C553.495 128.432 538.096 131.695 514.335 122.751C502.729 118.827 493.75 114.309 483.332 109.061C471.406 103.061 457.903 96.2843 436.701 88.5039C426.579 84.7849 415.43 83.53 404.738 84.7393C409.513 85.0815 414.448 85.9714 418.994 87.3631C431.126 91.105 443.898 99.547 459.182 113.967C464.072 118.576 468.732 123.458 473.233 128.158C477.369 132.494 481.253 136.578 485.137 140.251C499.805 154.055 519.385 160.306 531.105 159.371C541.181 158.572 547.784 152.389 547.944 143.673C547.944 143.331 548.126 142.989 548.401 142.784C548.675 142.578 549.04 142.487 549.383 142.578C551.142 143.035 552.582 144.13 553.495 145.727C555.46 146.366 557.037 147.894 557.928 150.062C557.996 150.244 558.065 150.427 558.133 150.632C559.756 151.522 560.989 153.005 561.652 154.876C562.497 157.272 562.36 160.01 561.309 162.565C578.49 175.753 589.388 200.235 584.156 213.582C586.532 214.54 588.155 216.274 588.794 218.625C589.548 221.431 588.703 224.58 586.601 226.633C584.842 228.367 582.443 229.052 579.93 228.55C576.822 232.086 572.322 234.208 567.478 234.391C567.181 234.413 566.952 234.413 566.724 234.413ZM246.612 154.42C246.338 154.42 246.064 154.329 245.858 154.146C245.379 153.735 245.333 153.005 245.744 152.526C249.925 147.78 251.867 140.456 250.862 133.383C250.017 127.428 247.184 122.523 243.094 119.922C242.568 119.58 242.408 118.872 242.751 118.347C243.094 117.823 243.802 117.663 244.328 118.005C248.966 120.949 252.187 126.447 253.124 133.064C254.243 140.89 252.118 148.716 247.458 154.032C247.229 154.283 246.932 154.42 246.612 154.42ZM263.862 148.898C263.611 148.898 263.359 148.807 263.154 148.647C262.651 148.259 262.582 147.529 262.971 147.05C266.718 142.35 268.157 136.076 266.969 129.847C265.758 123.595 262.08 118.325 256.894 115.381C256.345 115.062 256.162 114.377 256.459 113.83C256.779 113.282 257.465 113.1 258.013 113.396C263.771 116.659 267.86 122.5 269.208 129.413C270.533 136.304 268.934 143.24 264.776 148.465C264.547 148.761 264.205 148.898 263.862 148.898ZM280.769 140.434C280.563 140.434 280.358 140.388 280.175 140.274C279.626 139.932 279.467 139.247 279.809 138.7C282.871 133.748 283.785 127.634 282.322 121.884C280.906 116.385 277.547 111.868 272.841 109.198C272.293 108.879 272.11 108.194 272.407 107.647C272.727 107.099 273.412 106.917 273.96 107.213C279.215 110.202 282.962 115.199 284.539 121.314C286.161 127.634 285.133 134.41 281.751 139.886C281.523 140.251 281.157 140.434 280.769 140.434ZM297.881 132.95C297.676 132.95 297.47 132.904 297.287 132.79C296.739 132.448 296.579 131.763 296.922 131.216C299.801 126.561 300.714 120.994 299.435 115.929C298.224 111.183 295.185 107.213 290.913 104.795C290.365 104.475 290.182 103.791 290.479 103.243C290.799 102.696 291.484 102.513 292.032 102.81C296.853 105.548 300.257 109.997 301.628 115.359C303.068 121.017 302.062 127.246 298.864 132.425C298.635 132.744 298.27 132.95 297.881 132.95ZM316.365 124.713C316.159 124.713 315.953 124.668 315.771 124.553C315.222 124.211 315.062 123.527 315.405 122.979C317.964 118.849 318.787 113.876 317.621 109.381C316.548 105.16 313.852 101.669 310.059 99.5241C309.511 99.2047 309.328 98.5202 309.625 97.9726C309.945 97.4251 310.63 97.2425 311.178 97.5391C315.519 100.003 318.581 103.996 319.815 108.833C321.117 113.921 320.203 119.511 317.324 124.188C317.119 124.531 316.753 124.713 316.365 124.713ZM336.584 118.119C336.379 118.119 336.173 118.074 335.99 117.96C335.442 117.617 335.282 116.933 335.625 116.385C337.818 112.849 338.504 108.651 337.521 104.817C336.607 101.235 334.323 98.2464 331.101 96.4212C330.553 96.1017 330.37 95.4172 330.667 94.8697C330.987 94.3221 331.672 94.1395 332.221 94.4361C335.99 96.5809 338.664 100.049 339.737 104.247C340.88 108.673 340.08 113.533 337.567 117.572C337.338 117.937 336.973 118.119 336.584 118.119ZM86.6821 68.9961C81.6558 68.9961 76.6294 67.7869 72.1513 66.6004C65.9826 64.9577 60.7049 64.9577 55.9755 66.6004C55.4957 66.7601 54.9931 66.6004 54.6961 66.2125C54.3991 65.8247 54.3991 65.2771 54.6733 64.8664C54.7646 64.7295 54.856 64.6154 54.9474 64.4785C54.9931 64.3873 55.0388 64.296 55.1073 64.2047C55.153 64.1363 55.2216 64.0906 55.2673 64.0222C62.6698 54.1884 75.4185 47.7086 88.7612 45.7693C83.2551 42.9629 78.6856 39.221 75.3728 34.8403C75.3271 34.7947 75.2814 34.7491 75.2357 34.6806C75.1672 34.6122 75.1215 34.5209 75.0758 34.4296C75.0072 34.3155 74.9158 34.2243 74.8473 34.1102C74.5503 33.6995 74.5731 33.1519 74.8701 32.764C75.1672 32.3762 75.6926 32.2165 76.1496 32.3762C80.2164 33.7908 84.8087 33.7908 90.1549 32.3762C93.5363 31.4863 96.7349 30.8931 99.6822 30.6193C100.322 30.5509 100.87 31.03 100.916 31.6461C100.984 32.2621 100.505 32.8325 99.8878 32.8781C97.0776 33.1291 93.9932 33.6995 90.7489 34.5665C88.7384 35.0913 86.8192 35.4564 84.9686 35.6161C90.9089 36.7797 96.5521 36.5059 101.03 36.2777C102.035 36.2321 102.972 36.1865 103.863 36.1637C104.457 36.0952 105.028 36.6428 105.051 37.2588C105.074 37.8977 104.571 38.4225 103.955 38.4453C103.086 38.4681 102.15 38.5137 101.167 38.5594C96.6663 38.7875 91.0688 39.0613 85.06 37.9661C90.3605 40.4075 96.9405 42.3468 103.863 42.4609C104.503 42.4609 105.006 42.9857 104.983 43.6245C104.983 44.2634 104.48 44.7425 103.818 44.7425C96.2551 44.6285 89.0811 42.4381 83.415 39.723C86.2709 41.9361 89.5609 43.8071 93.2164 45.3129C101.281 44.7654 109.392 45.9062 116.498 49.0092C117.069 49.2601 117.343 49.9446 117.092 50.515C116.84 51.0854 116.178 51.3592 115.584 51.1082C108.821 48.165 101.122 47.0698 93.4677 47.5717C93.2621 47.6402 93.0336 47.663 92.828 47.6174C81.8614 48.4616 71.009 52.5685 63.081 59.208C69.7752 55.7856 78.5485 52.9107 87.8245 52.7738C88.5556 52.7282 88.9669 53.2758 88.9897 53.8918C88.9897 54.5307 88.4871 55.0326 87.8702 55.0554C79.4396 55.1923 71.4431 57.6793 65.1601 60.7139C69.364 59.9609 73.3165 59.9837 77.2006 60.0065C80.6505 60.0294 84.2146 60.0522 87.8473 59.5046C88.4642 59.4133 89.0582 59.8468 89.1496 60.4629C89.241 61.0789 88.8069 61.6721 88.19 61.7634C84.3746 62.3338 80.719 62.3338 77.2006 62.311C72.9967 62.2882 68.9299 62.2654 64.6346 63.1552C67.1935 63.2464 69.8895 63.68 72.7682 64.4557C78.4572 65.9616 85.0371 67.4903 91.1373 66.3951C91.7314 66.281 92.3482 66.6917 92.4625 67.3077C92.5767 67.9238 92.1655 68.517 91.5486 68.6311C89.9036 68.8592 88.3043 68.9961 86.6821 68.9961ZM140.419 48.1421C140.007 48.1421 139.596 47.914 139.391 47.5033C139.116 46.9329 139.345 46.2484 139.893 45.9746C141.721 45.062 143.823 45.176 144.965 45.6552C145.559 45.9062 145.833 46.5678 145.582 47.1382C145.354 47.7086 144.668 48.0052 144.097 47.7543C143.48 47.5033 142.109 47.412 140.898 48.0052C140.784 48.0965 140.601 48.1421 140.419 48.1421ZM146.77 42.7803C146.61 42.7803 146.45 42.7575 146.313 42.6891C145.171 42.1871 142.589 42.073 141.424 42.6206C140.853 42.8944 140.167 42.6434 139.893 42.073C139.619 41.5026 139.87 40.8182 140.442 40.5444C142.292 39.6773 145.559 39.8599 147.227 40.59C147.798 40.841 148.072 41.5255 147.821 42.0959C147.638 42.5294 147.227 42.7803 146.77 42.7803ZM150.174 38.0346C149.946 38.0346 149.74 37.9661 149.535 37.8521C147.73 36.6428 144.166 36.5287 142.749 37.6467C142.269 38.0346 141.538 37.9661 141.15 37.4642C140.761 36.9622 140.83 36.2549 141.333 35.867C143.526 34.133 148.141 34.1786 150.814 35.9583C151.34 36.3006 151.477 37.0079 151.134 37.5326C150.906 37.8521 150.54 38.0346 150.174 38.0346ZM112.134 31.4407C101.259 31.4407 88.9897 27.8358 83.6206 22.474C83.1637 22.0176 83.1637 21.3103 83.6206 20.854C84.0776 20.3977 84.7858 20.3977 85.2428 20.854C85.2885 20.8996 85.3113 20.9225 85.357 20.9681C85.5626 20.9681 85.7454 21.0365 85.9282 21.1278C90.1549 23.7517 96.8491 25.2347 103.726 25.0978C108.707 25.0065 113.825 24.0483 118.531 22.3142C119.125 22.1089 119.788 22.4055 119.993 22.9987C120.222 23.5919 119.902 24.2536 119.308 24.459C114.35 26.2843 108.981 27.2882 103.749 27.4022C101.624 27.4479 99.5222 27.3338 97.4888 27.0828C104.754 29.1363 113.368 29.8208 119.948 28.4062C120.564 28.2693 121.181 28.6571 121.296 29.2732C121.433 29.8892 121.044 30.5052 120.427 30.6193C117.869 31.1669 115.058 31.4407 112.134 31.4407ZM155.703 29.7523C155.224 29.7523 154.79 29.4557 154.63 28.9766C154.424 28.3833 154.744 27.7217 155.338 27.5391C158.491 26.4668 160.478 23.8657 160.638 20.603C160.798 17.2034 159.085 14.3742 156.046 13.0509C153.03 11.796 150.951 10.4042 149.512 8.67017C148.072 6.98177 147.433 4.9055 147.616 2.94331C144.668 4.26665 142.064 6.66235 140.419 9.62845C138.865 12.4348 138.408 15.3325 139.139 17.7738C139.322 18.367 138.979 19.0059 138.385 19.1884C137.768 19.371 137.152 19.0287 136.969 18.4127C136.055 15.3553 136.58 11.8416 138.431 8.51046C140.739 4.38073 144.668 1.20928 148.986 0.0228427C149.42 -0.0912382 149.877 0.0456588 150.152 0.387901C150.449 0.730144 150.494 1.20928 150.312 1.59716C149.466 3.39964 149.832 5.47591 151.271 7.18712C152.482 8.62454 154.287 9.81098 156.96 10.929C160.867 12.6174 163.152 16.3592 162.923 20.6943C162.718 24.8696 160.09 28.2921 156.069 29.661C155.955 29.7295 155.818 29.7523 155.703 29.7523ZM225.41 24.7556C225.25 24.7556 225.067 24.7099 224.908 24.6415C224.336 24.3677 224.108 23.6832 224.382 23.1128C225.524 20.7856 228.723 19.3481 231.19 19.1656C231.807 19.12 232.356 19.5991 232.401 20.2152C232.447 20.854 231.967 21.3788 231.35 21.4244C229.545 21.5385 227.169 22.588 226.438 24.0939C226.233 24.5046 225.821 24.7556 225.41 24.7556ZM222.965 22.3599C222.394 22.3599 221.892 21.9264 221.823 21.3331C221.618 19.371 222.371 17.4088 223.742 16.3364C225.182 15.2184 227.124 15.264 228.54 15.3097C229.02 15.3325 229.454 15.3553 229.797 15.2869C230.414 15.1956 231.008 15.6291 231.099 16.2451C231.19 16.8612 230.756 17.4544 230.14 17.5457C229.705 17.6141 229.111 17.5913 228.472 17.5913C227.284 17.5457 225.936 17.5 225.136 18.1161C224.382 18.7093 223.948 19.8957 224.062 21.0822C224.131 21.6982 223.674 22.2686 223.034 22.3371C223.034 22.3599 223.011 22.3599 222.965 22.3599ZM152.665 21.8123C152.642 21.8123 152.619 21.8123 152.573 21.8123C150.266 21.6526 148.141 20.3977 146.61 18.2986C144.691 15.6747 144.006 12.2067 144.782 8.9896C144.942 8.37356 145.536 7.98569 146.153 8.1454C146.77 8.2823 147.136 8.89833 146.999 9.51437C146.382 12.0698 146.907 14.8534 148.438 16.9296C149.58 18.4811 151.088 19.3938 152.71 19.5079C153.35 19.5535 153.807 20.1011 153.761 20.7171C153.761 21.356 153.259 21.8123 152.665 21.8123Z" fill="black" class="second-tone"></path><path d="M178.071 47.1383C176.22 47.1383 174.712 45.6324 174.712 43.7843C174.712 41.9362 176.22 40.4303 178.071 40.4303C179.921 40.4303 181.429 41.9362 181.429 43.7843C181.429 45.6324 179.944 47.1383 178.071 47.1383ZM178.071 42.6891C177.477 42.6891 176.997 43.1682 176.997 43.7615C176.997 44.3547 177.477 44.8338 178.071 44.8338C178.665 44.8338 179.145 44.3547 179.145 43.7615C179.145 43.1682 178.688 42.6891 178.071 42.6891Z" fill="black" class="first-tone"></path><path d="M209.417 48.3931C207.567 48.3931 206.059 46.8873 206.059 45.0392C206.059 43.191 207.567 41.6852 209.417 41.6852C211.268 41.6852 212.776 43.191 212.776 45.0392C212.776 46.8873 211.268 48.3931 209.417 48.3931ZM209.417 43.944C208.823 43.944 208.343 44.4231 208.343 45.0163C208.343 45.6096 208.823 46.0887 209.417 46.0887C210.011 46.0887 210.491 45.6096 210.491 45.0163C210.491 44.4231 210.011 43.944 209.417 43.944Z" fill="black" class="first-tone"></path></svg>