<svg viewBox="0 0 36 36" fill="none" xmlns="http://www.w3.org/2000/svg">
    <path d="M31.5 8.62994L16.5 0.129941C16.19 -0.0400586 15.82 -0.0400586 15.51 0.129941L0.51 8.62994C0.19 8.80994 0 9.13994 0 9.49994V26.4999C0 26.8599 0.19 27.1899 0.51 27.3699L15.51 35.8699C15.66 35.9599 15.83 35.9999 16 35.9999C16.17 35.9999 16.34 35.9599 16.49 35.8699L31.49 27.3699C31.81 27.1999 32 26.8699 32 26.5099V9.50994C32 9.13994 31.81 8.80994 31.5 8.62994ZM30 25.9199L16 33.8599L2 25.9199V10.0899L16 2.14994L30 10.0899V25.9199Z"
          fill="currentColor"></path>
</svg>