<svg viewBox="0 0 58 26" fill="none" xmlns="http://www.w3.org/2000/svg"
     class="w-[50px] md:w-[100px] h-[50px] md:h-[100px]">
    <g clip-path="url(#clip0_7_2)">
        <path d="M20.91 11H21C22.442 10.9974 23.8241 10.4234 24.8437 9.40374C25.8634 8.38412 26.4374 7.00197 26.44 5.56V5.44C26.4374 3.99803 25.8634 2.61588 24.8437 1.59626C23.8241 0.576633 22.442 0.00264339 21 0L20.87 0C19.429 0.00264898 18.0478 0.576959 17.0298 1.59687C16.0118 2.61678 15.44 3.99895 15.44 5.44V5.56C15.44 6.27692 15.5817 6.98678 15.8569 7.64875C16.1322 8.31072 16.5356 8.91176 17.0439 9.41731C17.5523 9.92285 18.1555 10.3229 18.819 10.5945C19.4825 10.8662 20.1931 11.004 20.91 11ZM17.48 5.44C17.48 4.52939 17.8411 3.65592 18.484 3.01108C19.127 2.36624 19.9994 2.00265 20.91 2H21C21.9115 2.00264 22.785 2.36591 23.4295 3.01047C24.0741 3.65502 24.4374 4.52847 24.44 5.44V5.56C24.4374 6.47153 24.0741 7.34498 23.4295 7.98953C22.785 8.63409 21.9115 8.99736 21 9H20.87C19.9594 8.99735 19.087 8.63376 18.444 7.98892C17.8011 7.34408 17.44 6.47061 17.44 5.56L17.48 5.44ZM40.27 7.13L38.86 5.72L22.86 21.72L13.71 12.4L12.71 11.4L0 24L1.41 25.42L12.63 14.23L22.78 24.57L23.64 23.72L38.86 8.55L55.86 25.88L57.28 24.48L40.27 7.13Z"
              fill="currentColor"></path>
    </g>
    <defs>
        <clipPath id="clip0_7_2">
            <rect width="57.31" height="25.88" fill="transparent"></rect>
        </clipPath>
    </defs>
</svg>