<svg width="58" height="21" viewBox="0 0 58 21" fill="none" xmlns="http://www.w3.org/2000/svg" class="h-10 w-10"><path d="M23.26 5.17994C17.26 3.58994 10.75 3.58994 4.75 5.17994C4.31 5.29994 4 5.68994 4 6.14994V8.24994C4 8.31994 4.01 8.38994 4.02 8.45994L5.31 14.6099C5.6 15.9899 6.83 16.9899 8.25 16.9899H19.75C21.16 16.9899 22.4 15.9899 22.69 14.6099L23.98 8.44994C23.99 8.38994 24 8.31994 24 8.24994V6.14994C24 5.68994 23.69 5.29994 23.26 5.17994ZM22 8.14994L20.73 14.1999C20.63 14.6599 20.22 14.9899 19.75 14.9899H8.25C7.78 14.9899 7.37 14.6599 7.27 14.1999L6 8.14994V6.92994C11.21 5.67994 16.8 5.67994 22 6.92994V8.14994ZM53.26 5.17994C47.26 3.58994 40.75 3.58994 34.75 5.17994C34.31 5.29994 34 5.68994 34 6.14994V8.24994C34 8.31994 34.01 8.38994 34.02 8.45994L35.31 14.6099C35.6 15.9899 36.83 16.9899 38.25 16.9899H49.75C51.16 16.9899 52.4 15.9899 52.69 14.6099L53.98 8.44994C53.99 8.38994 54 8.31994 54 8.24994V6.14994C54 5.68994 53.69 5.29994 53.26 5.17994ZM52 8.14994L50.73 14.1999C50.63 14.6599 50.22 14.9899 49.75 14.9899H38.25C37.78 14.9899 37.37 14.6599 37.27 14.1999L36 8.14994V6.92994C41.21 5.67994 46.8 5.67994 52 6.92994V8.14994ZM57.3 2.21994L55.89 1.77994C48.23 -0.590059 39.77 -0.590059 32.11 1.77994L31.41 1.99994H26.6L25.89 1.77994C18.23 -0.590059 9.77 -0.590059 2.11 1.77994L0.7 2.21994C0.29 2.34994 0 2.72994 0 3.16994V8.45994C0 8.52994 0.01 8.58994 0.02 8.65994L1.4 15.4299C2.08 18.6499 4.96 20.9899 8.25 20.9899H19.75C23.04 20.9899 25.93 18.6499 26.6 15.4299L27.74 9.99994H30.29L31.4 15.4299C32.08 18.6499 34.96 20.9899 38.25 20.9899H49.75C53.04 20.9899 55.93 18.6499 56.6 15.4299L57.93 9.06994C57.94 9.00994 57.95 8.93994 57.95 8.86994L58 3.17994C58 2.73994 57.72 2.34994 57.3 2.21994ZM55.96 8.75994L54.65 15.0199C54.17 17.3199 52.11 18.9899 49.76 18.9899H38.26C35.91 18.9899 33.85 17.3199 33.37 15.0299L32.09 8.79994C31.99 8.32994 31.58 7.99994 31.11 7.99994H26.93C26.46 7.99994 26.05 8.32994 25.95 8.78994L24.64 15.0099C24.16 17.3099 22.1 18.9799 19.75 18.9799H8.25C5.9 18.9799 3.84 17.3099 3.36 15.0199L2 8.35994V3.90994L2.7 3.68994C9.97 1.43994 18.02 1.43994 25.29 3.68994L26.14 3.94994C26.24 3.97994 26.34 3.98994 26.44 3.98994H31.55C31.65 3.98994 31.75 3.97994 31.85 3.94994L32.7 3.68994C39.97 1.43994 48.02 1.43994 55.29 3.68994L55.99 3.90994L55.96 8.75994Z" fill="#F37374"></path></svg>