<svg width="322" height="844" viewBox="0 0 322 844" fill="none" xmlns="http://www.w3.org/2000/svg" class="hidden lg:block h-[532px] w-[312px] flex-1"><g clip-path="url(#clip0_5_99)"><path d="M12.4072 536.007C12.4072 506.669 30.8641 481.026 58.5353 471.648C50.0491 458.155 41.3948 444.102 33.0486 428.061C14.7599 392.844 5.40541 352.7 6.02157 312.024C6.32965 291.645 10.2507 266.646 16.0202 248.365C18.2888 240.639 21.7897 233.584 26.2709 227.426C27.8953 205.506 18.8769 184.258 10.1386 163.711L8.85031 160.687C4.45316 150.245 0 133.393 0 119.116C0 97.8121 7.84205 78.3281 22.0978 64.191C37.3057 49.102 59.0674 40.9277 83.1257 41.1237C89.4553 41.0677 96.2051 41.3476 103.207 41.9635C97.1853 35.1329 91.976 27.0145 87.4948 17.6085C87.1867 16.9926 87.4108 16.2367 87.9709 15.8448C88.5311 15.4529 89.3153 15.5649 89.7914 16.0688C100.518 27.9943 116.51 31.7736 131.97 35.4128C137.404 36.7006 142.865 37.9883 148.131 39.64C139.196 29.0021 133.707 16.7966 131.018 1.62371C130.906 0.951847 131.27 0.279984 131.914 0.0560294C132.559 -0.167925 133.287 0.0840238 133.595 0.699898C140.541 13.0734 150.959 19.2601 161.966 25.8108L164.739 27.4624C177.482 35.1329 188.377 42.8873 192.214 60.1878C199.888 60.8876 207.478 63.6311 215.292 68.5861C221.286 72.3653 226.327 76.6764 232.685 82.1353C237.698 86.4184 243.383 91.2894 250.917 97.1122C260.356 104.391 280.997 116.596 295.225 120.627C296.037 120.851 296.877 121.047 297.718 121.187C297.214 120.515 296.793 119.76 296.485 118.892C295.197 115.337 296.121 111.081 298.81 108.282C302.199 104.923 308.248 103.859 312.926 105.79C317.015 107.498 320.292 111.557 321.104 115.84C321.972 120.04 321.3 124.631 319.227 128.41C316.791 132.889 312.309 136.276 306.652 137.956C299.734 140 290.884 139.02 282.398 135.24C274.5 131.769 265.173 128.242 256.015 128.242C245.764 128.242 236.466 131.937 229.8 138.628C223.162 145.318 219.717 154.305 219.801 164.606C219.801 166.258 219.829 167.966 219.885 169.673C225.767 177.092 237.782 180.479 246.856 177.26C247.445 177.036 248.117 177.26 248.481 177.792C248.845 178.324 248.817 179.024 248.397 179.499C242.095 186.806 232.069 189.381 221.23 186.554C221.65 189.241 222.154 191.985 222.854 194.7C231.2 199.04 241.507 198.816 248.621 194.085C249.153 193.721 249.853 193.777 250.329 194.196C250.805 194.616 250.945 195.316 250.637 195.876C246.24 204.582 238.454 208.949 227.923 208.782C228.092 209.117 228.26 209.481 228.428 209.817C233.721 220.203 240.667 227.37 248.481 230.505C249.097 230.757 249.433 231.373 249.349 232.017C249.237 232.661 248.733 233.137 248.061 233.193C229.66 234.592 214.48 224.542 207.394 206.262C205.882 202.371 204.733 198.284 203.641 194.336C201.457 186.554 199.216 178.492 193.895 170.821C187.957 162.283 178.855 154.725 165.159 147.082C155.048 141.259 147.627 131.937 144.07 121.159C125.333 107.554 102.003 104.671 92.7882 104.055C87.8589 103.719 83.8819 103.859 81.5573 104.419C73.3231 106.434 67.9457 112.145 67.1615 119.732C66.8814 122.587 67.3856 129.838 71.1946 138.964L72.2309 141.399C75.1996 148.398 79.6528 158.952 82.9856 171.353C86.1225 182.971 87.5228 191.957 87.5228 200.215C121.58 203.827 148.187 232.717 148.187 267.71C148.187 305.138 117.715 335.596 80.2689 335.596C74.2474 335.596 68.1418 334.784 62.4283 333.272C63.5766 350.405 67.8617 375.18 81.1652 400.934C89.5674 417.199 99.1739 431.14 108.472 444.633C111.861 449.56 115.222 454.431 118.415 459.302C135.667 485.421 147.318 508.432 148.159 535.867C148.159 573.379 117.715 603.893 80.2689 603.893C42.8512 603.893 12.4072 573.435 12.4072 536.007ZM60.9439 296.012C62.0922 287.25 63.8567 278.459 66.2093 269.697C66.7974 267.514 67.3296 265.694 67.8057 264.21C67.9177 263.846 68.0297 263.454 68.1698 263.09C68.1698 263.062 68.1978 263.034 68.1978 263.006C68.2258 262.95 68.2258 262.894 68.2538 262.839C70.1863 258.107 74.8355 254.748 80.2689 254.748C87.4108 254.748 93.2363 260.571 93.2363 267.71C93.2363 274.848 87.4108 280.671 80.2689 280.671C74.8915 280.671 70.2423 277.368 68.2818 272.693C66.3213 280.335 64.8369 287.977 63.7726 295.62C68.7299 298.531 74.3874 300.043 80.1569 300.043C98.0536 300.043 112.589 285.486 112.589 267.626C112.589 249.737 98.0256 235.208 80.1569 235.208C66.1813 235.208 54.2782 244.054 49.0968 258.247C44.1395 272.413 36.1574 301.387 38.202 336.519C39.7984 364.178 47.3324 392.2 59.3755 415.407C68.4219 432.792 78.2804 448.385 86.9907 462.158C104.663 490.096 118.667 512.24 118.555 535.587C118.555 535.643 118.555 535.699 118.555 535.783C118.555 557.031 101.274 574.303 80.0169 574.303C58.7593 574.303 41.4788 557.031 41.4788 535.783C41.4788 516.635 55.8466 500.314 74.5835 497.655C74.0513 496.759 73.5192 495.863 72.987 494.967C69.3741 488.948 65.5371 482.874 61.448 476.407C60.9719 475.623 60.4678 474.867 59.9917 474.083C33.1046 482.902 15.1239 507.649 15.1239 536.007C15.1239 571.896 44.3356 601.094 80.2409 601.094C116.118 601.094 145.33 571.839 145.33 535.895C144.518 509.188 133.035 486.569 116.062 460.842C112.869 455.999 109.537 451.156 106.148 446.229C96.8213 432.68 87.1587 418.655 78.6725 402.222C64.3888 374.536 60.3277 347.941 59.4595 330.529C58.8994 319.219 59.3755 307.797 60.8599 296.348C60.9159 296.236 60.9159 296.124 60.9439 296.012ZM115.782 536.819C116.398 513.863 102.395 491.72 84.6661 463.67C75.9278 449.868 66.0412 434.22 56.9389 416.723C44.6997 393.18 37.0817 364.766 35.4572 336.687C33.3847 301.051 41.5068 271.657 46.5201 257.296C52.1216 241.927 65.033 232.381 80.2409 232.381C99.678 232.381 115.474 248.197 115.474 267.598C115.474 286.998 99.65 302.814 80.2409 302.814C74.3594 302.814 68.6179 301.359 63.4646 298.587C62.1762 309.225 61.8121 319.835 62.3163 330.305C68.0297 331.928 74.2474 332.768 80.325 332.768C116.23 332.768 145.442 303.57 145.442 267.682C145.442 233.864 119.507 205.982 86.4586 202.875C86.3465 202.903 86.2345 202.903 86.1225 202.903C85.9544 202.903 85.7584 202.875 85.6183 202.791C77.4402 202.119 69.066 203.015 61.504 205.254C61.252 205.478 60.9159 205.646 60.5518 205.646C60.4678 205.646 60.4118 205.646 60.3277 205.618C47.7245 209.621 36.8576 217.432 29.0156 228.098C29.0156 228.126 29.0156 228.154 29.0156 228.154C28.9596 228.713 28.5955 229.161 28.1193 229.357C24.0583 235.18 20.8374 241.787 18.6809 249.093C12.9954 267.178 9.10238 291.869 8.8223 311.996C8.23415 352.224 17.4486 391.892 35.5413 426.717C44.8117 444.577 54.5302 459.974 63.9127 474.867C68.0017 481.334 71.8387 487.437 75.4797 493.456C76.2079 494.659 77.0761 496.115 78.0284 497.795C78.1404 497.935 78.2524 498.103 78.3084 498.298C83.6858 507.733 91.7239 523.185 93.1523 533.767C93.1523 533.851 93.1523 533.935 93.1523 533.991C93.2363 534.635 93.2923 535.279 93.2923 535.951C93.2923 543.089 87.4668 548.912 80.325 548.912C73.1831 548.912 67.3576 543.089 67.3576 535.951C67.3576 528.812 73.1831 522.99 80.325 522.99C83.2937 522.99 86.0384 523.997 88.251 525.677C85.8704 518.65 81.7253 509.888 76.2079 500.202C58.2832 502.162 44.3636 517.587 44.3636 535.699C44.3636 555.407 60.3838 571.42 80.1009 571.42C99.3979 571.42 115.166 556.079 115.81 536.959C115.782 536.959 115.754 536.875 115.782 536.819ZM70.1303 536.007C70.1303 541.606 74.6955 546.169 80.297 546.169C85.8984 546.169 90.4636 541.606 90.4636 536.007C90.4636 530.408 85.8984 525.845 80.297 525.845C74.6955 525.845 70.1303 530.408 70.1303 536.007ZM70.8305 264.042C70.7185 264.322 70.6344 264.658 70.5224 264.994C70.2703 265.862 70.1583 266.786 70.1583 267.737C70.1583 273.336 74.7235 277.899 80.325 277.899C85.9264 277.899 90.4916 273.336 90.4916 267.737C90.4916 262.139 85.9264 257.576 80.325 257.576C75.9838 257.576 72.2869 260.263 70.8305 264.042ZM283.574 132.693C291.36 136.164 299.678 137.116 305.896 135.296C310.797 133.841 314.774 130.873 316.819 127.094C318.583 123.875 319.143 120.012 318.415 116.4C317.799 113.013 315.11 109.71 311.917 108.394C308.36 106.91 303.375 107.75 300.883 110.27C298.922 112.313 298.25 115.393 299.202 117.968C299.65 119.2 300.854 121.299 303.963 121.691C304.047 121.691 304.131 121.691 304.215 121.719C306.624 121.915 307.968 120.264 308.444 118.808C308.837 117.548 308.669 115.952 307.408 115.253C306.736 114.889 306.484 114.021 306.876 113.349C307.268 112.677 308.108 112.425 308.781 112.817C311.049 114.077 312.001 116.848 311.105 119.648C310.293 122.307 307.828 124.799 303.907 124.519C301.919 124.687 297.858 124.295 294.525 123.371C280.745 119.48 260.328 107.89 249.293 99.4078C241.675 93.557 235.962 88.658 230.948 84.3469C224.675 78.9719 219.717 74.7168 213.864 71.0216C205.21 65.5627 196.863 62.9032 188.433 62.9032C184.736 62.9032 181.151 63.3511 177.734 64.219C177.65 64.2749 177.594 64.3309 177.51 64.3589C177.258 64.4989 176.978 64.5269 176.698 64.4989C158.213 69.6499 144.602 86.6144 144.602 106.714C144.602 122.335 153.032 136.92 166.615 144.703C180.675 152.569 190.114 160.379 196.275 169.282C201.877 177.344 204.173 185.63 206.414 193.637C207.534 197.696 208.626 201.531 210.083 205.282C213.024 212.841 221.79 229.441 242.431 230.505C236.074 226.474 230.472 219.867 226.019 211.133C218.009 195.4 217.197 178.912 217.085 164.69C217.001 153.773 220.838 143.835 227.895 136.724C235.065 129.502 245.092 125.498 256.099 125.498C265.733 125.47 275.396 129.11 283.574 132.693ZM48.8167 163.403C43.2433 150.133 37.4738 136.388 37.2777 119.396C37.2777 96.0765 56.7708 75.3327 80.605 73.1491C99.8741 70.1537 127.293 77.4323 146.506 86.1385C149.727 79.6158 154.432 73.961 160.174 69.5659C137.908 67.5223 119.955 59.4319 105.98 45.0429C97.9696 44.231 90.2675 43.8671 83.0697 43.9231C82.7896 43.9231 82.5095 43.9231 82.2575 43.9231C59.1794 43.9231 38.51 51.8175 24.0303 66.1786C10.3627 79.7838 2.80073 98.568 2.80073 119.116C2.80073 133.001 7.14186 149.434 11.427 159.568L12.7153 162.591C21.0615 182.215 29.6597 202.455 29.2396 223.59C37.1377 214.184 47.4724 207.13 59.1794 203.267C59.4595 188.71 54.2782 176.392 48.8167 163.403ZM223.862 198.256C224.647 200.831 225.571 203.407 226.663 205.954C235.009 206.346 241.227 204.05 245.456 198.872C238.79 201.419 230.948 201.223 223.862 198.256ZM84.7501 199.991C84.7221 192.041 83.3497 183.363 80.325 172.081C77.0481 159.875 72.6229 149.406 69.6822 142.491L68.6459 140.028C64.8929 131.041 63.9967 123.315 64.4168 119.452C65.313 110.661 71.5027 104.027 80.9411 101.703C84.274 100.891 89.3433 101.031 93.0123 101.255C102.003 101.843 124.156 104.559 142.949 116.932C142.193 113.601 141.773 110.13 141.773 106.63C141.773 100.248 143.061 94.1729 145.386 88.63C127.097 80.3717 99.65 72.9812 80.9691 75.8926C58.4232 77.9642 40.0785 97.4762 40.0785 119.368C40.2745 135.8 45.932 149.294 51.3934 162.311C56.8548 175.328 62.0362 187.674 61.9522 202.371C67.8057 200.719 73.9393 199.851 80.2689 199.851C81.8093 199.851 83.2937 199.907 84.7501 199.991ZM220.081 173.957C220.221 177.092 220.474 180.283 220.866 183.531C229.044 185.966 236.774 185.042 242.487 181.123C234.561 181.991 225.823 179.248 220.081 173.957ZM131.326 38.1563C118.023 35.0209 104.355 31.8016 93.6284 23.4593C97.6615 30.7378 102.199 37.0365 107.268 42.4674C107.548 42.6074 107.772 42.8313 107.884 43.1393C122.028 57.8643 140.345 65.5907 163.871 67.0464C167.232 64.9468 170.901 63.2951 174.766 62.0914C166.083 46.3306 149.195 42.3554 131.326 38.1563ZM189.357 60.0478C185.576 44.371 175.326 37.0925 163.339 29.898L160.566 28.2463C151.604 22.8994 142.361 17.4125 135.303 8.31435C138.664 21.4997 144.462 31.9695 153.592 41.5716C163.451 45.4068 172.105 51.1176 177.51 61.3075C181.011 60.4677 184.624 60.0198 188.377 60.0198C188.713 60.0478 189.021 60.0478 189.357 60.0478ZM199.804 121.859C195.743 117.688 193.25 112.705 190.842 107.862C188.321 102.823 185.941 98.0081 181.907 94.2288C181.515 93.9209 181.151 93.585 180.759 93.221C180.199 92.6891 180.171 91.8493 180.675 91.2894C181.179 90.7296 182.047 90.6736 182.608 91.1495C183 91.4854 183.364 91.7933 183.728 92.1293C187.873 95.5446 192.998 96.9163 198.376 98.344C203.725 99.7717 209.271 101.227 213.976 104.895C219.689 109.29 223.078 118.164 221.706 125.051C221.622 125.498 221.314 125.89 220.866 126.058C218.541 127.038 216.048 127.486 213.556 127.486C208.458 127.486 203.389 125.526 199.804 121.859ZM212.323 107.106C208.038 103.803 203.025 102.459 197.704 101.059C194.735 100.276 191.682 99.4638 188.797 98.26C190.534 100.947 191.962 103.803 193.362 106.63C195.659 111.249 198.04 116.064 201.821 119.9C206.162 124.351 213.192 125.89 219.129 123.735C219.913 118.024 216.973 110.689 212.323 107.106Z" fill="black"></path><path d="M280.101 843.888C279.457 843.636 279.093 842.964 279.233 842.292C286.599 806.824 278.673 778.213 255.007 754.782C235.514 735.494 210.895 729.867 180.731 724.548C149.895 719.089 130.402 713.323 109.481 697.03C100.098 689.723 91.4439 678.89 86.3746 668.056C76.292 646.5 72.3709 621.305 76.32 603.473C76.2359 603.501 76.1519 603.557 76.0959 603.585C75.3957 603.893 74.5555 603.585 74.2474 602.885C73.9393 602.185 74.2474 601.345 74.9476 601.038C77.3842 599.918 79.0367 597.566 79.2047 594.879C79.3728 592.471 78.3085 590.12 76.376 588.608C76.0119 588.328 75.8158 587.88 75.8438 587.404C75.8718 586.928 76.1239 586.508 76.544 586.285C78.5325 585.137 79.9049 582.813 80.0729 580.35C80.269 577.466 78.3365 575.171 76.46 573.967C75.8158 573.547 75.6198 572.679 76.0399 572.035C76.46 571.392 77.3282 571.196 77.9724 571.616C81.2492 573.687 83.1257 577.102 82.9017 580.546C82.7056 583.261 81.4173 585.893 79.4568 587.628C81.2773 589.644 82.2295 592.331 82.0335 595.075C81.8654 597.622 80.7171 599.974 78.9246 601.709C79.2887 602.045 79.4568 602.549 79.3447 603.081C75.1437 620.41 78.9246 645.464 88.9793 666.88C93.8805 677.322 102.199 687.792 111.273 694.846C131.746 710.803 150.903 716.43 181.291 721.833C211.931 727.264 236.97 733.003 257.023 752.851C277.608 773.202 286.655 797.362 284.442 826.308C285.563 821.437 286.319 816.51 286.683 811.583C286.655 811.359 286.655 811.135 286.739 810.911C286.935 808.223 286.991 805.536 286.963 802.848C286.851 802.541 286.851 802.205 286.935 801.897C286.627 787.256 283.042 772.727 276.292 759.261C276.18 759.093 276.068 758.925 276.012 758.729C274.472 755.706 272.763 752.739 270.915 749.827C270.607 749.631 270.411 749.295 270.327 748.931C268.338 745.908 266.125 743.025 263.689 740.337C263.465 740.197 263.269 740.001 263.157 739.749C260.636 737.006 257.863 734.458 254.839 732.051C254.474 731.939 254.166 731.715 253.97 731.379C251.086 729.139 247.977 727.068 244.616 725.136C244.42 725.08 244.224 724.968 244.084 724.828C240.891 723.009 237.502 721.329 233.889 719.733C233.497 719.733 233.133 719.593 232.853 719.285C229.436 717.83 225.851 716.514 222.042 715.254C221.734 715.254 221.398 715.17 221.146 714.974C217.365 713.771 213.388 712.651 209.187 711.643C208.991 711.643 208.795 711.587 208.626 711.503C205.518 710.747 202.297 710.075 198.964 709.431C198.04 709.263 197.115 709.068 196.219 708.9C195.995 708.928 195.743 708.872 195.519 708.76C190.31 707.724 185.352 706.66 180.619 705.512C180.311 705.54 180.003 705.456 179.723 705.288C168.156 702.433 158.017 699.13 148.887 694.706C148.551 694.678 148.243 694.51 148.019 694.286C139.588 690.087 132.054 684.936 125.081 678.274C123.372 676.65 121.776 674.943 120.263 673.179C119.899 673.011 119.647 672.703 119.535 672.311C102.675 651.875 97.6335 622.481 101.499 601.653C101.499 601.625 101.499 601.597 101.499 601.569C101.611 600.926 101.751 600.282 101.891 599.666C101.639 599.974 101.386 600.254 101.106 600.506C100.546 601.038 99.65 601.01 99.1179 600.45C98.5858 599.89 98.6138 598.994 99.1739 598.462C101.134 596.586 101.891 593.843 101.19 591.24C100.546 588.888 98.7818 587.012 96.4572 586.229C96.0091 586.089 95.673 585.725 95.561 585.277C95.449 584.829 95.561 584.353 95.8411 583.989C97.3254 582.253 97.8856 579.594 97.2414 577.214C96.4852 574.415 93.8805 572.875 91.724 572.371C90.9678 572.203 90.5197 571.448 90.6877 570.692C90.8558 569.936 91.6119 569.46 92.3681 569.656C96.1491 570.552 99.0339 573.183 99.9581 576.487C100.658 579.118 100.294 582.029 99.0339 584.325C101.415 585.641 103.179 587.852 103.907 590.512C104.495 592.667 104.355 594.907 103.543 596.922C103.683 596.922 103.851 596.922 104.019 596.95C104.607 597.09 104.999 597.566 105.083 598.126C106.344 597.51 107.716 597.23 109.06 597.37C111.105 597.594 113.066 598.602 114.41 600.058C116.034 598.798 118.107 598.182 120.179 598.406C121.804 598.574 123.316 599.218 124.521 600.226C125.697 591.016 128.274 582.477 131.998 575.535C132.363 574.863 133.231 574.611 133.903 574.975C134.575 575.339 134.827 576.179 134.463 576.878C130.458 584.325 127.825 593.675 126.929 603.753C126.957 603.921 126.929 604.089 126.873 604.257C126.061 613.915 126.845 624.217 129.506 634.043C129.702 634.323 129.786 634.631 129.758 634.939C130.906 638.97 132.363 642.917 134.155 646.696C134.379 646.92 134.491 647.2 134.547 647.48C137.012 652.463 140.065 657.194 143.762 661.449C145.75 663.745 147.851 665.844 150.063 667.776C150.371 667.888 150.595 668.112 150.735 668.364C153.732 670.911 156.897 673.179 160.286 675.222C160.706 675.278 161.07 675.502 161.294 675.838C165.019 678.022 168.94 679.953 173.057 681.717C173.253 681.745 173.449 681.829 173.589 681.941C177.846 683.733 182.3 685.356 186.921 686.896C187.201 686.896 187.481 687.008 187.705 687.148C194.119 689.248 200.868 691.179 207.87 693.195C210.391 693.923 212.94 694.65 215.544 695.406C224.423 697.982 232.657 701.229 240.135 705.036C240.359 705.092 240.583 705.204 240.751 705.344C244.896 707.5 248.845 709.823 252.542 712.343C252.794 712.427 253.018 712.567 253.158 712.763C256.715 715.198 260.048 717.802 263.157 720.573C263.437 720.685 263.689 720.909 263.829 721.161C267.19 724.184 270.271 727.432 273.071 730.819C273.323 730.987 273.519 731.211 273.603 731.491C277.244 735.998 280.409 740.813 283.042 745.908C286.123 751.815 288.587 758.002 290.464 764.328C290.604 764.552 290.66 764.776 290.66 765.028C291.528 768.052 292.256 771.103 292.872 774.182C293.097 774.518 293.181 774.938 293.097 775.33C293.601 778.045 293.993 780.789 294.273 783.532C294.329 783.7 294.357 783.896 294.329 784.064C294.945 790.335 295.001 796.634 294.497 802.848C294.497 802.988 294.497 803.156 294.469 803.296C294.217 806.124 293.881 808.923 293.405 811.695C293.433 811.947 293.377 812.227 293.265 812.45C291.304 823.452 287.495 833.978 281.838 843.356C281.586 843.776 281.109 844.028 280.633 844.028C280.465 844 280.269 843.972 280.101 843.888ZM289.848 812.87C289.68 812.842 289.512 812.786 289.372 812.73C289.119 815.782 288.699 818.833 288.167 821.857C289.035 818.917 289.764 815.894 290.324 812.842C290.156 812.898 289.988 812.898 289.848 812.87ZM291.612 803.548C291.304 803.828 290.772 803.996 290.352 803.912C290.128 803.884 289.904 803.8 289.736 803.688C289.736 805.676 289.68 807.635 289.568 809.623C289.792 809.679 289.988 809.735 290.184 809.847C290.38 809.791 290.604 809.763 290.828 809.763C291.164 807.719 291.416 805.648 291.612 803.548ZM291.836 800.693C291.948 798.649 292.032 796.606 292.032 794.562C292.004 794.534 291.864 794.562 291.78 794.674C291.528 795.01 291.024 795.234 290.604 795.262C290.1 795.262 289.652 795.094 289.372 794.786C289.54 796.662 289.652 798.537 289.736 800.413C289.764 800.413 289.792 800.413 289.82 800.413C290.24 800.469 290.632 800.609 290.968 800.805C291.248 800.721 291.528 800.693 291.836 800.693C291.808 800.693 291.808 800.693 291.836 800.693ZM291.556 784.484C291.472 784.456 291.416 784.4 291.332 784.428C291.192 784.456 290.996 784.596 290.912 784.764C290.688 785.184 290.296 785.464 289.82 785.52C289.344 785.604 288.895 785.408 288.587 785.044C288.531 784.988 288.391 784.848 288.195 784.848C288.111 784.848 288.027 784.932 287.943 785.016C288.391 787.34 288.755 789.663 289.035 792.015C289.091 792.015 289.175 792.015 289.232 791.987C289.68 791.959 290.1 792.015 290.52 792.155C290.968 791.903 291.472 791.763 292.004 791.763C291.92 789.327 291.78 786.92 291.556 784.484ZM290.296 775.582C290.184 775.526 290.072 775.526 289.96 775.526C289.736 775.582 289.484 775.806 289.4 776.058C289.232 776.478 288.839 776.814 288.391 776.898C287.943 777.01 287.467 776.87 287.131 776.534C287.075 776.478 286.823 776.226 286.543 776.31C286.375 776.338 286.179 776.534 286.039 776.758C286.543 778.549 286.991 780.369 287.383 782.189C287.551 782.133 287.719 782.105 287.887 782.077C288.419 782.021 288.951 782.105 289.428 782.301C289.904 781.965 290.436 781.741 290.996 781.657C291.08 781.657 291.164 781.629 291.248 781.629C290.968 779.613 290.66 777.598 290.296 775.582ZM287.691 773.678C288.167 773.23 288.755 772.922 289.372 772.783C289.484 772.755 289.596 772.755 289.708 772.727C289.204 770.403 288.643 768.108 287.971 765.84C287.775 765.756 287.551 765.7 287.327 765.784C287.047 765.896 286.767 766.204 286.683 766.54C286.571 766.988 286.235 767.352 285.787 767.52C285.367 767.688 284.862 767.604 284.47 767.324C284.33 767.24 283.994 767.016 283.63 767.156C283.406 767.24 283.182 767.52 283.07 767.828C283.826 769.815 284.498 771.803 285.142 773.818C285.395 773.706 285.647 773.594 285.927 773.538C286.151 773.482 286.375 773.482 286.599 773.482C286.963 773.51 287.327 773.566 287.691 773.678ZM284.694 764.412C285.142 763.824 285.731 763.376 286.403 763.152C286.627 763.068 286.879 763.013 287.131 762.984C286.319 760.409 285.366 757.834 284.33 755.314C284.078 755.202 283.714 755.09 283.322 755.258C282.958 755.426 282.678 755.846 282.622 756.322C282.538 756.77 282.258 757.19 281.838 757.386C281.417 757.582 280.913 757.554 280.521 757.33C280.353 757.218 279.877 757.022 279.429 757.218C279.177 757.358 278.925 757.694 278.813 758.058C279.961 760.325 280.997 762.621 281.95 764.944C282.202 764.776 282.454 764.636 282.734 764.552C283.126 764.412 283.518 764.356 283.91 764.356C284.162 764.328 284.442 764.356 284.694 764.412ZM280.409 754.362C280.829 753.662 281.417 753.075 282.146 752.739C282.454 752.599 282.79 752.487 283.098 752.431C282.314 750.667 281.473 748.903 280.549 747.168C280.101 746.3 279.625 745.432 279.149 744.564C278.841 744.424 278.337 744.312 277.861 744.592C277.468 744.816 277.16 745.376 277.132 745.908C277.104 746.384 276.852 746.804 276.432 747.028C276.04 747.252 275.536 747.28 275.116 747.084C274.892 746.972 274.332 746.776 273.771 747.084C273.463 747.252 273.239 747.644 273.127 748.092C274.64 750.443 276.04 752.851 277.356 755.258C277.608 755.034 277.889 754.838 278.197 754.698C278.701 754.446 279.261 754.334 279.821 754.334C280.045 754.334 280.213 754.334 280.409 754.362ZM274.724 744.144C275.088 743.333 275.676 742.633 276.432 742.185C276.768 741.989 277.104 741.849 277.468 741.765C275.62 738.797 273.575 735.914 271.363 733.171C270.999 733.115 270.467 733.115 270.047 733.507C269.626 733.87 269.402 734.514 269.486 735.13C269.542 735.606 269.374 736.054 269.01 736.362C268.646 736.67 268.17 736.782 267.722 736.67C267.442 736.586 266.77 736.474 266.21 736.95C265.845 737.258 265.677 737.846 265.677 738.35C267.722 740.617 269.626 742.997 271.363 745.488C271.643 745.152 271.951 744.9 272.315 744.676C272.931 744.312 273.631 744.116 274.36 744.116C274.528 744.116 274.612 744.144 274.724 744.144ZM268.198 731.407C268.534 731.127 268.898 730.875 269.29 730.707C266.994 728.076 264.501 725.528 261.84 723.121C261.392 723.093 260.776 723.177 260.328 723.708C259.908 724.184 259.768 724.968 259.964 725.668C260.076 726.116 259.964 726.592 259.684 726.956C259.376 727.32 258.928 727.488 258.451 727.432C258.143 727.404 257.331 727.376 256.771 728.02C256.407 728.412 256.323 729.083 256.379 729.643C258.928 731.631 261.28 733.758 263.493 735.998C263.717 735.578 264.025 735.186 264.389 734.85C265.061 734.262 265.901 733.926 266.798 733.815C266.994 732.863 267.498 732.023 268.198 731.407ZM258.199 721.889C258.536 721.497 258.9 721.189 259.348 720.937C256.883 718.838 254.25 716.85 251.506 714.974C250.777 714.974 250.133 715.282 249.769 715.786C249.349 716.374 249.265 717.242 249.545 717.998C249.713 718.446 249.657 718.922 249.377 719.285C249.097 719.677 248.621 719.901 248.201 719.873C247.837 719.873 246.912 719.929 246.38 720.685C245.988 721.245 245.96 722.029 246.156 722.673C248.845 724.24 251.422 725.892 253.83 727.656C253.998 727.124 254.278 726.62 254.671 726.144C255.315 725.416 256.155 724.912 257.135 724.688C257.135 723.681 257.527 722.673 258.199 721.889ZM247.501 714.162C247.809 713.743 248.201 713.351 248.621 713.071C245.708 711.195 242.627 709.431 239.435 707.78C238.594 707.892 237.922 708.34 237.586 709.012C237.166 709.823 237.334 710.859 237.698 711.503C237.922 711.923 237.922 712.399 237.726 712.819C237.502 713.239 237.11 713.519 236.662 713.575C235.822 713.687 235.093 714.134 234.757 714.806C234.421 715.478 234.505 716.346 234.785 717.018C237.754 718.306 240.611 719.677 243.3 721.133C243.412 720.433 243.664 719.733 244.112 719.117C244.728 718.278 245.596 717.662 246.604 717.354C246.548 716.178 246.856 715.058 247.501 714.162ZM235.093 707.724C235.401 707.136 235.794 706.632 236.298 706.212C233.105 704.672 229.828 703.273 226.383 701.957C225.431 702.181 224.731 702.797 224.451 703.581C224.171 704.392 224.367 705.456 224.927 706.24C225.207 706.604 225.291 707.108 225.123 707.528C224.983 707.976 224.619 708.312 224.171 708.424C223.75 708.536 222.686 708.928 222.322 710.019C222.042 710.831 222.322 711.783 222.77 712.483C225.879 713.491 228.876 714.582 231.733 715.73C231.733 715.002 231.901 714.219 232.265 713.519C232.769 712.511 233.637 711.727 234.673 711.251C234.393 710.047 234.561 708.788 235.093 707.724ZM221.818 702.657C222.07 701.929 222.49 701.257 223.05 700.725C220.362 699.773 217.589 698.878 214.732 698.038C214.088 697.842 213.444 697.646 212.772 697.478C211.791 697.814 211.091 698.486 210.867 699.354C210.643 700.249 210.923 701.341 211.623 702.125C211.931 702.489 212.043 702.965 211.931 703.413C211.819 703.861 211.483 704.224 211.035 704.392C210.083 704.728 209.439 705.4 209.215 706.24C208.991 707.136 209.383 708.2 209.943 708.9C213.22 709.711 216.413 710.551 219.465 711.475C219.353 710.719 219.409 709.907 219.689 709.123C220.081 708.004 220.866 707.052 221.902 706.408C221.426 705.176 221.398 703.833 221.818 702.657ZM208.15 698.654C208.374 697.842 208.767 697.114 209.327 696.47C208.57 696.246 207.814 696.022 207.058 695.826C204.649 695.126 202.241 694.455 199.888 693.755C198.796 694.119 198.04 694.874 197.788 695.826C197.536 696.806 197.872 698.038 198.6 698.878C198.908 699.214 199.02 699.689 198.908 700.165C198.796 700.613 198.46 700.977 198.012 701.145C196.975 701.509 196.247 702.265 195.995 703.189C195.743 704.197 196.191 705.344 196.779 706.1C197.676 706.268 198.572 706.464 199.496 706.632C201.877 707.08 204.201 707.584 206.442 708.088C206.246 707.276 206.218 706.408 206.442 705.54C206.75 704.336 207.506 703.301 208.514 702.545C207.982 701.313 207.842 699.913 208.15 698.654ZM195.099 695.126C195.323 694.231 195.799 693.419 196.443 692.719C193.11 691.711 189.834 690.731 186.641 689.667C185.38 689.919 184.4 690.647 183.98 691.683C183.532 692.747 183.7 694.175 184.4 695.21C184.652 695.602 184.708 696.078 184.512 696.526C184.344 696.946 183.952 697.254 183.504 697.366C182.272 697.618 181.347 698.346 180.927 699.354C180.479 700.417 180.787 701.761 181.319 702.685C185.184 703.609 189.189 704.504 193.391 705.372C193.138 704.448 193.082 703.441 193.334 702.461C193.671 701.173 194.483 700.053 195.575 699.269C194.931 697.954 194.735 696.47 195.099 695.126ZM181.375 690.619C181.739 689.779 182.272 689.052 182.944 688.464C179.359 687.232 175.858 685.916 172.469 684.489C171.153 684.684 170.032 685.496 169.444 686.7C168.856 687.876 168.94 689.276 169.584 690.451C169.808 690.843 169.836 691.347 169.64 691.767C169.444 692.187 169.052 692.467 168.576 692.551C167.372 692.719 166.167 693.643 165.607 694.846C165.019 696.078 165.355 697.45 165.943 698.43C169.78 699.689 173.813 700.837 178.042 701.929C177.79 700.697 177.874 699.409 178.323 698.318C178.883 696.974 179.947 695.882 181.291 695.21C180.759 693.671 180.787 692.047 181.375 690.619ZM166.924 685.468C167.4 684.461 168.128 683.593 169.024 682.949C165.691 681.437 162.498 679.758 159.418 677.938C157.989 677.966 156.645 678.694 155.833 679.897C154.992 681.129 154.824 682.697 155.385 684.097C155.553 684.517 155.497 685.02 155.245 685.412C154.992 685.804 154.544 686.028 154.096 686.028C154.096 686.028 154.096 686.028 154.068 686.028C152.696 686.028 151.211 686.868 150.371 688.1C149.503 689.36 149.643 690.899 150.091 692.075C154.04 694.007 158.185 695.714 162.582 697.254C162.386 695.994 162.554 694.706 163.087 693.587C163.815 692.103 165.075 690.899 166.503 690.255C166.055 688.66 166.195 686.952 166.924 685.468ZM153.508 678.33C154.208 677.294 155.161 676.482 156.225 675.922C153.592 674.187 151.071 672.311 148.663 670.211C147.066 669.82 145.386 670.267 144.154 671.387C142.949 672.507 142.389 674.131 142.641 675.782C142.725 676.23 142.557 676.706 142.221 677.014C141.885 677.322 141.409 677.462 140.961 677.35C139.476 677.014 137.684 677.518 136.48 678.638C135.191 679.841 134.995 681.633 135.247 683.033C138.944 685.776 142.837 688.212 146.926 690.395C146.87 688.968 147.262 687.596 148.047 686.448C149.055 684.964 150.651 683.845 152.332 683.397C152.08 681.661 152.472 679.841 153.508 678.33ZM142.249 669.372C143.229 668.448 144.434 667.832 145.694 667.524C144.294 666.18 142.949 664.753 141.633 663.241C141.045 662.569 140.457 661.869 139.897 661.169C138.216 660.217 136.172 660.217 134.519 661.169C132.979 662.065 131.97 663.689 131.83 665.48C131.802 665.956 131.522 666.348 131.13 666.6C130.738 666.824 130.234 666.852 129.814 666.656C128.33 665.928 126.285 666.04 124.717 666.936C123.092 667.86 122.448 669.624 122.336 671.163C123.82 672.899 125.389 674.579 127.069 676.174C128.834 677.854 130.598 679.422 132.447 680.905C132.671 679.254 133.427 677.742 134.603 676.65C136.032 675.334 137.964 674.551 139.841 674.495C139.953 672.535 140.793 670.715 142.249 669.372ZM129.338 663.549C129.926 661.533 131.27 659.798 133.091 658.734C134.379 657.978 135.807 657.642 137.264 657.642C135.247 654.703 133.455 651.623 131.886 648.432C130.374 647.34 128.386 647.088 126.593 647.788C124.885 648.46 123.624 649.944 123.204 651.763C123.092 652.211 122.784 652.603 122.364 652.771C121.916 652.939 121.44 652.883 121.048 652.631C119.647 651.679 117.547 651.483 115.838 652.155C113.85 652.939 112.926 654.927 112.673 656.606C114.774 660.721 117.211 664.697 120.039 668.392C120.684 666.74 121.776 665.368 123.26 664.529C124.577 663.773 126.089 663.381 127.573 663.381C128.217 663.381 128.778 663.437 129.338 663.549ZM121.104 649.496C122 647.536 123.596 645.996 125.613 645.185C127.125 644.597 128.722 644.457 130.262 644.737C128.974 641.685 127.909 638.55 127.013 635.359C125.725 633.903 123.764 633.231 121.86 633.539C120.011 633.847 118.443 635.079 117.659 636.814C117.463 637.234 117.071 637.542 116.622 637.626C116.174 637.71 115.698 637.542 115.362 637.206C114.158 635.946 112.085 635.331 110.265 635.638C108.192 636.002 106.82 637.71 106.204 639.278C107.436 643.925 109.032 648.572 111.049 653.023C111.917 651.455 113.262 650.224 114.886 649.58C115.922 649.188 117.015 648.992 118.107 648.992C119.115 648.964 120.151 649.132 121.104 649.496ZM115.978 634.127C117.267 632.363 119.199 631.159 121.384 630.795C122.952 630.544 124.549 630.711 125.977 631.299C125.165 627.744 124.605 624.133 124.24 620.522C123.26 618.758 121.412 617.638 119.395 617.638H119.367C117.519 617.638 115.81 618.562 114.746 620.102C114.494 620.494 114.046 620.718 113.598 620.718C113.122 620.718 112.701 620.494 112.449 620.102C111.497 618.674 109.621 617.722 107.772 617.694C105.784 617.722 104.131 619.066 103.263 620.494C103.515 625.393 104.187 630.432 105.308 635.471C106.512 634.099 108.08 633.175 109.817 632.895C110.293 632.811 110.769 632.783 111.245 632.783C112.897 632.727 114.606 633.231 115.978 634.127ZM119.423 614.839C121.048 614.839 122.616 615.343 123.932 616.182C123.736 612.095 123.792 608.036 124.128 604.089C123.316 602.437 121.748 601.317 119.899 601.122C118.163 600.954 116.426 601.653 115.278 602.997C114.97 603.361 114.522 603.557 114.074 603.501C113.598 603.445 113.206 603.165 112.982 602.773C112.225 601.346 110.517 600.254 108.78 600.086C106.792 599.89 105.195 601.066 104.243 602.325C103.459 606.72 103.067 611.479 103.095 616.462C104.467 615.427 106.092 614.895 107.772 614.839C109.929 614.867 112.057 615.707 113.598 617.134C115.138 615.651 117.211 614.811 119.367 614.811C119.395 614.839 119.395 614.839 119.423 614.839ZM48.8448 596.027C48.0606 595.999 47.4724 595.355 47.5004 594.571C47.5284 593.787 48.0886 593.227 48.9568 593.227C51.6455 593.311 54.1662 591.939 55.5105 589.616C56.7429 587.516 56.8269 584.941 55.7906 582.729C55.5946 582.309 55.6226 581.805 55.8466 581.414C56.0707 581.022 56.4908 580.742 56.9669 580.714C59.2355 580.574 61.5321 579.09 62.7644 576.962C64.2208 574.471 63.5206 571.532 62.3723 569.628C61.9802 568.956 62.1763 568.116 62.8484 567.696C63.5206 567.304 64.3608 567.5 64.7809 568.172C66.7695 571.476 66.9375 575.395 65.2011 578.362C63.8287 580.714 61.4761 582.477 58.9554 583.177C59.6836 585.781 59.3195 588.608 57.9472 590.988C56.1267 594.095 52.7938 595.971 49.2089 595.971C49.0688 596.055 48.9568 596.027 48.8448 596.027ZM121.468 589C120.768 588.692 120.431 587.88 120.74 587.152C121.804 584.689 121.412 581.833 119.731 579.734C118.219 577.83 115.866 576.85 113.402 577.018C112.926 577.102 112.477 576.85 112.197 576.487C111.917 576.123 111.833 575.647 111.973 575.199C112.673 573.015 112.113 570.356 110.573 568.424C108.78 566.157 105.784 565.765 103.599 566.157C102.843 566.297 102.115 565.793 101.975 565.009C101.835 564.225 102.339 563.525 103.123 563.385C106.932 562.713 110.629 563.973 112.785 566.661C114.494 568.788 115.306 571.616 115.026 574.219C117.743 574.499 120.235 575.815 121.944 577.97C124.24 580.882 124.773 584.801 123.344 588.216C123.12 588.748 122.588 589.056 122.056 589.056C121.832 589.112 121.664 589.084 121.468 589ZM29.1837 580.546C28.4555 580.266 28.0914 579.454 28.3715 578.726C28.6515 577.998 29.4637 577.634 30.1919 577.914C32.7126 578.866 35.5133 578.39 37.5578 576.655C39.4063 575.087 40.3306 572.679 40.0505 570.244C39.9945 569.768 40.1905 569.32 40.5266 569.012C40.8907 568.704 41.3668 568.592 41.815 568.732C43.9995 569.348 46.6322 568.704 48.5087 567.108C50.6933 565.233 51.0014 562.237 50.5252 560.082C50.3572 559.326 50.8613 558.57 51.5895 558.43C52.3457 558.29 53.1019 558.766 53.2419 559.494C54.0541 563.273 52.9339 566.996 50.3012 569.236C48.2286 571 45.4279 571.923 42.8512 571.756C42.6832 574.471 41.4229 577.018 39.3503 578.782C37.4738 580.378 35.1492 581.218 32.7966 581.218C31.5923 581.218 30.36 580.994 29.1837 580.546ZM137.712 570.58C136.928 570.524 136.368 569.852 136.424 569.096C136.62 566.437 135.331 563.861 133.063 562.433C131.018 561.146 128.47 560.95 126.229 561.929C125.809 562.125 125.305 562.069 124.913 561.818C124.521 561.566 124.268 561.146 124.268 560.67C124.212 558.402 122.812 556.079 120.74 554.763C118.303 553.223 115.362 553.811 113.43 554.903C112.757 555.267 111.917 555.043 111.525 554.371C111.133 553.699 111.385 552.831 112.057 552.467C115.446 550.592 119.339 550.564 122.224 552.411C124.521 553.867 126.201 556.247 126.789 558.794C129.422 558.178 132.223 558.598 134.547 560.082C137.684 562.069 139.448 565.597 139.196 569.292C139.14 570.02 138.524 570.608 137.796 570.608C137.768 570.58 137.74 570.58 137.712 570.58ZM15.9362 557.086C15.4041 556.527 15.4041 555.631 15.9642 555.099C16.5244 554.567 17.4206 554.567 17.9527 555.127C19.8012 557.031 22.5179 557.786 25.0946 557.086C27.3912 556.443 29.2397 554.679 30.0239 552.383C30.1639 551.936 30.528 551.6 30.9761 551.488C31.4242 551.376 31.9004 551.46 32.2645 551.768C33.9449 553.195 36.6336 553.727 38.9582 553.111C41.7029 552.355 43.2153 549.78 43.7195 547.652C43.8875 546.897 44.6437 546.421 45.3999 546.589C46.1561 546.757 46.6322 547.512 46.4642 548.268C45.5959 551.992 43.0193 554.903 39.7424 555.799C37.1377 556.527 34.281 556.163 32.0124 554.931C30.7241 557.282 28.5395 559.046 25.9068 559.774C25.0106 560.026 24.1143 560.138 23.2181 560.138C20.4734 560.138 17.8407 559.046 15.9362 557.086ZM144.714 546.309C143.818 543.761 141.605 541.942 138.944 541.522C136.564 541.13 134.127 541.998 132.447 543.789C132.139 544.125 131.662 544.293 131.214 544.209C130.766 544.125 130.374 543.845 130.15 543.425C129.198 541.354 126.985 539.786 124.549 539.394C121.72 538.918 119.227 540.682 117.855 542.445C117.379 543.061 116.51 543.173 115.894 542.697C115.278 542.222 115.166 541.354 115.642 540.738C117.995 537.658 121.58 536.091 124.997 536.623C127.685 537.043 130.178 538.582 131.746 540.682C133.931 539.058 136.676 538.33 139.392 538.778C143.061 539.366 146.114 541.886 147.346 545.385C147.599 546.113 147.234 546.925 146.506 547.177C146.338 547.233 146.198 547.26 146.03 547.26C145.442 547.26 144.91 546.897 144.714 546.309ZM35.5133 538.554C32.8246 538.386 30.2479 537.127 28.5115 535.223C26.523 537.015 23.8903 537.966 21.2016 537.798C17.5326 537.574 14.3118 535.363 12.7714 532.032C12.4353 531.332 12.7434 530.492 13.4436 530.184C14.1437 529.848 14.984 530.156 15.292 530.856C16.4123 533.263 18.7369 534.831 21.3696 534.999C23.7783 535.111 26.0468 534.103 27.5312 532.2C27.8113 531.836 28.3154 531.612 28.7355 531.668C29.2117 531.696 29.6318 531.948 29.8558 532.368C30.9761 534.271 33.3287 535.643 35.7094 535.783C38.5381 535.951 40.8067 534.047 41.955 532.2C42.3751 531.556 43.2433 531.36 43.8875 531.752C44.5317 532.172 44.7277 533.039 44.3356 533.683C42.4031 536.763 39.2663 538.61 36.0455 538.61C35.8494 538.582 35.6814 538.554 35.5133 538.554ZM116.146 528.392C115.418 528.14 115.026 527.357 115.25 526.629C116.454 522.989 119.311 520.358 122.672 519.742C125.333 519.266 128.161 519.882 130.29 521.338C131.802 519.126 134.127 517.559 136.816 517.083C140.429 516.439 144.126 517.838 146.422 520.694C146.898 521.31 146.814 522.178 146.198 522.654C145.582 523.129 144.714 523.045 144.238 522.43C142.585 520.358 139.925 519.378 137.32 519.826C134.967 520.246 132.979 521.814 131.998 524.025C131.802 524.445 131.41 524.753 130.962 524.837C130.514 524.921 130.038 524.781 129.702 524.445C128.133 522.821 125.585 522.066 123.176 522.486C120.375 522.989 118.639 525.397 117.939 527.496C117.743 528.084 117.211 528.448 116.622 528.448C116.454 528.448 116.314 528.42 116.146 528.392ZM37.4178 521.282C35.0932 519.966 33.3007 517.727 32.5445 515.263C29.9959 516.019 27.2232 515.739 24.8705 514.423C21.6777 512.632 19.7172 509.272 19.7732 505.605C19.7732 504.821 20.3334 504.317 21.2016 504.233C21.9858 504.233 22.6019 504.877 22.5739 505.661C22.5459 508.292 23.9463 510.728 26.2429 512.016C28.3154 513.163 30.8361 513.219 32.9927 512.128C33.4128 511.904 33.8889 511.932 34.309 512.156C34.7011 512.38 34.9812 512.799 35.0092 513.247C35.2052 515.431 36.7176 517.698 38.7902 518.846C41.2548 520.218 44.1116 519.462 45.96 518.314C46.6042 517.922 47.4724 518.09 47.8925 518.762C48.3127 519.406 48.1166 520.274 47.4444 520.694C45.652 521.842 43.6634 522.402 41.7309 522.402C40.2185 522.374 38.7342 522.01 37.4178 521.282ZM111.861 511.428C111.105 511.316 110.545 510.616 110.657 509.86C111.133 506.109 113.402 503.001 116.566 501.798C119.059 500.818 121.916 500.902 124.268 501.882C125.305 499.446 127.293 497.515 129.786 496.535C133.175 495.219 137.012 495.863 139.785 498.214C140.373 498.718 140.457 499.586 139.953 500.174C139.448 500.762 138.552 500.846 137.992 500.342C136.004 498.662 133.231 498.186 130.794 499.138C128.582 499.978 126.957 501.882 126.425 504.205C126.313 504.653 126.005 505.017 125.557 505.185C125.109 505.353 124.633 505.297 124.24 505.017C122.448 503.785 119.759 503.505 117.547 504.373C114.914 505.381 113.682 508.04 113.43 510.196C113.346 510.896 112.729 511.428 112.029 511.428C112.001 511.456 111.945 511.456 111.861 511.428ZM46.1561 506.753C44.3636 504.737 43.4114 502.022 43.5234 499.446C40.8627 499.334 38.314 498.159 36.5216 496.115C34.0849 493.371 33.3287 489.536 34.5891 486.093C34.8411 485.365 35.6533 485.001 36.3815 485.253C37.1097 485.505 37.4738 486.317 37.2218 487.045C36.3255 489.536 36.8577 492.308 38.6221 494.267C40.2185 496.059 42.5992 496.927 44.9798 496.591C45.4559 496.535 45.904 496.703 46.2121 497.039C46.5202 497.375 46.6322 497.851 46.5202 498.326C45.988 500.454 46.6882 503.113 48.2846 504.877C50.1611 507.005 53.1299 507.229 55.2585 506.725C56.0147 506.557 56.7709 507.033 56.9389 507.761C57.1069 508.516 56.6588 509.272 55.9026 509.44C55.0344 509.636 54.1662 509.748 53.298 509.748C50.4692 509.748 47.8645 508.684 46.1561 506.753ZM67.4416 502.218C63.6327 501.798 60.4678 499.558 59.2075 496.395C58.1992 493.903 58.2272 491.02 59.1795 488.64C56.6868 487.633 54.6983 485.673 53.6901 483.154C52.3177 479.766 52.9058 475.875 55.2305 473.048C55.7346 472.46 56.6028 472.376 57.191 472.852C57.7791 473.356 57.8631 474.223 57.387 474.811C55.7066 476.855 55.2865 479.654 56.2667 482.09C57.163 484.301 59.0955 485.925 61.4761 486.429C61.9242 486.513 62.3163 486.849 62.4843 487.269C62.6524 487.689 62.5964 488.193 62.3443 488.584C61.084 490.432 60.8879 493.092 61.7842 495.359C62.8484 497.991 65.5652 499.194 67.7497 499.446C68.5059 499.53 69.0661 500.23 68.982 500.986C68.898 501.686 68.2819 502.218 67.5817 502.218C67.5537 502.218 67.4977 502.218 67.4416 502.218ZM104.243 495.079C103.459 495.023 102.899 494.351 102.927 493.595C103.179 489.816 105.223 486.597 108.276 485.197C110.685 484.077 113.542 483.965 115.922 484.805C116.819 482.314 118.639 480.27 121.076 479.15C124.38 477.639 128.217 478.031 131.13 480.214C131.746 480.69 131.886 481.558 131.41 482.174C130.962 482.79 130.066 482.93 129.45 482.454C127.377 480.914 124.605 480.606 122.224 481.698C120.095 482.678 118.583 484.665 118.191 487.017C118.107 487.465 117.827 487.857 117.407 488.053C116.987 488.249 116.51 488.221 116.09 487.969C114.242 486.849 111.553 486.737 109.397 487.745C106.848 488.92 105.812 491.636 105.672 493.791C105.616 494.519 104.999 495.107 104.271 495.107C104.299 495.079 104.271 495.079 104.243 495.079ZM94.4407 478.926C94.4127 475.203 96.2051 471.872 99.1179 470.276C101.415 469.016 104.159 468.68 106.596 469.324C107.296 466.833 108.948 464.677 111.245 463.39C114.382 461.654 118.191 461.766 121.216 463.698C121.86 464.117 122.056 464.985 121.636 465.629C121.216 466.273 120.347 466.469 119.703 466.049C117.547 464.677 114.83 464.593 112.589 465.825C110.573 466.945 109.257 468.988 109.032 471.312C109.004 471.788 108.724 472.18 108.304 472.404C107.912 472.628 107.408 472.628 106.988 472.432C105.055 471.452 102.479 471.564 100.434 472.684C98.0256 473.999 97.1854 476.743 97.2134 478.87C97.2134 479.654 96.5973 480.27 95.813 480.27C95.0849 480.298 94.4687 479.682 94.4407 478.926ZM84.8902 463.614C84.8622 460.17 86.7107 456.979 89.7355 455.299C91.92 454.095 94.4967 453.816 96.8773 454.487C97.5775 452.024 99.2019 449.924 101.471 448.665C104.551 446.957 108.332 447.069 111.329 448.973C111.973 449.392 112.169 450.26 111.749 450.904C111.329 451.548 110.461 451.744 109.817 451.324C107.688 449.98 105.027 449.896 102.815 451.1C100.826 452.192 99.538 454.207 99.314 456.503C99.2859 456.979 99.0059 457.371 98.5858 457.595C98.1937 457.819 97.6895 457.819 97.2694 457.623C95.3089 456.615 92.9843 456.671 91.0518 457.735C88.9232 458.91 87.6349 461.15 87.6349 463.558C87.6349 464.341 87.0188 464.957 86.2346 464.957C85.5344 465.013 84.8902 464.397 84.8902 463.614ZM75.2837 448.273C75.2557 444.885 77.0762 441.778 80.0449 440.126C82.1735 438.951 84.6941 438.671 86.9907 439.314C87.6629 436.935 89.2593 434.891 91.4719 433.66C94.4967 431.98 98.1937 432.092 101.106 433.968C101.751 434.387 101.947 435.255 101.527 435.899C101.106 436.543 100.238 436.739 99.594 436.319C97.5495 435.003 94.9448 434.919 92.8163 436.095C90.8838 437.159 89.6234 439.118 89.4274 441.33C89.3994 441.806 89.1193 442.198 88.6992 442.422C88.3071 442.646 87.803 442.674 87.3829 442.45C85.4784 441.498 83.2098 441.526 81.3613 442.562C79.2887 443.71 78.0284 445.865 78.0564 448.217C78.0564 449.001 77.4403 449.616 76.6561 449.616C75.8999 449.672 75.2837 449.057 75.2837 448.273ZM66.9655 433.548C66.1813 433.492 65.6212 432.82 65.6772 432.036C65.9293 428.733 67.9738 425.821 70.9986 424.449C73.1831 423.47 75.6478 423.386 77.8604 424.226C78.7286 421.958 80.465 420.082 82.7056 419.075C85.8144 417.675 89.4274 418.095 92.1161 420.166C92.7322 420.642 92.8443 421.51 92.3681 422.126C91.892 422.742 91.0238 422.854 90.4076 422.378C88.5031 420.95 85.9825 420.642 83.8259 421.622C81.8654 422.49 80.493 424.31 80.1009 426.437C80.0169 426.885 79.7088 427.277 79.2887 427.473C78.8686 427.669 78.3645 427.641 77.9724 427.389C76.2079 426.297 73.9954 426.157 72.1189 426.997C70.0183 427.921 68.618 429.936 68.4499 432.232C68.3939 432.96 67.7777 433.52 67.0495 433.52C67.0215 433.548 66.9935 433.548 66.9655 433.548ZM57.9472 417.255C57.191 417.171 56.6028 416.499 56.6868 415.715C56.9949 412.44 59.0675 409.641 62.0923 408.353C64.2488 407.429 66.6574 407.429 68.814 408.241C69.7102 406.029 71.4467 404.238 73.6873 403.286C76.7681 401.97 80.325 402.474 82.9577 404.546C83.5739 405.021 83.6579 405.917 83.1818 406.505C82.7056 407.121 81.8094 407.205 81.2212 406.729C79.4008 405.273 76.9361 404.937 74.8076 405.861C72.8751 406.673 71.4747 408.409 71.0546 410.508C70.9706 410.956 70.6625 411.348 70.2424 411.516C69.8223 411.712 69.3181 411.656 68.926 411.404C67.2176 410.284 65.089 410.116 63.2125 410.9C61.14 411.768 59.7116 413.7 59.5156 415.939C59.4316 416.667 58.8434 417.199 58.1152 417.199C58.0312 417.255 58.0032 417.255 57.9472 417.255ZM50.3852 400.906C49.629 400.794 49.0969 400.094 49.2089 399.311C49.657 396.091 51.8416 393.404 54.8944 392.284C57.0789 391.472 59.4596 391.584 61.5601 392.508C62.5684 390.352 64.3608 388.673 66.6014 387.861C69.7102 386.713 73.2112 387.357 75.7038 389.541C76.292 390.044 76.348 390.94 75.8438 391.528C75.3397 392.116 74.4435 392.172 73.8553 391.668C72.1189 390.156 69.7102 389.709 67.5537 390.492C65.6212 391.22 64.1368 392.844 63.6607 394.888C63.5486 395.335 63.2125 395.699 62.7924 395.867C62.3723 396.035 61.8682 395.951 61.5041 395.699C59.8797 394.524 57.7791 394.244 55.8746 394.944C53.8021 395.727 52.3177 397.547 51.9816 399.759C51.8696 400.458 51.2814 400.962 50.6092 400.962C50.5252 400.934 50.4692 400.934 50.3852 400.906ZM44.4196 383.662C43.6634 383.466 43.2153 382.71 43.4114 381.954C44.2236 378.875 46.6602 376.467 49.769 375.739C51.9816 375.208 54.3062 375.543 56.2107 376.691C57.443 374.732 59.3755 373.304 61.6721 372.744C64.865 371.96 68.1978 372.996 70.3824 375.431C70.9145 375.991 70.8585 376.887 70.2984 377.419C69.7382 377.951 68.842 377.895 68.3099 377.335C66.7975 375.683 64.5009 374.984 62.3443 375.487C60.3838 375.963 58.7594 377.391 58.0592 379.323C57.8912 379.771 57.5271 380.079 57.0789 380.191C56.6308 380.302 56.1547 380.191 55.7906 379.855C54.3342 378.539 52.3177 378.007 50.4132 378.483C48.3127 378.987 46.6602 380.61 46.1001 382.71C45.932 383.326 45.3719 383.746 44.7557 383.746C44.6717 383.718 44.5597 383.718 44.4196 383.662ZM40.2465 367.425C39.5184 367.173 39.1263 366.361 39.3783 365.633C40.4146 362.638 42.9913 360.455 46.1281 359.951C48.3407 359.587 50.6092 360.091 52.4297 361.35C53.7741 359.503 55.8186 358.243 58.0872 357.851C61.252 357.319 64.5009 358.579 66.4894 361.126C66.9655 361.742 66.8535 362.61 66.2373 363.086C65.6212 363.562 64.7529 363.45 64.2768 362.834C62.9045 361.098 60.7199 360.231 58.5353 360.595C56.5748 360.93 54.8944 362.218 54.0541 364.038C53.8581 364.458 53.466 364.766 53.0179 364.822C52.5698 364.906 52.0936 364.738 51.7575 364.402C50.4132 363.002 48.4807 362.358 46.5762 362.666C44.4756 363.002 42.7392 364.486 42.011 366.501C41.815 367.089 41.2828 367.453 40.6947 367.453C40.5546 367.509 40.4146 367.481 40.2465 367.425ZM37.4738 350.769C36.7736 350.461 36.4376 349.649 36.7456 348.921C38.006 346.037 40.6947 344.106 43.8315 343.826C46.0441 343.63 48.2286 344.302 49.9091 345.674C51.3935 343.966 53.466 342.874 55.7626 342.678C58.9274 342.398 62.0362 343.882 63.8007 346.541C64.2208 347.185 64.0528 348.053 63.4086 348.473C62.7644 348.893 61.8962 348.725 61.4761 348.081C60.2718 346.261 58.1992 345.254 56.0147 345.45C54.0541 345.618 52.3177 346.765 51.3374 348.501C51.1134 348.893 50.6933 349.173 50.2452 349.201C49.797 349.229 49.3209 349.061 49.0408 348.697C47.8365 347.213 45.988 346.457 44.0835 346.597C41.983 346.793 40.1625 348.109 39.3223 350.013C39.0982 350.545 38.5661 350.853 38.034 350.853C37.8379 350.909 37.6419 350.853 37.4738 350.769ZM35.9614 333.804C35.2893 333.44 35.0372 332.572 35.4013 331.9C36.8857 329.185 39.7424 327.477 42.8512 327.477C45.0638 327.477 47.1363 328.345 48.7048 329.829C50.3012 328.261 52.4577 327.365 54.7263 327.365C57.8912 327.365 60.8319 329.101 62.3443 331.9C62.7084 332.572 62.4563 333.44 61.7842 333.804C61.112 334.168 60.2438 333.916 59.8797 333.244C58.8434 331.34 56.8829 330.165 54.7263 330.165C52.7938 330.165 50.9733 331.145 49.8531 332.768C49.601 333.16 49.1529 333.384 48.7048 333.384C48.2286 333.384 47.8085 333.16 47.5565 332.768C46.4922 331.201 44.7557 330.277 42.8512 330.277C40.7787 330.277 38.8742 331.424 37.8659 333.244C37.6139 333.72 37.1377 333.972 36.6336 333.972C36.3815 333.972 36.1575 333.916 35.9614 333.804ZM59.4316 317.819C58.6193 315.86 56.7989 314.516 54.6983 314.292C52.7938 314.096 50.9173 314.88 49.685 316.364C49.3769 316.727 48.9288 316.923 48.4807 316.867C48.0046 316.811 47.6125 316.559 47.3884 316.14C46.5202 314.516 44.8958 313.424 43.0473 313.228C41.0308 313.004 39.0422 313.928 37.8939 315.636C37.4458 316.28 36.5776 316.448 35.9334 316C35.2893 315.552 35.1212 314.684 35.5693 314.04C37.3058 311.521 40.2746 310.121 43.3274 310.429C45.4839 310.653 47.4444 311.688 48.8168 313.312C50.5532 311.94 52.7658 311.297 54.9784 311.521C58.1152 311.856 60.8039 313.844 62.0082 316.755C62.3163 317.455 61.9802 318.295 61.252 318.575C61.084 318.659 60.8879 318.687 60.7199 318.687C60.1878 318.687 59.6556 318.379 59.4316 317.819ZM60.2158 303.43C59.6276 301.443 57.9752 299.959 55.9586 299.539C54.1102 299.175 52.2337 299.735 50.8893 301.051C50.5532 301.387 50.1051 301.527 49.629 301.415C49.1809 301.331 48.7888 300.995 48.6207 300.575C47.9206 298.895 46.4642 297.691 44.6997 297.299C42.7392 296.879 40.7227 297.579 39.4343 299.119C38.9302 299.707 38.062 299.791 37.4458 299.287C36.8577 298.783 36.7736 297.915 37.2778 297.327C39.2383 295.004 42.2911 293.94 45.2599 294.584C47.3604 295.004 49.1529 296.236 50.3572 297.943C52.1777 296.796 54.4182 296.376 56.5468 296.824C59.5716 297.439 62.0362 299.679 62.9325 302.646C63.1565 303.374 62.7364 304.158 62.0082 304.382C61.8682 304.41 61.7282 304.438 61.5881 304.438C60.972 304.41 60.4118 304.018 60.2158 303.43ZM69.8503 301.191C67.5257 299.147 66.4894 296.18 67.1336 293.464C67.5817 291.533 68.786 289.881 70.5224 288.789C69.4862 287.026 69.1501 284.926 69.6262 282.882C70.2984 279.971 72.511 277.703 75.3677 276.892C76.1239 276.668 76.8801 277.116 77.1042 277.871C77.3002 278.627 76.8801 279.383 76.1239 279.607C74.2474 280.139 72.791 281.623 72.3709 283.526C71.9788 285.234 72.4549 287.026 73.6593 288.341C73.9673 288.677 74.1074 289.153 73.9954 289.601C73.8833 290.049 73.5752 290.413 73.1271 290.581C71.4187 291.253 70.2144 292.512 69.8503 294.08C69.4582 295.788 70.1864 297.747 71.6988 299.091C72.2869 299.595 72.3429 300.491 71.8108 301.079C71.5307 301.387 71.1386 301.555 70.7745 301.555C70.4664 301.555 70.1303 301.443 69.8503 301.191ZM91.836 300.743C88.8112 300.295 86.3466 298.419 85.3943 295.844C84.7222 293.996 84.8062 292.008 85.6464 290.161C83.8539 289.265 82.4256 287.697 81.7254 285.794C80.6891 283.05 81.2773 279.943 83.2098 277.731C83.7139 277.144 84.6101 277.088 85.1983 277.591C85.7864 278.095 85.8424 278.991 85.3383 279.579C84.078 281.007 83.7139 283.022 84.3861 284.814C84.9742 286.438 86.3746 287.641 88.055 288.061C88.5031 288.173 88.8672 288.509 89.0353 288.929C89.2033 289.377 89.1193 289.853 88.8672 290.217C87.803 291.673 87.5229 293.38 88.055 294.864C88.6432 296.46 90.3236 297.691 92.2841 297.971C93.0403 298.083 93.5725 298.783 93.4604 299.567C93.3484 300.267 92.7603 300.771 92.0881 300.771C91.9761 300.743 91.892 300.743 91.836 300.743ZM62.2603 288.789C61.6721 286.83 60.0757 285.374 58.0872 284.954C56.2947 284.59 54.4182 285.15 53.0739 286.438C52.7378 286.774 52.2617 286.914 51.8136 286.802C51.3654 286.718 50.9733 286.382 50.8053 285.962C50.1331 284.31 48.6767 283.106 46.9403 282.742C45.0078 282.35 43.0473 283.022 41.7589 284.534C41.2548 285.122 40.3866 285.206 39.7704 284.702C39.1823 284.198 39.0982 283.33 39.6024 282.714C41.5349 280.447 44.5597 279.383 47.4724 279.999C49.545 280.419 51.3094 281.623 52.5137 283.302C54.3062 282.154 56.4908 281.735 58.6193 282.182C61.6161 282.798 64.0248 285.01 64.921 287.921C65.145 288.649 64.7249 289.433 63.9967 289.657C63.8567 289.685 63.7167 289.713 63.5766 289.713C62.9885 289.769 62.4283 289.377 62.2603 288.789ZM102.283 286.382C100.518 285.486 99.2299 283.946 98.5578 282.015C96.5972 282.602 94.4967 282.434 92.6482 281.483C90.0155 280.167 88.3071 277.507 88.2231 274.54C88.1951 273.756 88.8112 273.112 89.5674 273.084C90.3796 273.056 90.9958 273.672 91.0238 274.428C91.0798 276.36 92.2001 278.095 93.9085 278.963C95.477 279.747 97.2974 279.691 98.8658 278.823C99.2579 278.599 99.7621 278.599 100.182 278.795C100.602 278.991 100.882 279.411 100.938 279.859C101.162 281.679 102.115 283.134 103.543 283.834C105.083 284.618 107.156 284.366 108.808 283.218C109.453 282.77 110.321 282.938 110.769 283.582C111.217 284.226 111.049 285.094 110.405 285.542C108.92 286.578 107.212 287.109 105.56 287.109C104.383 287.137 103.291 286.886 102.283 286.382ZM65.2011 274.568C64.6129 272.664 63.0445 271.237 61.112 270.845C59.3755 270.481 57.5271 271.013 56.2387 272.3C55.9026 272.636 55.4265 272.776 54.9784 272.664C54.5303 272.58 54.1382 272.245 53.9701 271.825C53.298 270.229 51.8976 269.053 50.1891 268.689C48.3127 268.297 46.3801 268.969 45.1478 270.425C44.6437 271.013 43.7475 271.097 43.1873 270.593C42.5992 270.089 42.5151 269.221 43.0193 268.633C44.9238 266.394 47.8925 265.358 50.7773 265.946C52.7938 266.366 54.5583 267.541 55.7066 269.193C57.471 268.101 59.6276 267.681 61.7001 268.129C64.6409 268.745 67.0215 270.901 67.9178 273.784C68.1418 274.512 67.7217 275.296 66.9935 275.52C66.8535 275.548 66.7135 275.576 66.6014 275.576C65.9293 275.576 65.3971 275.184 65.2011 274.568ZM90.6037 267.262C90.1556 266.618 90.3236 265.75 90.9398 265.302C91.5559 264.854 92.4522 265.022 92.9003 265.638C94.0206 267.206 95.8971 268.073 97.8016 267.849C99.538 267.653 101.05 266.59 101.863 265.022C102.087 264.602 102.479 264.322 102.955 264.266C103.431 264.21 103.879 264.406 104.187 264.742C105.364 266.114 106.932 266.814 108.528 266.646C110.237 266.45 111.833 265.106 112.589 263.258C112.869 262.531 113.682 262.195 114.41 262.475C115.138 262.754 115.474 263.566 115.194 264.294C114.046 267.15 111.637 269.109 108.864 269.417C106.904 269.641 104.971 269.053 103.347 267.793C102.031 269.333 100.182 270.369 98.1096 270.593C97.8016 270.621 97.4935 270.649 97.1854 270.649C94.5807 270.705 92.1161 269.417 90.6037 267.262ZM68.4499 262.894C68.1978 260.963 66.9095 259.339 65.117 258.667C63.4926 258.051 61.6441 258.275 60.1878 259.283C59.8237 259.563 59.3195 259.619 58.8714 259.451C58.4233 259.283 58.1152 258.919 58.0032 258.471C57.5831 256.68 56.4908 255.336 55.0064 254.776C53.382 254.16 51.3655 254.608 49.825 255.924C49.2369 256.428 48.3407 256.372 47.8365 255.784C47.3324 255.196 47.3884 254.3 47.9766 253.796C50.3012 251.809 53.382 251.165 55.9867 252.173C57.8351 252.872 59.2915 254.3 60.1317 256.148C62.0082 255.364 64.1368 255.336 66.0693 256.064C68.842 257.128 70.8025 259.591 71.1946 262.53C71.3067 263.286 70.7465 264.014 69.9903 264.098C69.9343 264.098 69.8783 264.098 69.7943 264.098C69.1501 264.126 68.5619 263.622 68.4499 262.894ZM89.0073 261.635C88.2511 261.467 87.7749 260.739 87.915 259.983C88.083 259.227 88.8392 258.751 89.5674 258.891C91.4719 259.283 93.4324 258.639 94.6928 257.156C95.8411 255.812 96.2332 253.992 95.757 252.285C95.645 251.837 95.729 251.361 96.0371 250.997C96.3452 250.633 96.7933 250.465 97.2694 250.521C99.0899 250.717 100.742 250.157 101.779 248.925C102.899 247.61 103.179 245.51 102.451 243.634C102.171 242.907 102.535 242.095 103.263 241.815C103.991 241.535 104.803 241.899 105.083 242.627C106.176 245.51 105.756 248.617 103.935 250.745C102.647 252.257 100.826 253.152 98.7818 253.32C98.8939 255.364 98.2217 257.38 96.8493 258.975C95.2809 260.795 93.0403 261.831 90.6877 261.831C90.1276 261.831 89.5394 261.775 89.0073 261.635ZM74.5275 258.723C73.8273 258.415 73.4912 257.604 73.7993 256.876C74.5835 255.084 74.3034 253.012 73.0991 251.501C72.0068 250.129 70.2984 249.373 68.5339 249.485C68.0298 249.541 67.6097 249.317 67.3296 248.953C67.0495 248.589 66.9655 248.113 67.1056 247.666C67.6657 245.902 67.4416 244.166 66.4334 242.934C65.3691 241.563 63.3806 240.891 61.3921 241.227C60.6359 241.367 59.9077 240.835 59.7676 240.079C59.6276 239.323 60.1597 238.595 60.9159 238.455C63.9687 237.952 66.9095 238.987 68.646 241.199C69.8783 242.767 70.3824 244.726 70.1584 246.77C72.1749 247.078 74.0234 248.141 75.3117 249.765C77.1602 252.117 77.5523 255.252 76.376 257.995C76.1519 258.527 75.6198 258.835 75.0876 258.835C74.8916 258.863 74.6955 258.807 74.5275 258.723ZM80.325 256.82C80.0169 256.12 80.325 255.28 81.0532 254.972C82.8457 254.188 84.05 252.509 84.218 250.549C84.3581 248.785 83.6299 247.078 82.2295 245.958C81.8654 245.678 81.6694 245.202 81.7254 244.754C81.7814 244.306 82.0335 243.886 82.4256 243.662C84.05 242.767 85.0302 241.339 85.1703 239.743C85.3103 238.008 84.33 236.16 82.6216 235.068C81.9774 234.648 81.8094 233.78 82.2295 233.136C82.6496 232.493 83.5458 232.297 84.162 232.745C86.7387 234.424 88.1951 237.224 87.943 239.995C87.7749 241.983 86.8227 243.774 85.2543 245.09C86.5146 246.686 87.1588 248.729 86.9907 250.801C86.7387 253.768 84.8902 256.344 82.1735 257.548C81.9774 257.632 81.8094 257.66 81.6133 257.66C81.0812 257.66 80.5491 257.352 80.325 256.82ZM57.6951 187.954C57.219 187.338 57.359 186.47 57.9752 185.994C58.5913 185.518 59.4876 185.658 59.9357 186.274C61.28 188.038 63.4646 188.961 65.6492 188.626C67.6377 188.318 69.3461 187.058 70.2144 185.238C70.4104 184.818 70.8025 184.538 71.2786 184.454C71.7548 184.398 72.2029 184.538 72.511 184.902C73.9393 186.442 76.0119 187.17 78.0564 186.89C80.325 186.554 82.2295 185.014 83.0137 182.831C83.2658 182.103 84.078 181.739 84.8062 181.991C85.5344 182.243 85.8985 183.055 85.6464 183.783C84.4981 186.918 81.7534 189.157 78.4765 189.633C76.1239 189.997 73.7153 189.381 71.8108 187.982C70.4384 189.801 68.3939 191.033 66.0973 191.369C65.6492 191.425 65.2291 191.453 64.7809 191.453C62.0082 191.481 59.4035 190.193 57.6951 187.954ZM52.6818 172.697C52.1497 172.137 52.2057 171.241 52.7658 170.709C53.326 170.205 54.2222 170.233 54.7543 170.793C56.3227 172.529 58.7034 173.257 60.972 172.697C63.0165 172.193 64.6969 170.709 65.4251 168.75C65.5932 168.302 65.9573 167.994 66.4054 167.882C66.8535 167.77 67.3296 167.882 67.6937 168.218C69.3181 169.701 71.5587 170.289 73.6593 169.785C76.0119 169.226 77.8324 167.406 78.4765 165.082C78.6726 164.327 79.4288 163.879 80.185 164.103C80.9412 164.299 81.3893 165.054 81.1652 165.81C80.269 169.142 77.6643 171.689 74.3034 172.501C71.8668 173.089 69.3461 172.669 67.2176 171.381C65.9573 173.397 63.9407 174.88 61.5881 175.44C60.8599 175.608 60.1597 175.692 59.4316 175.692C56.9109 175.692 54.4463 174.628 52.6818 172.697ZM47.3044 159.288C46.7442 158.756 46.7162 157.86 47.2764 157.3C47.8085 156.74 48.7048 156.74 49.2649 157.272C50.9733 158.924 53.438 159.483 55.7066 158.784C57.7511 158.14 59.3475 156.516 59.9637 154.445C60.1037 153.997 60.4398 153.633 60.8879 153.493C61.3361 153.353 61.8122 153.437 62.1763 153.717C63.9407 155.116 66.2653 155.536 68.3659 154.864C70.6905 154.109 72.455 152.149 72.9031 149.741C73.0431 148.986 73.7993 148.482 74.5555 148.622C75.3117 148.762 75.8158 149.49 75.6758 150.273C75.0036 153.689 72.539 156.46 69.2341 157.524C66.7975 158.28 64.2208 158.056 61.9802 156.88C60.8599 159.008 58.9274 160.659 56.5748 161.415C55.6506 161.695 54.6983 161.863 53.7741 161.863C51.3935 161.863 49.0688 160.967 47.3044 159.288ZM302.115 153.409C301.639 153.073 301.443 152.457 301.611 151.897C303.179 146.27 302.395 141.931 299.202 138.656C298.67 138.096 298.67 137.228 299.23 136.668C299.79 136.136 300.659 136.136 301.219 136.696C304.327 139.887 305.616 143.947 305.084 148.79C308.305 145.514 309.173 141.287 307.8 135.968C307.604 135.212 308.052 134.457 308.809 134.261C309.565 134.065 310.321 134.513 310.517 135.268C312.562 143.163 310.265 149.294 303.739 153.437C303.515 153.577 303.235 153.661 302.983 153.661C302.647 153.689 302.367 153.577 302.115 153.409ZM254.614 150.441C254.194 150.105 253.998 149.546 254.138 149.014C256.463 140.111 253.578 133.253 245.82 129.166C245.148 128.802 244.868 127.962 245.232 127.262C245.596 126.562 246.436 126.31 247.137 126.674C255.119 130.873 258.704 137.872 257.499 146.522C263.745 141.959 265.285 134.205 263.381 128.214C263.157 127.486 263.549 126.702 264.305 126.45C265.033 126.226 265.817 126.618 266.069 127.374C268.562 135.268 265.957 145.794 256.127 150.609C255.931 150.693 255.735 150.749 255.511 150.749C255.203 150.749 254.867 150.637 254.614 150.441ZM269.822 149.713C269.234 149.658 268.758 149.238 268.618 148.678C268.478 148.118 268.702 147.502 269.178 147.194C275.06 143.135 278.085 138.32 278.449 132.553C278.505 131.769 279.205 131.181 279.933 131.237C280.717 131.293 281.305 131.937 281.249 132.721C280.913 138.18 278.449 142.995 273.912 147.054C280.857 146.606 286.851 142.659 290.38 136.052C290.744 135.38 291.612 135.128 292.284 135.464C292.956 135.828 293.237 136.668 292.872 137.368C288.643 145.262 280.997 149.909 272.483 149.909C271.587 149.853 270.719 149.797 269.822 149.713ZM41.3668 143.303C40.8067 142.743 40.8067 141.875 41.3668 141.315C41.927 140.755 42.7952 140.783 43.3554 141.315C45.0078 142.967 47.4164 143.555 49.657 142.911C51.6735 142.323 53.2699 140.755 53.9141 138.74C54.0541 138.292 54.3902 137.956 54.8384 137.816C55.2865 137.676 55.7626 137.788 56.1267 138.068C57.8351 139.468 60.0757 139.943 62.1763 139.3C64.5009 138.628 66.2373 136.724 66.7415 134.373C66.9095 133.617 67.6377 133.141 68.3939 133.281C69.1501 133.449 69.6262 134.177 69.4862 134.933C68.786 138.292 66.2933 141.007 62.9885 141.987C60.6079 142.687 58.0312 142.407 55.8746 141.231C54.7263 143.303 52.7938 144.898 50.4692 145.57C49.601 145.822 48.7328 145.962 47.8645 145.962C45.4279 145.962 43.1033 145.038 41.3668 143.303ZM37.6139 123.399C37.2218 122.727 37.4178 121.887 38.09 121.467C38.7622 121.075 39.6024 121.271 40.0225 121.943C41.2268 123.931 43.4394 125.107 45.708 124.995C47.8085 124.911 49.713 123.763 50.8053 121.999C51.0574 121.607 51.4775 121.355 51.9256 121.327C52.3737 121.299 52.8218 121.523 53.1019 121.887C54.4462 123.707 56.6868 124.827 58.7874 124.715C61.112 124.603 63.4086 123.063 64.5009 120.851C64.837 120.152 65.6772 119.872 66.3774 120.207C67.0776 120.543 67.3576 121.383 67.0215 122.083C65.4811 125.218 62.3163 127.346 58.9274 127.514C56.5188 127.598 53.9701 126.646 52.0936 124.911C50.4692 126.646 48.2286 127.682 45.82 127.794C45.68 127.794 45.5679 127.794 45.4279 127.794C42.2351 127.822 39.2663 126.142 37.6139 123.399ZM135.527 115.672C133.007 112.929 132.083 108.674 133.231 105.343C134.127 102.711 136.032 100.555 138.356 99.4077C137.236 97.2802 136.592 94.4807 137.516 91.7653C138.748 88.182 141.129 86.0265 144.406 85.4666C145.19 85.3266 145.89 85.8585 146.03 86.6143C146.142 87.3702 145.638 88.098 144.882 88.238C142.613 88.6019 141.073 90.0576 140.177 92.6891C139.364 95.0686 140.401 97.7281 141.577 99.2678C141.857 99.6317 141.941 100.136 141.773 100.555C141.633 101.003 141.269 101.339 140.821 101.451C138.636 102.039 136.704 103.915 135.892 106.266C135.051 108.674 135.751 111.753 137.6 113.769C138.132 114.329 138.076 115.225 137.516 115.756C137.236 116.008 136.9 116.12 136.564 116.12C136.172 116.12 135.807 115.98 135.527 115.672ZM59.2915 113.629C57.0509 112.453 55.3705 110.298 54.6423 107.778C52.3177 108.478 49.797 108.226 47.6405 107.078C44.6437 105.482 42.7392 102.375 42.7112 98.9598C42.7112 98.176 43.3274 97.5601 44.1116 97.5601C44.8678 97.5601 45.5119 98.176 45.5119 98.9598C45.5399 101.339 46.8563 103.523 48.9568 104.643C50.8613 105.65 53.1299 105.65 55.0344 104.643C55.4545 104.419 55.9306 104.419 56.3507 104.643C56.7709 104.867 57.0229 105.259 57.0789 105.734C57.331 108.03 58.7034 110.158 60.6359 111.193C62.7644 112.313 65.5932 112.145 67.6937 110.773C68.3379 110.354 69.2061 110.521 69.6262 111.165C70.0463 111.809 69.8783 112.677 69.2341 113.097C67.5817 114.189 65.6492 114.749 63.7447 114.749C62.1763 114.721 60.6359 114.357 59.2915 113.629ZM121.86 109.738C119.199 107.218 118.079 103.383 119.003 99.9676C119.675 97.4481 121.44 95.2646 123.792 93.9489C122.532 91.7933 122.196 89.1898 122.84 86.7543C123.736 83.395 126.397 80.7915 129.814 79.9517C130.57 79.7837 131.326 80.2316 131.494 80.9875C131.662 81.7433 131.214 82.4992 130.458 82.6672C128.049 83.255 126.173 85.0747 125.529 87.4542C124.941 89.6097 125.473 91.9053 126.957 93.5849C127.265 93.9489 127.377 94.4248 127.265 94.8727C127.153 95.3206 126.817 95.6845 126.369 95.8245C124.1 96.6083 122.28 98.5119 121.692 100.667C121.048 103.075 121.888 105.874 123.792 107.666C124.352 108.198 124.381 109.094 123.848 109.654C123.568 109.934 123.204 110.102 122.84 110.102C122.476 110.13 122.112 110.018 121.86 109.738ZM109.06 106.21C106.148 103.943 104.635 100.22 105.223 96.6923C105.644 94.0888 107.212 91.7093 109.453 90.1696C107.968 88.126 107.352 85.5506 107.772 83.0311C108.332 79.5598 110.769 76.6764 114.074 75.5286C114.802 75.2767 115.614 75.6686 115.866 76.3964C116.118 77.1243 115.726 77.9361 114.998 78.1881C112.645 78.9999 110.937 81.0435 110.517 83.507C110.153 85.7465 110.909 87.9861 112.561 89.5537C112.897 89.8617 113.066 90.3376 112.982 90.7855C112.897 91.2334 112.617 91.6253 112.197 91.8213C110.013 92.8291 108.36 94.9286 107.996 97.1682C107.604 99.6597 108.724 102.403 110.797 104.027C111.413 104.503 111.525 105.371 111.049 105.986C110.769 106.35 110.349 106.518 109.957 106.518C109.621 106.518 109.313 106.406 109.06 106.21ZM66.8815 102.851C65.2291 100.807 64.5009 98.092 64.837 95.4046C62.3443 95.1246 60.0477 93.8929 58.4513 91.9053C56.2667 89.1898 55.7346 85.4946 57.0789 82.2752C57.387 81.5754 58.1992 81.2394 58.8994 81.5194C59.5996 81.8273 59.9637 82.6392 59.6556 83.339C58.7034 85.6066 59.0675 88.238 60.6359 90.1416C62.0362 91.8773 64.1928 92.8011 66.4334 92.6051C66.8815 92.5491 67.3576 92.7731 67.6377 93.109C67.9178 93.4729 68.0298 93.9489 67.8898 94.3968C67.1896 96.6923 67.6377 99.2958 69.0661 101.031C70.6345 102.963 73.4072 103.943 75.9559 103.495C76.7401 103.327 77.4403 103.859 77.5803 104.615C77.7203 105.371 77.2162 106.098 76.46 106.238C75.8438 106.35 75.2277 106.406 74.6395 106.406C71.6427 106.462 68.73 105.147 66.8815 102.851ZM95.785 104.139C92.6202 102.207 90.6877 98.6519 90.8838 95.0686C91.0238 92.4372 92.3121 89.8617 94.3567 88.07C92.6482 86.1944 91.752 83.7029 91.864 81.1275C92.0321 77.6002 94.1326 74.4368 97.3254 72.9251C97.9976 72.5892 98.8658 72.8691 99.2019 73.569C99.538 74.2689 99.2299 75.1087 98.5298 75.4446C96.2612 76.5364 94.7768 78.7479 94.6647 81.2674C94.5527 83.535 95.561 85.7185 97.3815 87.0903C97.7456 87.3702 97.9696 87.8181 97.9416 88.266C97.9136 88.7419 97.6615 89.1618 97.2694 89.3858C95.1969 90.6455 93.7685 92.941 93.6565 95.2086C93.5444 97.7281 94.9728 100.36 97.2414 101.731C97.9136 102.123 98.1096 102.991 97.7175 103.663C97.4655 104.083 96.9893 104.335 96.5132 104.335C96.2892 104.335 96.0371 104.279 95.785 104.139ZM83.4898 103.971C80.0449 102.711 77.4963 99.6317 76.9641 96.1324C76.572 93.5569 77.3282 90.8415 78.9807 88.6859C76.9641 87.2022 75.6198 84.9627 75.2557 82.4432C74.7516 78.9999 76.1519 75.5286 78.9527 73.429C79.5688 72.9531 80.437 73.0931 80.9132 73.709C81.3893 74.3248 81.2493 75.1927 80.6331 75.6686C78.6446 77.1523 77.6643 79.5878 78.0284 82.0233C78.3645 84.2348 79.7649 86.1384 81.7814 87.0903C82.2015 87.2862 82.4816 87.6781 82.5656 88.154C82.6216 88.6019 82.4816 89.0778 82.1175 89.3858C80.353 91.0095 79.4288 93.4729 79.7649 95.6845C80.129 98.148 82.0334 100.416 84.4701 101.283C85.1983 101.563 85.5624 102.347 85.3103 103.075C85.1143 103.635 84.5541 103.999 83.994 103.999C83.8259 104.055 83.6579 104.027 83.4898 103.971Z" fill="black"></path><path d="M301.135 232.745L271.923 204.386C271.559 204.05 271.391 203.575 271.447 203.099C271.475 202.679 271.811 202.147 272.147 201.923L281.978 195.456L256.407 171.213C255.903 170.737 255.791 169.729 256.183 169.17C256.295 169.002 256.463 168.834 256.631 168.722C256.631 168.722 256.631 168.722 256.659 168.722C257.079 168.47 257.807 168.442 258.227 168.666L305.28 193.049C305.784 193.301 306.12 193.833 306.12 194.392C306.148 194.896 305.812 195.54 305.364 195.792L296.261 201.475L321.244 217.852C321.692 218.132 321.972 218.635 321.972 219.167C321.972 219.643 321.664 220.231 321.272 220.483L303.095 232.913C302.871 233.053 302.563 233.137 302.255 233.137C301.835 233.165 301.415 233.025 301.135 232.745ZM292.956 202.623C292.564 202.371 292.312 201.923 292.312 201.447C292.312 200.971 292.564 200.523 292.984 200.271L302.143 194.56L264.585 175.076L285.226 194.644C285.534 194.924 285.702 195.344 285.646 195.792C285.618 196.212 285.366 196.604 285.03 196.828L274.976 203.435L302.395 230.057L318.275 219.195L292.956 202.623Z" fill="black"></path><path d="M202.521 110.549C202.521 106.63 205.714 103.467 209.607 103.467C213.528 103.467 216.693 106.658 216.693 110.549C216.693 114.469 213.528 117.632 209.607 117.632C205.686 117.632 202.521 114.441 202.521 110.549ZM205.322 110.549C205.322 112.901 207.254 114.833 209.607 114.833C211.959 114.833 213.892 112.901 213.892 110.549C213.892 108.198 211.959 106.266 209.607 106.266C207.254 106.266 205.322 108.17 205.322 110.549Z" fill="black"></path></g><defs><clipPath id="clip0_5_99"><rect width="322" height="844" fill="white"></rect></clipPath></defs></svg>