<svg viewBox="0 0 52 52" fill="none" xmlns="http://www.w3.org/2000/svg"
     class="w-[50px] md:w-[100px] h-[50px] md:h-[100px]">
    <g clip-path="url(#clip0_8_74)">
        <path fill-rule="evenodd" clip-rule="evenodd"
              d="M26 0C20.8577 0 15.8309 1.52487 11.5552 4.38179C7.27951 7.23871 3.94702 11.2994 1.97914 16.0502C0.0112654 20.8011 -0.503621 26.0288 0.499594 31.0723C1.50281 36.1159 3.97907 40.7486 7.61524 44.3848C11.2514 48.0209 15.8842 50.4972 20.9277 51.5004C25.9712 52.5036 31.1989 51.9887 35.9498 50.0209C40.7007 48.053 44.7613 44.7205 47.6182 40.4448C50.4751 36.1691 52 31.1423 52 26C52 19.1044 49.2607 12.4912 44.3848 7.61522C39.5088 2.73928 32.8956 0 26 0ZM26 50C21.2533 50 16.6131 48.5924 12.6663 45.9553C8.71955 43.3181 5.64341 39.5698 3.8269 35.1844C2.0104 30.799 1.53512 25.9734 2.46116 21.3178C3.38721 16.6623 5.67299 12.3859 9.02945 9.02944C12.3859 5.67298 16.6623 3.3872 21.3178 2.46115C25.9734 1.53511 30.799 2.01039 35.1844 3.82689C39.5698 5.64339 43.3181 8.71953 45.9553 12.6663C48.5924 16.6131 50 21.2532 50 26C50 32.3652 47.4714 38.4697 42.9706 42.9706C38.4697 47.4714 32.3652 50 26 50ZM26.13 4.75C21.9766 4.75 17.9165 5.98163 14.463 8.28914C11.0096 10.5966 8.31798 13.8764 6.72854 17.7136C5.1391 21.5509 4.72323 25.7733 5.53352 29.8469C6.34381 33.9205 8.34387 37.6623 11.2808 40.5992C14.2177 43.5361 17.9595 45.5362 22.0331 46.3465C26.1067 47.1568 30.3291 46.7409 34.1664 45.1515C38.0036 43.562 41.2834 40.8704 43.5909 37.417C45.8984 33.9635 47.13 29.9034 47.13 25.75C47.13 20.1805 44.9175 14.839 40.9793 10.9008C37.041 6.96249 31.6996 4.75 26.13 4.75ZM26.13 44.75C22.3722 44.75 18.6987 43.6357 15.5742 41.5479C12.4496 39.4602 10.0144 36.4928 8.5763 33.021C7.13824 29.5492 6.76197 25.7289 7.49509 22.0433C8.22821 18.3576 10.0378 14.9722 12.695 12.315C15.3522 9.65777 18.7377 7.8482 22.4233 7.11508C26.1089 6.38196 29.9292 6.75822 33.401 8.19629C36.8728 9.63435 39.8402 12.0696 41.9279 15.1942C44.0157 18.3187 45.13 21.9922 45.13 25.75C45.1313 28.246 44.6408 30.7177 43.6866 33.0241C42.7323 35.3304 41.333 37.4261 39.5686 39.1915C37.8041 40.9569 35.7091 42.3573 33.4033 43.3128C31.0975 44.2682 28.626 44.76 26.13 44.76V44.75ZM26.13 10.24C22.9655 10.24 19.8721 11.1784 17.2409 12.9365C14.6097 14.6946 12.5589 17.1934 11.3479 20.1171C10.1369 23.0407 9.82008 26.2577 10.4374 29.3614C11.0548 32.4651 12.5787 35.3161 14.8163 37.5537C17.0539 39.7913 19.9049 41.3152 23.0086 41.9326C26.1123 42.5499 29.3293 42.2331 32.2529 41.0221C35.1766 39.8111 37.6754 37.7603 39.4335 35.1291C41.1916 32.4979 42.13 29.4045 42.13 26.24C42.1274 21.9983 40.4405 17.9312 37.4402 14.9328C34.4399 11.9343 30.3717 10.25 26.13 10.25V10.24ZM26.13 40.24C23.3611 40.24 20.6543 39.4189 18.352 37.8806C16.0497 36.3422 14.2553 34.1557 13.1957 31.5976C12.1361 29.0394 11.8588 26.2245 12.399 23.5087C12.9392 20.793 14.2726 18.2984 16.2305 16.3405C18.1885 14.3826 20.683 13.0492 23.3987 12.509C26.1145 11.9688 28.9294 12.2461 31.4876 13.3057C34.0457 14.3653 36.2322 16.1597 37.7706 18.462C39.3089 20.7643 40.13 23.4711 40.13 26.24C40.1313 28.0793 39.7702 29.9009 39.0672 31.6006C38.3642 33.3004 37.3332 34.8449 36.033 36.146C34.7329 37.447 33.1891 38.4792 31.4899 39.1834C29.7907 39.8875 27.9694 40.25 26.13 40.25V40.24ZM25.88 15.5C23.7044 15.5 21.5777 16.1451 19.7687 17.3538C17.9598 18.5625 16.5499 20.2805 15.7173 22.2905C14.8848 24.3005 14.6669 26.5122 15.0914 28.646C15.5158 30.7798 16.5635 32.7398 18.1018 34.2782C19.6402 35.8166 21.6002 36.8642 23.734 37.2886C25.8678 37.7131 28.0795 37.4952 30.0895 36.6627C32.0995 35.8301 33.8175 34.4202 35.0262 32.6113C36.2349 30.8023 36.88 28.6756 36.88 26.5C36.88 23.5826 35.7211 20.7847 33.6582 18.7218C31.5953 16.6589 28.7974 15.5 25.88 15.5ZM25.88 35.5C24.1 35.5 22.3599 34.9722 20.8799 33.9832C19.3998 32.9943 18.2463 31.5887 17.5651 29.9442C16.8839 28.2996 16.7057 26.49 17.0529 24.7442C17.4002 22.9984 18.2574 21.3947 19.5161 20.136C20.7747 18.8774 22.3784 18.0202 24.1242 17.6729C25.87 17.3257 27.6796 17.5039 29.3242 18.1851C30.9687 18.8663 32.3743 20.0198 33.3632 21.4999C34.3522 22.9799 34.88 24.72 34.88 26.5C34.88 28.8869 33.9318 31.1761 32.244 32.864C30.5561 34.5518 28.267 35.5 25.88 35.5ZM26 22C24.8741 22.0696 23.8214 22.5819 23.0719 23.425C22.3225 24.2682 21.9371 25.3737 22 26.5C21.9371 27.6263 22.3225 28.7318 23.0719 29.575C23.8214 30.4181 24.8741 30.9304 26 31C27.126 30.9304 28.1786 30.4181 28.9281 29.575C29.6776 28.7318 30.0629 27.6263 30 26.5C30.0629 25.3737 29.6776 24.2682 28.9281 23.425C28.1786 22.5819 27.126 22.0696 26 22Z"
              fill="currentColor"></path>
    </g>
    <defs>
        <clipPath id="clip0_8_74">
            <rect width="52" height="52" fill="transparent"></rect>
        </clipPath>
    </defs>
</svg>