<svg viewBox="0 0 57 55" xmlns="http://www.w3.org/2000/svg">
    <path d="M53.38 3.59C52.4058 2.60796 51.2468 1.82852 49.9698 1.2966C48.6929 0.76469 47.3233 0.490837 45.94 0.490837C44.5567 0.490837 43.1871 0.76469 41.9102 1.2966C40.6332 1.82852 39.4742 2.60796 38.5 3.59L25.9 16.28C26.4734 16.6312 27.0095 17.04 27.5 17.5L39.94 5.01C40.7276 4.22144 41.6629 3.59586 42.6924 3.16904C43.7219 2.74222 44.8255 2.52253 45.94 2.52253C47.0545 2.52253 48.1581 2.74222 49.1876 3.16904C50.2171 3.59586 51.1524 4.22144 51.94 5.01C53.5363 6.61894 54.432 8.79355 54.432 11.06C54.432 13.3264 53.5363 15.5011 51.94 17.11L39.23 29.91C37.6756 31.4707 35.5749 32.3653 33.3725 32.4045C31.1702 32.4437 29.039 31.6244 27.43 30.12C26.9509 30.5982 26.4249 31.027 25.86 31.4C27.8304 33.3485 30.4934 34.4355 33.2645 34.4224C36.0356 34.4093 38.6882 33.2971 40.64 31.33L53.38 18.5C55.3361 16.5117 56.4324 13.8342 56.4324 11.045C56.4324 8.25577 55.3361 5.57829 53.38 3.59ZM17.01 49.92C16.2224 50.7086 15.2871 51.3341 14.2576 51.761C13.2281 52.1878 12.1245 52.4075 11.01 52.4075C9.8955 52.4075 8.79193 52.1878 7.7624 51.761C6.73287 51.3341 5.79758 50.7086 5.01 49.92C3.41372 48.3111 2.518 46.1364 2.518 43.87C2.518 41.6035 3.41372 39.4289 5.01 37.82L17.74 25.02C19.2926 23.4711 21.3849 22.5839 23.5777 22.5448C25.7704 22.5056 27.8931 23.3175 29.5 24.81C29.984 24.3203 30.5167 23.8813 31.09 23.5C29.1196 21.5515 26.4566 20.4645 23.6855 20.4776C20.9145 20.4907 18.2618 21.6029 16.31 23.57L3.57 36.4C1.60481 38.3896 0.502804 41.0735 0.502804 43.87C0.502804 46.6665 1.60481 49.3504 3.57 51.34C4.54387 52.319 5.70162 53.0959 6.97671 53.626C8.2518 54.1562 9.61909 54.4291 11 54.4291C12.3809 54.4291 13.7482 54.1562 15.0233 53.626C16.2984 53.0959 17.4561 52.319 18.43 51.34L31.06 38.65C30.4976 38.2892 29.9747 37.8702 29.5 37.4L17.01 49.92Z"
          fill="currentColor"></path>
</svg>