<svg viewBox="0 0 40 40" fill="none" xmlns="http://www.w3.org/2000/svg">
    <path d="M20 12C15.59 12 12 15.59 12 20C12 24.41 15.59 28 20 28C24.41 28 28 24.41 28 20C28 15.59 24.41 12 20 12ZM20 26C16.69 26 14 23.31 14 20C14 16.69 16.69 14 20 14C23.31 14 26 16.69 26 20C26 23.31 23.31 26 20 26ZM37.31 15.82L35.37 15.62C35.04 14.44 34.57 13.31 33.97 12.24L35.2 10.72C36.17 9.52 36.08 7.8 34.99 6.71L33.29 5.01C32.24 3.96 30.44 3.86 29.28 4.8L27.76 6.03C26.69 5.43 25.56 4.96 24.38 4.63L24.18 2.69C24.02 1.15 22.74 0 21.2 0H18.8C17.26 0 15.98 1.15 15.82 2.69L15.61 4.63C14.43 4.96 13.3 5.43 12.23 6.03L10.71 4.8C9.56 3.86 7.76 3.96 6.71 5.01L5.01 6.71C3.92 7.79 3.83 9.52 4.8 10.71L6.03 12.23C5.43 13.3 4.96 14.43 4.63 15.61L2.69 15.81C1.15 15.98 0 17.26 0 18.8V21.2C0 22.74 1.15 24.02 2.69 24.18L4.63 24.38C4.97 25.56 5.44 26.69 6.03 27.76L4.8 29.29C3.83 30.49 3.92 32.21 5.01 33.3L6.71 35C7.76 36.05 9.56 36.15 10.72 35.21L12.24 33.98C13.31 34.58 14.44 35.05 15.62 35.38L15.83 37.32C15.98 38.84 17.26 40 18.8 40H21.2C22.74 40 24.02 38.85 24.18 37.31L24.38 35.37C25.56 35.04 26.69 34.57 27.76 33.97L29.28 35.2C29.81 35.63 30.48 35.87 31.17 35.87C31.97 35.87 32.73 35.56 33.29 34.99L34.99 33.29C36.08 32.2 36.17 30.48 35.2 29.28L33.97 27.76C34.57 26.69 35.04 25.55 35.37 24.38L37.31 24.18C38.85 24.02 40 22.74 40 21.2V18.8C40 17.26 38.85 15.98 37.31 15.82ZM38 21.2C38 21.71 37.62 22.14 37.1 22.2L34.47 22.48C34.05 22.52 33.7 22.83 33.6 23.24C33.26 24.69 32.69 26.07 31.9 27.34C31.68 27.7 31.71 28.16 31.97 28.49L33.63 30.55C33.95 30.95 33.92 31.52 33.56 31.89L31.86 33.59C31.67 33.78 31.42 33.88 31.15 33.88C30.99 33.88 30.75 33.84 30.52 33.66L28.46 31.99C28.13 31.72 27.67 31.69 27.3 31.92C26.03 32.71 24.65 33.28 23.2 33.62C22.79 33.72 22.48 34.07 22.44 34.49L22.16 37.12C22.11 37.63 21.68 38.02 21.16 38.02H18.76C18.25 38.02 17.82 37.64 17.77 37.12L17.49 34.49C17.45 34.07 17.14 33.72 16.73 33.62C15.28 33.28 13.9 32.7 12.63 31.92C12.47 31.82 12.29 31.77 12.1 31.77C11.88 31.77 11.65 31.85 11.47 31.99L9.41 33.66C9.18 33.84 8.94 33.88 8.78 33.88C8.51 33.88 8.26 33.78 8.07 33.59L6.37 31.89C6.01 31.53 5.98 30.95 6.3 30.55L7.96 28.49C8.23 28.16 8.26 27.7 8.03 27.34C7.25 26.07 6.67 24.69 6.33 23.24C6.23 22.83 5.88 22.52 5.46 22.48L2.9 22.19C2.39 22.14 2 21.71 2 21.19V18.79C2 18.28 2.38 17.85 2.89 17.79L5.52 17.51C5.94 17.47 6.29 17.16 6.39 16.75C6.73 15.3 7.31 13.92 8.09 12.65C8.31 12.29 8.28 11.83 8.02 11.5L6.35 9.46C6.03 9.06 6.06 8.49 6.42 8.12L8.12 6.42C8.31 6.23 8.56 6.13 8.83 6.13C8.99 6.13 9.23 6.17 9.46 6.35L11.52 8.02C11.85 8.29 12.31 8.31 12.67 8.09C13.94 7.3 15.32 6.73 16.77 6.39C17.18 6.29 17.49 5.94 17.53 5.52L17.81 2.89C17.86 2.38 18.29 2 18.8 2H21.2C21.71 2 22.14 2.38 22.2 2.89L22.48 5.52C22.52 5.94 22.83 6.29 23.24 6.39C24.69 6.73 26.07 7.31 27.34 8.09C27.7 8.31 28.16 8.28 28.5 8.02L30.55 6.35C30.78 6.17 31.02 6.13 31.18 6.13C31.45 6.13 31.7 6.23 31.89 6.42L33.59 8.12C33.95 8.48 33.98 9.06 33.66 9.46L32 11.52C31.73 11.85 31.7 12.31 31.93 12.67C32.72 13.94 33.29 15.32 33.63 16.77C33.73 17.18 34.08 17.49 34.5 17.53L37.13 17.81C37.64 17.86 38.03 18.29 38.03 18.81V21.2H38Z"
          fill="#231F20"></path>
</svg>