<svg viewBox="0 0 42 51" fill="none" xmlns="http://www.w3.org/2000/svg">
    <path d="M41.9998 20.16C41.9922 16.0963 40.9327 12.1038 38.9245 8.57095C36.9162 5.03813 34.0276 2.08537 30.5398 0C30.3746 0.655641 30.1188 1.28504 29.7798 1.87C34.6571 4.86164 38.1463 9.66827 39.4796 15.2325C40.813 20.7967 39.8814 26.6627 36.8898 31.54C33.8981 36.4173 29.0915 39.9065 23.5273 41.2399C17.9631 42.5732 12.0971 41.6416 7.21978 38.65C6.89597 39.2417 6.48467 39.7811 5.99978 40.25C9.37145 42.3057 13.2054 43.4816 17.1498 43.67V49H11.1498C10.8846 49 10.6302 49.1054 10.4427 49.2929C10.2551 49.4804 10.1498 49.7348 10.1498 50C10.1498 50.2652 10.2551 50.5196 10.4427 50.7071C10.6302 50.8946 10.8846 51 11.1498 51H25.1498C25.415 51 25.6694 50.8946 25.8569 50.7071C26.0444 50.5196 26.1498 50.2652 26.1498 50C26.1498 49.7348 26.0444 49.4804 25.8569 49.2929C25.6694 49.1054 25.415 49 25.1498 49H19.1498V43.69C25.2634 43.4881 31.0606 40.9233 35.322 36.5351C39.5835 32.1468 41.9772 26.2769 41.9998 20.16ZM35.9998 19.83C36.0176 16.2662 34.9771 12.7772 33.0101 9.80533C31.0431 6.83343 28.2381 4.51233 24.9507 3.13614C21.6632 1.75995 18.0412 1.39062 14.5437 2.07496C11.0461 2.7593 7.83038 4.46649 5.30403 6.98022C2.77767 9.49394 1.05438 12.701 0.352516 16.1951C-0.349344 19.6892 0.00182188 23.313 1.36151 26.6074C2.72121 29.9017 5.02822 32.7182 7.99023 34.7001C10.9522 36.682 14.4359 37.74 17.9998 37.74C22.7581 37.7401 27.3229 35.856 30.696 32.4998C34.0691 29.1436 35.976 24.5883 35.9998 19.83ZM1.99978 19.83C1.98394 16.6621 2.90885 13.5609 4.65729 10.9192C6.40574 8.2775 8.89902 6.21429 11.8212 4.99101C14.7434 3.76773 17.963 3.43944 21.0719 4.04774C24.1808 4.65604 27.0393 6.17355 29.2849 8.40797C31.5306 10.6424 33.0624 13.4932 33.6862 16.599C34.3101 19.7049 33.998 22.926 32.7894 25.8543C31.5807 28.7826 29.5301 31.2862 26.8972 33.0479C24.2643 34.8095 21.1677 35.75 17.9998 35.75C13.7701 35.7501 9.71256 34.0753 6.71427 31.092C3.71597 28.1087 2.02093 24.0596 1.99978 19.83Z"
          fill="currentColor"></path>
</svg>