<svg width="38" height="38" viewBox="0 0 38 38" fill="none" xmlns="http://www.w3.org/2000/svg" class="h-10 w-10">
    <path d="M23 12H13C12.45 12 12 12.45 12 13V23C12 24.65 13.35 26 15 26H25C25.55 26 26 25.55 26 25V15C26 13.35 24.65 12 23 12ZM20 14V24H18V14H20ZM14 23V14H16V24H15C14.45 24 14 23.55 14 23ZM24 24H22V14H23C23.55 14 24 14.45 24 15V24ZM26 29V35C26 36.65 24.65 38 23 38H3C1.35 38 0 36.65 0 35V15C0 13.35 1.35 12 3 12H9C9.55 12 10 12.45 10 13C10 13.55 9.55 14 9 14H3C2.45 14 2 14.45 2 15V35C2 35.55 2.45 36 3 36H23C23.55 36 24 35.55 24 35V29C24 28.45 24.45 28 25 28C25.55 28 26 28.45 26 29ZM38 3V23C38 24.65 36.65 26 35 26H29C28.45 26 28 25.55 28 25C28 24.45 28.45 24 29 24H35C35.55 24 36 23.55 36 23V3C36 2.45 35.55 2 35 2H15C14.45 2 14 2.45 14 3V9C14 9.55 13.55 10 13 10C12.45 10 12 9.55 12 9V3C12 1.35 13.35 0 15 0H35C36.65 0 38 1.35 38 3Z"
          fill="#FFC953"></path>
</svg>