<svg viewBox="0 0 32 52" fill="none" xmlns="http://www.w3.org/2000/svg"
     class="w-[50px] md:w-[100px] h-[50px] md:h-[100px]">
    <g clip-path="url(#clip0_8_68)">
        <path d="M5.33 51.63H5.18L5 51.57C4.84546 51.5308 4.70075 51.4599 4.57508 51.3617C4.44941 51.2636 4.34552 51.1404 4.27 51L4.07 50.61L4.22 50.13L12.22 28.13L1.15 28C0.85619 27.9945 0.574791 27.8806 0.360002 27.68C0.201311 27.5355 0.0883552 27.3478 0.0350497 27.1399C-0.0182559 26.932 -0.00958239 26.713 0.0600016 26.51L9 0.77C9.07827 0.541759 9.22694 0.344239 9.42461 0.20587C9.62228 0.0675004 9.85876 -0.00458145 10.1 -4.08647e-07L30.37 0.65C30.5357 0.653421 30.6988 0.691699 30.8487 0.76234C30.9986 0.832982 31.1319 0.934403 31.24 1.06C31.3969 1.23812 31.4907 1.46296 31.507 1.69975C31.5232 1.93654 31.461 2.1721 31.33 2.37L20 19.74H30C30.1779 19.7398 30.3537 19.7792 30.5145 19.8553C30.6754 19.9314 30.8173 20.0423 30.93 20.18C31.0918 20.3755 31.1803 20.6213 31.1803 20.875C31.1803 21.1287 31.0918 21.3745 30.93 21.57L6.24 51.21C6.12799 51.342 5.98854 51.4479 5.83137 51.5205C5.6742 51.593 5.5031 51.6304 5.33 51.63ZM2.35 26L15.06 26.23L7.74 46.3L28.25 21.76H16.35L28.8 2.6L10.63 2L2.35 26Z"
              fill="cureentColor"></path>
    </g>
    <defs>
        <clipPath id="clip0_8_68">
            <rect width="31.51" height="51.63" fill="transparent"></rect>
        </clipPath>
    </defs>
</svg>