<svg viewBox="0 0 52 58" fill="none" xmlns="http://www.w3.org/2000/svg"
     class="w-[50px] md:w-[100px] h-[50px] md:h-[100px]">
    <g clip-path="url(#clip0_8_66)">
        <path d="M51 16C49.4947 12.5283 47.255 9.42397 44.435 6.90078C41.6151 4.37758 38.2818 2.49542 34.6647 1.38387C31.0477 0.272312 27.2327 -0.0422421 23.4824 0.461859C19.7321 0.96596 16.1356 2.27674 12.9405 4.30398C9.7453 6.33121 7.02737 9.02675 4.97378 12.205C2.92019 15.3833 1.5797 18.9689 1.0446 22.7148C0.509495 26.4608 0.792483 30.2783 1.87408 33.9044C2.95568 37.5306 4.81021 40.8793 7.30999 43.72L7.35999 43.79L5.70999 43.51C5.48713 43.4759 5.25923 43.5145 5.05999 43.62L0.51999 46.14C0.393241 46.209 0.282924 46.3046 0.196616 46.4202C0.110308 46.5359 0.0500532 46.6689 0.0199899 46.81C-0.00973083 46.95 -0.00904112 47.0948 0.0220124 47.2345C0.0530659 47.3743 0.113759 47.5057 0.19999 47.62C1.59999 49.51 3.81999 49.83 7.51999 50.34C9.04999 50.55 10.79 50.8 12.89 51.2C17.3091 52.1855 21.47 54.0939 25.1 56.8C25.2786 56.9433 25.501 57.021 25.73 57.02C25.9556 57.0187 26.1741 56.9412 26.35 56.8C26.5274 56.6626 26.6534 56.4696 26.7078 56.2519C26.7622 56.0343 26.7418 55.8047 26.65 55.6L25.29 52.6C24.0158 50.1782 22.4363 47.9299 20.59 45.91C20.8911 45.198 21.4059 44.5971 22.0634 44.1904C22.7209 43.7837 23.4884 43.5914 24.26 43.64C24.8 45.64 26.26 50.87 27.91 52.47C30.0422 54.3726 32.7254 55.5461 35.57 55.82C35.8387 55.8207 36.1067 55.7939 36.37 55.74C38.2339 55.142 40.0357 54.365 41.75 53.42C41.9211 53.3322 42.0632 53.1969 42.1594 53.0303C42.2555 52.8638 42.3016 52.673 42.2921 52.481C42.2826 52.2889 42.2179 52.1036 42.1058 51.9474C41.9937 51.7911 41.8389 51.6705 41.66 51.6L35.52 49.06L35.93 48.4C36.8783 48.6626 37.8561 48.8038 38.84 48.82C39.8714 48.8535 40.8878 48.5671 41.75 48C43.75 46.61 42.86 40.57 42.14 37H43.88C44.1351 37.0005 44.3808 36.9034 44.5667 36.7286C44.7526 36.5539 44.8647 36.3147 44.88 36.06C45.1129 32.8539 44.702 29.6336 43.6716 26.5887C42.6412 23.5438 41.012 20.7358 38.88 18.33L39.69 17.61L42.58 20.61C42.7307 20.7667 42.9284 20.8701 43.1432 20.9044C43.3579 20.9387 43.578 20.902 43.77 20.8L50.51 17.27C50.7369 17.1593 50.9135 16.9668 51.0044 16.7312C51.0953 16.4957 51.0937 16.2344 51 16ZM43.53 18.69L40.53 15.55C40.3501 15.3629 40.1045 15.2531 39.8451 15.2438C39.5857 15.2344 39.3329 15.3263 39.14 15.5L36.83 17.56C36.7236 17.6538 36.6384 17.7692 36.58 17.8986C36.5216 18.0279 36.4914 18.1681 36.4914 18.31C36.4914 18.4519 36.5216 18.5921 36.58 18.7214C36.6384 18.8507 36.7236 18.9662 36.83 19.06C38.8725 21.1823 40.4718 23.6902 41.5346 26.4373C42.5973 29.1844 43.1023 32.1156 43.02 35.06H41.02C40.8698 35.0607 40.7217 35.0952 40.5866 35.161C40.4516 35.2268 40.3331 35.3221 40.24 35.44C40.1445 35.5573 40.077 35.6948 40.0423 35.842C40.0077 35.9892 40.0069 36.1424 40.04 36.29C41 41 41.29 45.76 40.6 46.39C40.067 46.6991 39.4551 46.8451 38.84 46.81C38.0557 46.7912 37.2767 46.677 36.52 46.47C36.5048 43.5918 35.5808 40.7919 33.88 38.47C32.33 36.39 30.36 36.17 28.77 35.99C26.93 35.78 25.72 35.64 24.93 33.08C23.32 27.84 24.85 24.72 24.86 24.7C24.9217 24.5831 24.9598 24.4552 24.9721 24.3236C24.9844 24.192 24.9707 24.0593 24.9317 23.933C24.8927 23.8067 24.8292 23.6894 24.7448 23.5876C24.6604 23.4859 24.5569 23.4017 24.44 23.34C24.3231 23.2783 24.1952 23.2402 24.0636 23.2279C23.932 23.2156 23.7993 23.2293 23.673 23.2683C23.5467 23.3073 23.4293 23.3708 23.3276 23.4552C23.2258 23.5395 23.1417 23.6431 23.08 23.76C23 23.91 21.14 27.58 23 33.67C24.18 37.5 26.6 37.77 28.55 37.99C29.99 38.15 31.24 38.29 32.26 39.67C33.7886 41.7754 34.5731 44.3296 34.49 46.93L33.18 49C33.102 49.1237 33.0521 49.263 33.0338 49.4081C33.0154 49.5532 33.0292 49.7006 33.074 49.8398C33.1188 49.979 33.1936 50.1067 33.2931 50.2138C33.3927 50.321 33.5145 50.405 33.65 50.46L38.86 52.62C37.9253 53.095 36.9476 53.4801 35.94 53.77C35.8171 53.7851 35.6929 53.7851 35.57 53.77C33.2622 53.4934 31.0913 52.5281 29.34 51C28.21 49.88 26.71 45.12 26.03 42.39C25.9821 42.1965 25.8776 42.0217 25.7297 41.8881C25.5818 41.7544 25.3973 41.6681 25.2 41.64C24.9222 41.5964 24.6412 41.5763 24.36 41.58C23.0398 41.5074 21.7349 41.8911 20.6642 42.6668C19.5935 43.4425 18.8223 44.5629 18.48 45.84C18.4244 46.0119 18.4165 46.1957 18.457 46.3717C18.4974 46.5478 18.5849 46.7096 18.71 46.84C20.4987 48.7724 22.0559 50.9068 23.35 53.2C20.2391 51.3088 16.8312 49.9565 13.27 49.2C11.12 48.79 9.26999 48.53 7.79999 48.32C5.25999 47.97 3.71999 47.73 2.73999 47.19L5.73999 45.54L9.35999 46.16C9.55558 46.1964 9.7576 46.1737 9.9402 46.0947C10.1228 46.0157 10.2777 45.8841 10.3851 45.7166C10.4924 45.5491 10.5474 45.3534 10.5429 45.1545C10.5385 44.9556 10.4748 44.7625 10.36 44.6L8.95999 42.52L8.86999 42.4C6.51559 39.821 4.74748 36.7628 3.68718 33.4356C2.62687 30.1084 2.29951 26.5911 2.7276 23.1253C3.15568 19.6596 4.32906 16.3277 6.16709 13.3585C8.00512 10.3893 10.4642 7.8532 13.3754 5.92459C16.2866 3.99598 19.5808 2.72053 23.0317 2.18591C26.4826 1.65128 30.0083 1.87014 33.3666 2.82746C36.7249 3.78478 39.8361 5.45786 42.4864 7.73171C45.1367 10.0056 47.2633 12.8263 48.72 16L43.53 18.69ZM34.53 29.5C34.5039 29.6301 34.504 29.7641 34.5303 29.8941C34.5565 30.0242 34.6083 30.1478 34.6828 30.2576C34.7573 30.3674 34.8528 30.4613 34.9639 30.5338C35.075 30.6064 35.1995 30.656 35.33 30.68L39.39 31.45H39.58C39.8452 31.4739 40.109 31.3914 40.3135 31.2207C40.5179 31.0501 40.6461 30.8052 40.67 30.54C40.6939 30.2748 40.6114 30.0109 40.4407 29.8065C40.2701 29.6021 40.0252 29.4739 39.76 29.45L35.76 28.68C35.6201 28.6398 35.4732 28.6306 35.3294 28.6531C35.1857 28.6755 35.0485 28.7291 34.9276 28.8101C34.8067 28.891 34.7048 28.9973 34.6293 29.1217C34.5537 29.246 34.5062 29.3854 34.49 29.53L34.53 29.5ZM37.83 14.67C37.225 14.2974 36.5971 13.9634 35.95 13.67C35.7073 13.5599 35.4309 13.5508 35.1814 13.6445C34.932 13.7383 34.7301 13.9273 34.62 14.17C34.5099 14.4127 34.5008 14.6891 34.5945 14.9386C34.6883 15.188 34.8773 15.3899 35.12 15.5C35.6972 15.7629 36.2583 16.0601 36.8 16.39C36.9554 16.479 37.1309 16.5272 37.31 16.53C37.4852 16.5317 37.6578 16.4874 37.8105 16.4014C37.9632 16.3154 38.0906 16.1907 38.18 16.04C38.3025 15.8099 38.3302 15.541 38.2574 15.2907C38.1845 15.0404 38.0168 14.8285 37.79 14.7L37.83 14.67ZM27.83 14.09C29.0804 14.0415 30.3321 14.1388 31.56 14.38H31.75C31.8813 14.3925 32.0138 14.379 32.1399 14.3402C32.266 14.3015 32.3832 14.2383 32.4849 14.1543C32.5866 14.0702 32.6707 13.967 32.7325 13.8504C32.7943 13.7339 32.8325 13.6063 32.845 13.475C32.8575 13.3437 32.844 13.2112 32.8052 13.0851C32.7665 12.959 32.7033 12.8417 32.6193 12.7401C32.5352 12.6384 32.432 12.5543 32.3154 12.4925C32.1989 12.4307 32.0713 12.3925 31.94 12.38C30.5605 12.1101 29.1547 11.9994 27.75 12.05C27.6144 12.0498 27.4801 12.0773 27.3554 12.1306C27.2307 12.184 27.1181 12.2621 27.0246 12.3603C26.9311 12.4586 26.8585 12.5748 26.8113 12.7019C26.7641 12.8291 26.7432 12.9645 26.75 13.1C26.7472 13.2364 26.7723 13.372 26.8238 13.4984C26.8753 13.6247 26.9521 13.7392 27.0496 13.8347C27.147 13.9303 27.2629 14.0049 27.3903 14.054C27.5176 14.103 27.6536 14.1255 27.79 14.12L27.83 14.09ZM20.14 16.2C20.3075 16.2008 20.4726 16.1596 20.62 16.08C21.7182 15.4797 22.8827 15.0099 24.09 14.68C24.2179 14.6454 24.3376 14.5856 24.4422 14.5043C24.5468 14.423 24.6342 14.3218 24.6993 14.2064C24.7644 14.091 24.806 13.9639 24.8216 13.8323C24.8371 13.7007 24.8264 13.5674 24.79 13.44C24.7553 13.3132 24.6959 13.1945 24.6153 13.0907C24.5347 12.9869 24.4344 12.9 24.3201 12.835C24.2059 12.77 24.0799 12.7281 23.9495 12.7118C23.8191 12.6955 23.6867 12.7051 23.56 12.74C22.2034 13.11 20.8946 13.6369 19.66 14.31C19.4582 14.4132 19.2975 14.5818 19.2042 14.7883C19.1108 14.9948 19.0903 15.2268 19.1461 15.4465C19.2019 15.6661 19.3306 15.8603 19.5112 15.9972C19.6918 16.1341 19.9135 16.2056 20.14 16.2ZM12.74 23C12.6173 22.9497 12.4859 22.9244 12.3533 22.9254C12.2207 22.9264 12.0897 22.9537 11.9678 23.0058C11.8459 23.0579 11.7356 23.1338 11.6432 23.2289C11.5509 23.324 11.4784 23.4366 11.43 23.56C10.9087 24.8666 10.5396 26.2289 10.33 27.62C10.3087 27.7515 10.314 27.8859 10.3454 28.0154C10.3769 28.1448 10.4338 28.2667 10.513 28.3738C10.5922 28.481 10.692 28.5712 10.8065 28.6392C10.9211 28.7073 11.048 28.7517 11.18 28.77H11.33C11.5726 28.7724 11.8079 28.6865 11.9919 28.5282C12.1759 28.37 12.296 28.1503 12.33 27.91C12.5213 26.6718 12.8569 25.4602 13.33 24.3C13.3779 24.176 13.4006 24.0437 13.3968 23.9108C13.393 23.778 13.3628 23.6472 13.3079 23.5262C13.2529 23.4051 13.1744 23.2962 13.0769 23.2059C12.9794 23.1155 12.8649 23.0456 12.74 23ZM15.08 21C15.8006 19.9778 16.6323 19.0388 17.56 18.2C17.6585 18.112 17.7387 18.0055 17.796 17.8865C17.8533 17.7675 17.8867 17.6384 17.8941 17.5066C17.9015 17.3747 17.8829 17.2427 17.8393 17.118C17.7957 16.9933 17.728 16.8785 17.64 16.78C17.552 16.6815 17.4455 16.6013 17.3265 16.544C17.2075 16.4867 17.0784 16.4533 16.9466 16.4459C16.8147 16.4385 16.6827 16.4571 16.558 16.5007C16.4333 16.5443 16.3185 16.612 16.22 16.7C15.1712 17.6347 14.2348 18.6885 13.43 19.84C13.3538 19.9483 13.2997 20.0706 13.2708 20.1999C13.2419 20.3291 13.2388 20.4628 13.2615 20.5932C13.2843 20.7237 13.3325 20.8484 13.4034 20.9602C13.4744 21.0721 13.5666 21.1688 13.675 21.245C13.7833 21.3212 13.9056 21.3752 14.0349 21.4042C14.1641 21.4331 14.2978 21.4362 14.4282 21.4135C14.5587 21.3907 14.6834 21.3425 14.7952 21.2716C14.9071 21.2006 15.0038 21.1083 15.08 21ZM11.08 30.75C10.9485 30.7601 10.8203 30.7961 10.7028 30.8559C10.5853 30.9157 10.4808 30.9982 10.3953 31.0986C10.3098 31.199 10.245 31.3153 10.2046 31.4408C10.1642 31.5663 10.1491 31.6986 10.16 31.83C10.2216 32.5599 10.3319 33.2848 10.49 34C10.5347 34.2311 10.6595 34.4391 10.8424 34.5872C11.0253 34.7354 11.2546 34.8143 11.49 34.81C11.5563 34.8199 11.6237 34.8199 11.69 34.81C11.8196 34.7849 11.943 34.7344 12.0529 34.6614C12.1629 34.5883 12.2574 34.4943 12.3308 34.3846C12.4042 34.2749 12.4552 34.1517 12.4808 34.0222C12.5065 33.8927 12.5062 33.7594 12.48 33.63C12.3502 33.0097 12.26 32.3818 12.21 31.75C12.2051 31.6141 12.1726 31.4807 12.1144 31.3579C12.0562 31.235 11.9736 31.1253 11.8716 31.0354C11.7696 30.9456 11.6503 30.8775 11.5211 30.8353C11.3918 30.7931 11.2554 30.7777 11.12 30.79L11.08 30.75ZM35.35 21.24C35.4414 21.1429 35.5125 21.0285 35.5591 20.9036C35.6057 20.7786 35.6268 20.6456 35.6212 20.5124C35.6157 20.3791 35.5835 20.2483 35.5266 20.1277C35.4697 20.0071 35.3892 19.8991 35.29 19.81C33.5612 18.2248 31.3873 17.2088 29.0622 16.8994C26.7372 16.59 24.3732 17.0021 22.29 18.08C18.67 19.96 15.35 23.89 16.11 28.43C16.3037 29.3939 16.5542 30.3456 16.86 31.28C17.42 33.14 18.11 35.45 17.86 36.61C17.69 37.35 15.96 39.44 14.46 40.96C14.319 41.0999 14.2228 41.2786 14.1837 41.4733C14.1446 41.6681 14.1645 41.87 14.2406 42.0535C14.3168 42.2369 14.4459 42.3935 14.6114 42.5033C14.7769 42.6131 14.9714 42.6711 15.17 42.67C15.3033 42.6721 15.4356 42.6475 15.5593 42.5977C15.6829 42.5479 15.7954 42.4739 15.89 42.38C16.48 41.78 19.44 38.73 19.82 37.06C20.2 35.39 19.46 32.89 18.82 30.7C18.543 29.8465 18.3127 28.9785 18.13 28.1C17.54 24.55 20.27 21.41 23.25 19.87C24.586 19.1708 26.0721 18.8071 27.58 18.81C29.9632 18.8099 32.2576 19.7141 34 21.34C34.1941 21.5124 34.4477 21.6025 34.7071 21.5914C34.9665 21.5802 35.2114 21.4685 35.39 21.28L35.35 21.24Z"
              fill="currentColor"></path>
    </g>
    <defs>
        <clipPath id="clip0_8_66">
            <rect width="51.03" height="57.02" fill="transparent"></rect>
        </clipPath>
    </defs>
</svg>