<svg viewBox="0 0 54 46" fill="none" xmlns="http://www.w3.org/2000/svg"
     class="w-[50px] md:w-[100px] h-[50px] md:h-[100px]">
    <g clip-path="url(#clip0_8_70)">
        <path d="M26.77 46L24.88 44.54C13.59 35.87 6.78 30.64 2.88 23.81C0.0300009 18.81 -0.739999 13.81 0.670001 9.52002C1.27444 7.7024 2.25332 6.03173 3.54345 4.61586C4.83357 3.2 6.40627 2.07041 8.16 1.30002C10.0656 0.432971 12.1365 -0.010553 14.23 1.52469e-05C16.6892 -0.0187788 19.116 0.561372 21.3008 1.69036C23.4856 2.81934 25.3627 4.46323 26.77 6.48002C28.1807 4.46429 30.0599 2.8214 32.246 1.69264C34.4321 0.563869 36.8597 -0.0169897 39.32 1.52469e-05C41.4135 -0.010553 43.4844 0.432971 45.39 1.30002C47.141 2.07377 48.7105 3.20592 49.9971 4.62346C51.2837 6.04099 52.259 7.71243 52.86 9.53001C54.27 13.87 53.5 18.81 50.65 23.82C46.77 30.65 39.95 35.89 28.65 44.57L26.77 46ZM14.23 2.00002C12.4267 1.98498 10.6418 2.3638 9 3.11002C7.50316 3.76633 6.15984 4.72797 5.05605 5.93335C3.95227 7.13874 3.11232 8.56131 2.59 10.11C1.36 13.91 2.07 18.31 4.64 22.82C8.33 29.32 15 34.46 26.11 43L26.77 43.51L27.41 43.02C38.52 34.47 45.22 29.32 48.9 22.84C51.47 18.33 52.18 13.93 50.95 10.13C50.4277 8.58131 49.5877 7.15874 48.4839 5.95335C47.3802 4.74797 46.0368 3.78633 44.54 3.13002C42.9029 2.37803 41.1215 1.99239 39.32 2.00002C36.9278 1.96044 34.572 2.58899 32.5174 3.81501C30.4629 5.04103 28.7911 6.81588 27.69 8.94001L26.77 10.94L25.86 8.94001C24.758 6.81663 23.086 5.04241 21.0317 3.81652C18.9774 2.59063 16.622 1.96159 14.23 2.00002Z"
              fill="currentColor"></path>
    </g>
    <defs>
        <clipPath id="clip0_8_70">
            <rect width="53.55" height="46.01" fill="transparent"></rect>
        </clipPath>
    </defs>
</svg>