<svg viewBox="0 0 50 46" fill="none" xmlns="http://www.w3.org/2000/svg">
    <path d="M50 0L0 18.59L16.08 30.59V38.5C16.0811 38.6822 16.1368 38.8598 16.24 39.01C16.2527 39.0863 16.2763 39.1604 16.31 39.23C16.3997 39.3774 16.5261 39.4991 16.6768 39.5832C16.8275 39.6673 16.9974 39.711 17.17 39.71C17.3529 39.7118 17.5327 39.6633 17.69 39.57L23.36 36.06L36.63 46L50 0ZM44.51 4.2L17.57 29.2L4.17 19.2L44.51 4.2ZM18.08 37V32.11L21.63 34.76L18.08 37ZM19.2 30.48L46.42 5.17L35.51 42.64L19.2 30.48Z"
          fill="currentColor"></path>
</svg>