<svg viewBox="0 0 55 37" fill="none" xmlns="http://www.w3.org/2000/svg"
     class="w-[50px] md:w-[100px] h-[50px] md:h-[100px]">
    <g clip-path="url(#clip0_8_49)">
        <path d="M52.54 36.47H5C4.46957 36.47 3.96086 36.2593 3.58579 35.8842C3.21071 35.5091 3 35.0004 3 34.47V32.47H5V34.47H52.54V5H50.54V3H52.54C53.0704 3 53.5791 3.21071 53.9542 3.58579C54.3293 3.96086 54.54 4.46957 54.54 5V34.47C54.54 35.0004 54.3293 35.5091 53.9542 35.8842C53.5791 36.2593 53.0704 36.47 52.54 36.47Z"
              fill="currentColor"></path>
        <path d="M40 33.49H2C1.46957 33.49 0.960859 33.2793 0.585786 32.9042C0.210714 32.5291 0 32.0204 0 31.49V2C0 1.46957 0.210714 0.960859 0.585786 0.585786C0.960859 0.210714 1.46957 0 2 0L49.53 0C50.0604 0 50.5691 0.210714 50.9442 0.585786C51.3193 0.960859 51.53 1.46957 51.53 2V22C51.5309 22.1578 51.5005 22.3142 51.4404 22.4602C51.3803 22.6061 51.2918 22.7386 51.18 22.85L40.91 33.12C40.7902 33.2386 40.6481 33.3323 40.4919 33.3958C40.3357 33.4593 40.1686 33.4913 40 33.49ZM49.53 2H2V31.49H39.71L49.53 21.67V2Z"
              fill="currentColor"></path>
        <path d="M25.75 27.66C25.4202 27.66 25.1038 27.5297 24.8696 27.2974C24.6355 27.0651 24.5026 26.7498 24.5 26.42V24.05C24.4845 23.8771 24.5052 23.7029 24.5607 23.5385C24.6162 23.374 24.7053 23.2229 24.8225 23.0948C24.9396 22.9667 25.0821 22.8644 25.2409 22.7944C25.3998 22.7244 25.5714 22.6883 25.745 22.6883C25.9186 22.6883 26.0902 22.7244 26.2491 22.7944C26.4079 22.8644 26.5504 22.9667 26.6675 23.0948C26.7846 23.2229 26.8738 23.374 26.9293 23.5385C26.9848 23.7029 27.0055 23.8771 26.99 24.05V26.42C26.9874 26.748 26.8559 27.0619 26.6239 27.2939C26.3919 27.5259 26.0781 27.6574 25.75 27.66Z"
              fill="currentColor"></path>
        <path d="M26 24.67C24.4854 24.7044 22.9939 24.2942 21.71 23.49C21.0575 23.0742 20.528 22.4915 20.1763 21.8023C19.8247 21.1131 19.6637 20.3424 19.71 19.57V19.41C19.7369 19.1196 19.8713 18.8498 20.0868 18.6534C20.3023 18.4569 20.5834 18.348 20.875 18.348C21.1666 18.348 21.4477 18.4569 21.6632 18.6534C21.8787 18.8498 22.0131 19.1196 22.04 19.41V19.67C22.0381 20.0375 22.1287 20.3996 22.3034 20.7229C22.4782 21.0462 22.7315 21.3203 23.04 21.52C23.9199 22.0403 24.928 22.3035 25.95 22.28C26.8792 22.3227 27.7986 22.0745 28.58 21.57C28.8481 21.4071 29.0681 21.1759 29.2174 20.9C29.3668 20.6241 29.4402 20.3135 29.43 20C29.4446 19.7163 29.3914 19.4332 29.2749 19.1741C29.1584 18.915 28.9819 18.6874 28.76 18.51C27.7981 17.8749 26.7266 17.4239 25.6 17.18C24.1746 16.8711 22.8185 16.3016 21.6 15.5C21.0949 15.1276 20.6899 14.6358 20.4212 14.0687C20.1525 13.5016 20.0284 12.8768 20.06 12.25C20.0459 11.588 20.1988 10.9331 20.5047 10.3459C20.8105 9.75859 21.2595 9.25789 21.81 8.88999C22.9915 8.10154 24.3903 7.70289 25.81 7.74999C27.3406 7.68063 28.8397 8.19941 30 9.19999C30.5289 9.65304 30.9498 10.2186 31.2318 10.8554C31.5138 11.4921 31.6499 12.1839 31.63 12.88V13C31.6031 13.2903 31.4687 13.5602 31.2532 13.7566C31.0377 13.9531 30.7566 14.0619 30.465 14.0619C30.1734 14.0619 29.8923 13.9531 29.6768 13.7566C29.4613 13.5602 29.3269 13.2903 29.3 13V12.88C29.2896 12.5201 29.2032 12.1666 29.0463 11.8425C28.8895 11.5185 28.6658 11.2314 28.39 11C27.6884 10.4149 26.7924 10.1151 25.88 10.16C24.9634 10.1039 24.0536 10.3498 23.29 10.86C23.0518 11.0096 22.8542 11.2156 22.7146 11.4598C22.5751 11.704 22.4979 11.9788 22.49 12.26C22.4814 12.5226 22.5349 12.7835 22.6461 13.0216C22.7573 13.2596 22.9231 13.4681 23.13 13.63C24.0624 14.2688 25.1185 14.7048 26.23 14.91C27.6593 15.2278 29.0161 15.8112 30.23 16.63C30.7504 17.0194 31.1681 17.5298 31.4469 18.117C31.7257 18.7042 31.8572 19.3505 31.83 20C31.8472 20.6908 31.6882 21.3745 31.368 21.9868C31.0478 22.5992 30.5771 23.1199 30 23.5C28.8208 24.2966 27.4226 24.7056 26 24.67Z"
              fill="currentColor"></path>
        <path d="M25.75 9.64C25.4202 9.64001 25.1038 9.50969 24.8696 9.27743C24.6355 9.04516 24.5026 8.72978 24.5 8.4V6C24.5 5.66848 24.6317 5.35054 24.8661 5.11612C25.1005 4.8817 25.4185 4.75 25.75 4.75C26.0815 4.75 26.3995 4.8817 26.6339 5.11612C26.8683 5.35054 27 5.66848 27 6V8.4C26.9974 8.72978 26.8645 9.04516 26.6304 9.27743C26.3962 9.50969 26.0798 9.64001 25.75 9.64Z"
              fill="currentColor"></path>
        <path d="M40.41 33.62L39.14 33.11V23.11C39.14 22.5796 39.3507 22.0708 39.7258 21.6958C40.1009 21.3207 40.6096 21.11 41.14 21.11H51.14L51.67 22.35L51.19 22.85L40.41 33.62ZM41.13 23.09V30.09L48.13 23.09H41.13Z"
              fill="currentColor"></path>
    </g>
    <defs>
        <clipPath id="clip0_8_49">
            <rect width="54.54" height="36.47" fill="transparent"></rect>
        </clipPath>
    </defs>
</svg>