<svg viewBox="0 0 50 50" fill="none" xmlns="http://www.w3.org/2000/svg"
     class="w-[50px] md:w-[100px] h-[50px] md:h-[100px]">
    <g clip-path="url(#clip0_8_62)">
        <path d="M25 0H24.94C18.3096 0 11.9507 2.63392 7.26233 7.32233C2.57392 12.0107 -0.0599976 18.3696 -0.0599976 25C-0.0599976 31.6304 2.57392 37.9893 7.26233 42.6777C11.9507 47.3661 18.3096 50 24.94 50H25C31.6304 50 37.9893 47.3661 42.6777 42.6777C47.3661 37.9893 50 31.6304 50 25C50 18.3696 47.3661 12.0107 42.6777 7.32233C37.9893 2.63392 31.6304 0 25 0ZM26 15C28.5984 14.9439 31.1833 14.6087 33.71 14C34.5173 17.2737 34.9501 20.6286 35 24H26V15ZM26 13V2.16C28.7 2.9 31.43 6.5 33.17 12.01C30.8212 12.5898 28.418 12.9217 26 13ZM24 2.13V13C21.5614 12.9233 19.1379 12.588 16.77 12C18.53 6.45 21.29 2.84 24 2.13ZM24 15V24H14.94C14.9839 20.6018 15.4168 17.2198 16.23 13.92C18.7742 14.5556 21.3789 14.9176 24 15ZM12.93 24H2C2.20829 19.0279 4.03412 14.2596 7.2 10.42C9.44304 11.6619 11.8091 12.6673 14.26 13.42C13.4155 16.8846 12.9692 20.4342 12.93 24ZM12.93 26C12.9782 29.5736 13.4344 33.13 14.29 36.6C11.8391 37.3527 9.47304 38.3581 7.23 39.6C4.04925 35.7589 2.21249 30.9826 2 26H12.93ZM14.93 26H24V35C21.3818 35.0561 18.7771 35.3914 16.23 36C15.4227 32.7263 14.9899 29.3714 14.94 26H14.93ZM24 37V47.87C21.28 47.16 18.53 43.54 16.77 37.99C19.1392 37.4102 21.5622 37.0784 24 37ZM26 47.81V37C28.4166 37.0652 30.8198 37.3836 33.17 37.95C31.43 43.5 28.7 47.1 26 47.84V47.81ZM26 35V26H35C34.9538 29.3909 34.5244 32.7656 33.72 36.06C31.192 35.4317 28.6038 35.0764 26 35ZM37 26H48C47.7917 30.9721 45.9659 35.7404 42.8 39.58C40.5387 38.3325 38.1522 37.3269 35.68 36.58C36.5221 33.1152 36.965 29.5655 37 26ZM37 24C36.9519 20.4297 36.4956 16.8766 35.64 13.41C38.1125 12.6638 40.4991 11.6582 42.76 10.41C45.9404 14.2483 47.7803 19.0201 48 24H37ZM41.39 8.88C39.3871 9.95068 37.2836 10.8215 35.11 11.48C34.2134 8.20989 32.5897 5.18459 30.36 2.63C34.5472 3.64491 38.3675 5.80964 41.39 8.88ZM19.57 2.66C17.3455 5.19605 15.7279 8.20552 14.84 11.46C12.6825 10.81 10.5954 9.9457 8.61 8.88C11.613 5.82673 15.4088 3.67253 19.57 2.66ZM8.6 41.11C10.587 40.0478 12.6737 39.1836 14.83 38.53C15.7253 41.7866 17.3458 44.7984 19.57 47.34C15.403 46.3294 11.6026 44.1711 8.6 41.11ZM30.35 47.36C32.5908 44.8116 34.219 41.7844 35.11 38.51C37.2868 39.1685 39.3936 40.0393 41.4 41.11C38.376 44.1887 34.5467 46.3546 30.35 47.36Z"
              fill="currentColor"></path>
    </g>
    <defs>
        <clipPath id="clip0_8_62">
            <rect width="50" height="50" fill="transparent"></rect>
        </clipPath>
    </defs>
</svg>