<svg viewBox="0 0 53 57" fill="none" xmlns="http://www.w3.org/2000/svg"
     class="w-[50px] md:w-[100px] h-[50px] md:h-[100px]">
    <g clip-path="url(#clip0_8_60)">
        <path d="M43.2901 0H9.61015C4.30015 0 0.130149 8.75 0.000148606 20V56C-0.00424087 56.2547 0.0887538 56.5015 0.260149 56.69C0.447511 56.8762 0.700963 56.9808 0.965149 56.9808C1.22933 56.9808 1.48279 56.8762 1.67015 56.69L5.23015 53.33L8.80015 56.73C8.86045 56.7824 8.92777 56.8262 9.00015 56.86L9.11015 56.93C9.22885 56.9733 9.35383 56.997 9.48015 57C9.60973 56.997 9.738 56.9734 9.86015 56.93L9.97015 56.85C10.0402 56.816 10.1072 56.7758 10.1701 56.73L13.7201 53.37L17.2801 56.73C17.3405 56.7824 17.4078 56.8262 17.4801 56.86L17.5901 56.93C17.8307 57.0273 18.0996 57.0273 18.3401 56.93L18.4501 56.86C18.5225 56.8262 18.5898 56.7824 18.6501 56.73L22.2101 53.37L25.7701 56.73C25.8251 56.7845 25.8895 56.8285 25.9601 56.86L26.0701 56.93C26.1923 56.9734 26.3206 56.997 26.4501 57C26.5765 56.997 26.7015 56.9733 26.8201 56.93L26.9301 56.86C27.0025 56.8262 27.0698 56.7824 27.1301 56.73L30.6901 53.37L34.2501 56.73C34.4375 56.9163 34.691 57.0208 34.9552 57.0208C35.2193 57.0208 35.4728 56.9163 35.6601 56.73C35.8352 56.5431 35.9318 56.2961 35.9301 56.04V41H43.2901C48.3501 41 52.3701 33.07 52.8501 22.6C52.8501 21.91 52.8501 21.21 52.8501 20.5C52.9001 9 48.6801 0 43.2901 0ZM34.1701 16H32.9401V18H34.0001C34.0001 18.66 33.9401 19.33 33.9401 20V37H32.9401V39H33.9401V53.69L31.3801 51.27L31.2501 51.19C31.1963 51.1441 31.1356 51.1069 31.0701 51.08H30.8901C30.8269 51.0744 30.7634 51.0744 30.7001 51.08H30.5101H30.3301C30.2647 51.1069 30.204 51.1441 30.1501 51.19L30.0201 51.27L26.4601 54.63L22.9001 51.27L22.7701 51.19C22.7148 51.1462 22.6544 51.1092 22.5901 51.08C22.5272 51.0707 22.4631 51.0707 22.4001 51.08H22.2201L22.0001 51H21.8401C21.7716 51.0267 21.7075 51.0638 21.6501 51.11L21.5201 51.19L18.0001 54.63L14.4401 51.27C14.4401 51.27 14.3401 51.22 14.3001 51.19C14.2482 51.1464 14.1911 51.1095 14.1301 51.08C14.0671 51.0716 14.0032 51.0716 13.9401 51.08H13.7601H13.5501H13.3801C13.3159 51.1092 13.2555 51.1462 13.2001 51.19L13.0701 51.27L9.48015 54.63L5.92015 51.27C5.92015 51.27 5.83015 51.22 5.78015 51.18C5.72692 51.1411 5.66997 51.1077 5.61015 51.08C5.54725 51.0696 5.48305 51.0696 5.42015 51.08H5.24015C5.16277 51.046 5.08243 51.0193 5.00015 51H4.83015C4.76472 51.0269 4.70396 51.0641 4.65015 51.11C4.60417 51.1321 4.56061 51.1589 4.52015 51.19L1.90015 53.78V39H2.00015V37H1.90015V20H1.83015C1.83015 19.32 1.83015 18.65 1.89015 18H2.00015V16.44C2.81015 7.65 6.39015 2 9.61015 2H39.5401C36.8301 4.53 34.8201 9.66 34.1701 16ZM35.9301 39V33C36.6528 35.2525 37.8886 37.3064 39.5401 39H35.9301ZM50.8601 22.5C50.4201 32.29 46.8001 38.72 43.4201 38.72C39.8001 38.72 35.9301 31.4 35.9301 20.5C35.9301 9.6 39.8001 2.28 43.4201 2.28C46.8001 2.28 50.4201 8.72 50.8601 18.5C50.8601 19.15 50.8601 19.82 50.8601 20.5C50.8601 21.18 50.8901 21.85 50.8601 22.5ZM43.2901 13.57C40.9201 13.57 39.6701 17.06 39.6701 20.5C39.6701 23.94 40.9201 27.44 43.2901 27.44C45.6601 27.44 46.9101 24 46.9101 20.5C46.9101 17 45.6701 13.57 43.2901 13.57ZM43.2901 25.44C42.8201 25.44 41.6701 23.71 41.6701 20.5C41.6701 17.29 42.8201 15.57 43.2901 15.57C43.7601 15.57 44.9101 17.3 44.9101 20.5C44.9101 23.7 43.7601 25.44 43.2901 25.44ZM22.0001 18H25.0001V16H22.0001V18ZM4.00015 18H7.00015V16H4.00015V18ZM16.0001 18H19.0001V16H16.0001V18ZM28.0001 18H31.0001V16H28.0001V18ZM10.0001 18H13.0001V16H10.0001V18ZM10.0001 39H13.0001V37H10.0001V39ZM4.00015 39H7.00015V37H4.00015V39ZM28.0001 39H31.0001V37H28.0001V39ZM16.0001 39H19.0001V37H16.0001V39ZM22.0001 39H25.0001V37H22.0001V39Z"
              fill="currentColor"></path>
    </g>
    <defs>
        <clipPath id="clip0_8_60">
            <rect width="52.9" height="57" fill="transparent"></rect>
        </clipPath>
    </defs>
</svg>