<svg viewBox="0 0 41 25" fill="none" xmlns="http://www.w3.org/2000/svg">
    <path d="M41 1V7C41 7.55 40.55 8 40 8C39.45 8 39 7.55 39 7V2H34C33.45 2 33 1.55 33 1C33 0.45 33.45 0 34 0H40C40.55 0 41 0.45 41 1ZM36.71 4.29C37.1 4.68 37.1 5.31 36.71 5.7L27.44 14.97C27.78 15.58 28 16.26 28 17C28 19.21 26.21 21 24 21C21.79 21 20 19.21 20 17C20 16.26 20.22 15.58 20.57 14.98L18.02 12.43C17.42 12.78 16.74 13 16 13C15.26 13 14.58 12.78 13.98 12.43L7.43 18.98C7.78 19.58 8 20.26 8 21C8 23.21 6.21 25 4 25C1.79 25 0 23.21 0 21C0 18.79 1.79 17 4 17C4.74 17 5.42 17.22 6.02 17.57L12.57 11.02C12.22 10.42 12 9.74 12 9C12 6.79 13.79 5 16 5C18.21 5 20 6.79 20 9C20 9.74 19.78 10.42 19.43 11.02L21.98 13.57C22.58 13.22 23.26 13 24 13C24.74 13 25.42 13.22 26.02 13.57L35.29 4.3C35.68 3.9 36.32 3.9 36.71 4.29ZM6 21C6 19.9 5.1 19 4 19C2.9 19 2 19.9 2 21C2 22.1 2.9 23 4 23C5.1 23 6 22.1 6 21ZM18 9C18 7.9 17.1 7 16 7C14.9 7 14 7.9 14 9C14 10.1 14.9 11 16 11C17.1 11 18 10.1 18 9ZM26 17C26 15.9 25.1 15 24 15C22.9 15 22 15.9 22 17C22 18.1 22.9 19 24 19C25.1 19 26 18.1 26 17Z"
          fill="#49B9E1"></path>
    <clipPath id="clip0_5_103">
        <rect width="41" height="25" fill="white"></rect>
    </clipPath>
</svg>