<svg viewBox="0 0 56 56" fill="none" xmlns="http://www.w3.org/2000/svg">
    <path d="M55 9H52.05C51.5426 6.47644 50.1822 4.20437 48.1973 2.56546C46.2124 0.92656 43.724 0.02068 41.15 -1.66846e-06C38.7844 -0.00330363 36.4797 0.749922 34.5726 2.14964C32.6656 3.54935 31.2561 5.52221 30.55 7.78C29.7411 7.25693 28.7983 6.97866 27.835 6.97866C26.8717 6.97866 25.9289 7.25693 25.12 7.78C24.3799 5.41983 22.8734 3.37411 20.8392 1.967C18.805 0.559883 16.3593 -0.128151 13.8898 0.0119141C11.4203 0.151979 9.06815 1.11213 7.20606 2.74024C5.34397 4.36834 4.07844 6.57128 3.61 9H1C0.734784 9 0.48043 9.10536 0.292893 9.29289C0.105357 9.48043 0 9.73478 0 10C0 10.2652 0.105357 10.5196 0.292893 10.7071C0.48043 10.8946 0.734784 11 1 11H3.42C3.42 13.9412 4.58841 16.762 6.66819 18.8418C8.74796 20.9216 11.5687 22.09 14.51 22.09C17.4513 22.09 20.272 20.9216 22.3518 18.8418C24.4316 16.762 25.6 13.9412 25.6 11C25.6 10.66 25.6 10.34 25.55 10C25.8374 9.67853 26.1907 9.42279 26.5859 9.25022C26.9811 9.07765 27.4089 8.99231 27.84 9C28.267 9.00021 28.6893 9.08923 29.0801 9.26138C29.4709 9.43353 29.8216 9.68506 30.11 10C30.11 10.34 30.06 10.67 30.06 11C30.06 13.9545 31.2337 16.788 33.3228 18.8772C35.412 20.9663 38.2455 22.14 41.2 22.14C44.1545 22.14 46.988 20.9663 49.0772 18.8772C51.1663 16.788 52.34 13.9545 52.34 11H55C55.2652 11 55.5196 10.8946 55.7071 10.7071C55.8946 10.5196 56 10.2652 56 10C56 9.73478 55.8946 9.48043 55.7071 9.29289C55.5196 9.10536 55.2652 9 55 9ZM14.51 20C12.7335 19.9842 11.0013 19.443 9.53185 18.4445C8.06237 17.446 6.92128 16.0349 6.25234 14.3891C5.5834 12.7432 5.41655 10.9362 5.7728 9.19566C6.12905 7.45513 6.99246 5.85898 8.25426 4.6083C9.51606 3.35761 11.1198 2.50836 12.8634 2.16753C14.607 1.82669 16.4125 2.00953 18.0524 2.69301C19.6923 3.37649 21.0932 4.53002 22.0786 6.00828C23.064 7.48654 23.5899 9.22339 23.59 11C23.59 12.1887 23.3546 13.3656 22.8973 14.4627C22.4401 15.5599 21.77 16.5556 20.9257 17.3924C20.0815 18.2292 19.0799 18.8905 17.9787 19.338C16.8775 19.7856 15.6986 20.0106 14.51 20ZM41.15 20C39.3735 19.9842 37.6413 19.443 36.1719 18.4445C34.7024 17.446 33.5613 16.0349 32.8923 14.3891C32.2234 12.7432 32.0565 10.9362 32.4128 9.19566C32.769 7.45513 33.6325 5.85898 34.8943 4.6083C36.1561 3.35761 37.7598 2.50836 39.5034 2.16753C41.247 1.82669 43.0525 2.00953 44.6924 2.69301C46.3323 3.37649 47.7332 4.53002 48.7186 6.00828C49.704 7.48654 50.2299 9.22339 50.23 11C50.23 12.1887 49.9946 13.3656 49.5373 14.4627C49.0801 15.5599 48.41 16.5556 47.5657 17.3924C46.7215 18.2292 45.7199 18.8905 44.6187 19.338C43.5175 19.7856 42.3386 20.0106 41.15 20Z"
          fill="currentColor"></path>
    <clipPath id="clip0_8_58">
        <rect width="55.99" height="22" fill="transparent"></rect>
    </clipPath>
</svg>