<svg viewBox="0 0 59 59" fill="none" xmlns="http://www.w3.org/2000/svg">
    <path d="M26.73 22H25.85C26.5024 20.3679 26.8416 18.6276 26.85 16.87C26.85 11.29 23.75 6.75 19.94 6.75C16.13 6.75 13 11.29 13 16.87C13.0023 18.6282 13.3417 20.3697 14 22H13.31C12.6149 21.996 11.9259 22.1294 11.2825 22.3923C10.6391 22.6553 10.054 23.0427 9.56061 23.5323C9.06727 24.0219 8.67545 24.6041 8.40764 25.2456C8.13984 25.887 8.00131 26.5749 8 27.27V32C8 32.2652 8.10536 32.5196 8.29289 32.7071C8.48043 32.8946 8.73478 33 9 33H31C31.2652 33 31.5196 32.8946 31.7071 32.7071C31.8946 32.5196 32 32.2652 32 32V27.27C31.9974 25.8731 31.4413 24.5342 30.4535 23.5465C29.4658 22.5587 28.1269 22.0026 26.73 22ZM19.9 8.75C22.56 8.75 24.81 12.47 24.81 16.87C24.8277 18.6436 24.4413 20.398 23.68 22C23.4169 22.8208 22.8804 23.5267 22.16 24H22.26C21.6409 24.6147 20.812 24.972 19.94 25C19.0715 24.9695 18.2466 24.6124 17.63 24H17.76C17.0396 23.5267 16.5031 22.8208 16.24 22H16.17C15.3949 20.4012 14.9947 18.6467 15 16.87C15 12.47 17.25 8.75 19.9 8.75ZM30 31H10V27.27C10.0026 26.4036 10.348 25.5733 10.9607 24.9607C11.5733 24.348 12.4036 24.0026 13.27 24H15C15.5032 24.8656 16.2133 25.5929 17.0668 26.1165C17.9203 26.6401 18.8903 26.9436 19.89 27C20.8912 26.9444 21.8629 26.6412 22.7181 26.1176C23.5733 25.594 24.2852 24.8664 24.79 24H26.72C27.5882 24 28.4209 24.3442 29.0358 24.9572C29.6506 25.5701 29.9974 26.4018 30 27.27V31ZM35 22H50V20H35V22ZM39 27H50V25H39V27ZM39 32H50V30H39V32ZM55 0H4C2.91654 0.0965561 1.90751 0.591916 1.16847 1.39007C0.429444 2.18822 0.0130507 3.23232 0 4.32L0 38C0.0183846 39.069 0.45666 40.0878 1.22011 40.8363C1.98356 41.5848 3.01086 42.0028 4.08 42H55C56.0609 42 57.0783 41.5786 57.8284 40.8284C58.5786 40.0783 59 39.0609 59 38V4.32C59.0126 3.22488 58.6049 2.1666 57.8608 1.36298C57.1167 0.559371 56.0929 0.0715762 55 0ZM57 38C57 38.5304 56.7893 39.0391 56.4142 39.4142C56.0391 39.7893 55.5304 40 55 40H4C3.47512 39.9825 2.9765 39.7662 2.60514 39.3949C2.23379 39.0235 2.01747 38.5249 2 38V4.32C2.01596 3.74966 2.23376 3.20347 2.61464 2.77865C2.99552 2.35382 3.51478 2.0779 4.08 2H55C55.5601 2.0736 56.0735 2.35076 56.4424 2.77863C56.8112 3.20651 57.0097 3.75517 57 4.32V38ZM33 12H50V10H33V12ZM33 17H50V15H33V17Z"
          fill="currentColor"></path>
    <clipPath id="clip0_8_56">
        <rect width="59" height="42" fill="transparent"></rect>
    </clipPath>
</svg>